{
	"patcher" : 	{
		"fileversion" : 1,
		"appversion" : 		{
			"major" : 7,
			"minor" : 0,
			"revision" : 5,
			"architecture" : "x86",
			"modernui" : 1
		}
,
		"rect" : [ 157.0, 79.0, 430.0, 666.0 ],
		"bglocked" : 0,
		"openinpresentation" : 1,
		"default_fontsize" : 12.0,
		"default_fontface" : 0,
		"default_fontname" : "Arial",
		"gridonopen" : 1,
		"gridsize" : [ 15.0, 15.0 ],
		"gridsnaponopen" : 1,
		"objectsnaponopen" : 1,
		"statusbarvisible" : 2,
		"toolbarvisible" : 1,
		"lefttoolbarpinned" : 0,
		"toptoolbarpinned" : 0,
		"righttoolbarpinned" : 0,
		"bottomtoolbarpinned" : 0,
		"toolbars_unpinned_last_save" : 0,
		"tallnewobj" : 0,
		"boxanimatetime" : 200,
		"enablehscroll" : 1,
		"enablevscroll" : 1,
		"devicewidth" : 0.0,
		"description" : "",
		"digest" : "",
		"tags" : "",
		"style" : "",
		"subpatcher_template" : "",
		"boxes" : [ 			{
				"box" : 				{
					"bubble" : 1,
					"bubbleside" : 3,
					"id" : "obj-7",
					"linecount" : 4,
					"maxclass" : "comment",
					"numinlets" : 1,
					"numoutlets" : 0,
					"patching_rect" : [ 549.933228, 537.0, 154.0, 64.0 ],
					"style" : "",
					"text" : "Data from the changing start ms controlls the bangs that effect the auto filtering",
					"textcolor" : [ 0.0, 0.0, 0.0, 1.0 ]
				}

			}
, 			{
				"box" : 				{
					"bubble" : 1,
					"bubbleside" : 0,
					"id" : "obj-5",
					"linecount" : 2,
					"maxclass" : "comment",
					"numinlets" : 1,
					"numoutlets" : 0,
					"patching_rect" : [ 1060.0, 1098.333496, 150.0, 52.0 ],
					"style" : "",
					"text" : "Master filter ranomization on/off",
					"textcolor" : [ 0.0, 0.0, 0.0, 1.0 ]
				}

			}
, 			{
				"box" : 				{
					"id" : "obj-289",
					"linecount" : 2,
					"maxclass" : "comment",
					"numinlets" : 1,
					"numoutlets" : 0,
					"patching_rect" : [ 330.666687, 1199.833496, 150.0, 33.0 ],
					"presentation" : 1,
					"presentation_linecount" : 4,
					"presentation_rect" : [ 347.799774, 587.999939, 67.333328, 60.0 ],
					"style" : "",
					"text" : "Random Buffer Scrubbing On/Off"
				}

			}
, 			{
				"box" : 				{
					"id" : "obj-285",
					"maxclass" : "comment",
					"numinlets" : 1,
					"numoutlets" : 0,
					"patching_rect" : [ 330.666687, 1234.833496, 150.0, 20.0 ],
					"presentation" : 1,
					"presentation_rect" : [ 9.333626, 627.999939, 119.466309, 20.0 ],
					"style" : "",
					"text" : "Playback Frequency"
				}

			}
, 			{
				"box" : 				{
					"id" : "obj-283",
					"maxclass" : "toggle",
					"numinlets" : 1,
					"numoutlets" : 1,
					"outlettype" : [ "int" ],
					"parameter_enable" : 0,
					"patching_rect" : [ 1123.0, 1057.000244, 24.0, 24.0 ],
					"presentation" : 1,
					"presentation_rect" : [ 292.233002, 587.999939, 48.0, 48.0 ],
					"style" : ""
				}

			}
, 			{
				"box" : 				{
					"id" : "obj-278",
					"maxclass" : "comment",
					"numinlets" : 1,
					"numoutlets" : 0,
					"patching_rect" : [ 330.666687, 1176.000244, 150.0, 20.0 ],
					"presentation" : 1,
					"presentation_rect" : [ 348.833221, 352.999939, 71.333328, 20.0 ],
					"style" : "",
					"text" : "Resonence"
				}

			}
, 			{
				"box" : 				{
					"id" : "obj-279",
					"maxclass" : "comment",
					"numinlets" : 1,
					"numoutlets" : 0,
					"patching_rect" : [ 330.666687, 1108.333496, 150.0, 20.0 ],
					"presentation" : 1,
					"presentation_rect" : [ 296.666473, 352.999939, 36.666664, 20.0 ],
					"style" : "",
					"text" : "Gain"
				}

			}
, 			{
				"box" : 				{
					"id" : "obj-280",
					"maxclass" : "comment",
					"numinlets" : 1,
					"numoutlets" : 0,
					"patching_rect" : [ 330.666687, 1084.666748, 150.0, 20.0 ],
					"presentation" : 1,
					"presentation_rect" : [ 220.849823, 352.999939, 51.299927, 20.0 ],
					"style" : "",
					"text" : "Cutt Off"
				}

			}
, 			{
				"box" : 				{
					"id" : "obj-277",
					"maxclass" : "comment",
					"numinlets" : 1,
					"numoutlets" : 0,
					"patching_rect" : [ 330.666687, 1154.000244, 150.0, 20.0 ],
					"presentation" : 1,
					"presentation_rect" : [ 144.300018, 352.999939, 71.333328, 20.0 ],
					"style" : "",
					"text" : "Resonence"
				}

			}
, 			{
				"box" : 				{
					"id" : "obj-275",
					"maxclass" : "comment",
					"numinlets" : 1,
					"numoutlets" : 0,
					"patching_rect" : [ 330.666687, 1132.000244, 150.0, 20.0 ],
					"presentation" : 1,
					"presentation_rect" : [ 92.13327, 352.999939, 36.666664, 20.0 ],
					"style" : "",
					"text" : "Gain"
				}

			}
, 			{
				"box" : 				{
					"id" : "obj-273",
					"maxclass" : "comment",
					"numinlets" : 1,
					"numoutlets" : 0,
					"patching_rect" : [ 330.666687, 1060.666748, 150.0, 20.0 ],
					"presentation" : 1,
					"presentation_rect" : [ 19.333338, 352.999939, 51.299927, 20.0 ],
					"style" : "",
					"text" : "Cutt Off"
				}

			}
, 			{
				"box" : 				{
					"id" : "obj-271",
					"maxclass" : "comment",
					"numinlets" : 1,
					"numoutlets" : 0,
					"patching_rect" : [ 330.666687, 994.000122, 150.0, 20.0 ],
					"presentation" : 1,
					"presentation_rect" : [ 256.666473, 326.999939, 116.666824, 20.0 ],
					"style" : "",
					"text" : "Right Channel Filter"
				}

			}
, 			{
				"box" : 				{
					"id" : "obj-269",
					"maxclass" : "comment",
					"numinlets" : 1,
					"numoutlets" : 0,
					"patching_rect" : [ 330.666687, 971.0, 150.0, 20.0 ],
					"presentation" : 1,
					"presentation_rect" : [ 56.983482, 326.999939, 107.0, 20.0 ],
					"style" : "",
					"text" : "Left Channel Filter"
				}

			}
, 			{
				"box" : 				{
					"id" : "obj-267",
					"maxclass" : "comment",
					"numinlets" : 1,
					"numoutlets" : 0,
					"patching_rect" : [ 330.666687, 1014.333374, 150.0, 20.0 ],
					"presentation" : 1,
					"presentation_rect" : [ 151.666718, 167.66658, 123.33313, 20.0 ],
					"style" : "",
					"text" : "Right Channel Buffer"
				}

			}
, 			{
				"box" : 				{
					"id" : "obj-261",
					"maxclass" : "comment",
					"numinlets" : 1,
					"numoutlets" : 0,
					"patching_rect" : [ 330.666687, 697.333374, 150.0, 20.0 ],
					"presentation" : 1,
					"presentation_linecount" : 2,
					"presentation_rect" : [ 291.999969, 196.999832, 63.333332, 33.0 ],
					"style" : "",
					"text" : "Random Selection"
				}

			}
, 			{
				"box" : 				{
					"id" : "obj-262",
					"linecount" : 2,
					"maxclass" : "comment",
					"numinlets" : 1,
					"numoutlets" : 0,
					"patching_rect" : [ 330.666687, 822.0, 150.0, 33.0 ],
					"presentation" : 1,
					"presentation_linecount" : 3,
					"presentation_rect" : [ 345.333099, 182.999832, 61.0, 47.0 ],
					"style" : "",
					"text" : "Random Selection Amount"
				}

			}
, 			{
				"box" : 				{
					"id" : "obj-263",
					"maxclass" : "comment",
					"numinlets" : 1,
					"numoutlets" : 0,
					"patching_rect" : [ 330.666687, 746.333374, 150.0, 20.0 ],
					"presentation" : 1,
					"presentation_linecount" : 2,
					"presentation_rect" : [ 236.432953, 196.999832, 61.0, 33.0 ],
					"style" : "",
					"text" : "Selection End ms"
				}

			}
, 			{
				"box" : 				{
					"id" : "obj-264",
					"maxclass" : "comment",
					"numinlets" : 1,
					"numoutlets" : 0,
					"patching_rect" : [ 330.666687, 769.0, 150.0, 20.0 ],
					"presentation" : 1,
					"presentation_linecount" : 2,
					"presentation_rect" : [ 161.766327, 196.999832, 61.0, 33.0 ],
					"style" : "",
					"text" : "Selection Start ms"
				}

			}
, 			{
				"box" : 				{
					"id" : "obj-265",
					"maxclass" : "comment",
					"numinlets" : 1,
					"numoutlets" : 0,
					"patching_rect" : [ 330.666687, 902.333374, 150.0, 20.0 ],
					"presentation" : 1,
					"presentation_linecount" : 2,
					"presentation_rect" : [ 92.432953, 196.999832, 56.666664, 33.0 ],
					"style" : "",
					"text" : "Display End ms"
				}

			}
, 			{
				"box" : 				{
					"id" : "obj-266",
					"maxclass" : "comment",
					"numinlets" : 1,
					"numoutlets" : 0,
					"patching_rect" : [ 330.666687, 927.666748, 150.0, 20.0 ],
					"presentation" : 1,
					"presentation_linecount" : 2,
					"presentation_rect" : [ 19.333338, 196.999832, 55.333332, 33.0 ],
					"style" : "",
					"text" : "Display Start ms"
				}

			}
, 			{
				"box" : 				{
					"id" : "obj-260",
					"maxclass" : "comment",
					"numinlets" : 1,
					"numoutlets" : 0,
					"patching_rect" : [ 330.666687, 1036.333374, 150.0, 20.0 ],
					"presentation" : 1,
					"presentation_rect" : [ 151.666718, 11.999965, 112.0, 20.0 ],
					"style" : "",
					"text" : "Left Channel Buffer"
				}

			}
, 			{
				"box" : 				{
					"id" : "obj-257",
					"maxclass" : "comment",
					"numinlets" : 1,
					"numoutlets" : 0,
					"patching_rect" : [ 330.666687, 675.333374, 150.0, 20.0 ],
					"presentation" : 1,
					"presentation_linecount" : 2,
					"presentation_rect" : [ 293.333344, 40.666592, 63.333332, 33.0 ],
					"style" : "",
					"text" : "Random Selection"
				}

			}
, 			{
				"box" : 				{
					"id" : "obj-254",
					"linecount" : 2,
					"maxclass" : "comment",
					"numinlets" : 1,
					"numoutlets" : 0,
					"patching_rect" : [ 330.666687, 791.0, 150.0, 33.0 ],
					"presentation" : 1,
					"presentation_linecount" : 3,
					"presentation_rect" : [ 346.666473, 26.666592, 61.0, 47.0 ],
					"style" : "",
					"text" : "Random Selection Amount"
				}

			}
, 			{
				"box" : 				{
					"id" : "obj-252",
					"maxclass" : "comment",
					"numinlets" : 1,
					"numoutlets" : 0,
					"patching_rect" : [ 330.666687, 858.333374, 150.0, 20.0 ],
					"presentation" : 1,
					"presentation_linecount" : 2,
					"presentation_rect" : [ 237.766327, 40.666592, 61.0, 33.0 ],
					"style" : "",
					"text" : "Selection End ms"
				}

			}
, 			{
				"box" : 				{
					"id" : "obj-250",
					"maxclass" : "comment",
					"numinlets" : 1,
					"numoutlets" : 0,
					"patching_rect" : [ 330.666687, 722.000122, 150.0, 20.0 ],
					"presentation" : 1,
					"presentation_linecount" : 2,
					"presentation_rect" : [ 163.099701, 40.666592, 61.0, 33.0 ],
					"style" : "",
					"text" : "Selection Start ms"
				}

			}
, 			{
				"box" : 				{
					"id" : "obj-247",
					"maxclass" : "comment",
					"numinlets" : 1,
					"numoutlets" : 0,
					"patching_rect" : [ 330.666687, 880.333374, 150.0, 20.0 ],
					"presentation" : 1,
					"presentation_linecount" : 2,
					"presentation_rect" : [ 93.766327, 40.666592, 56.666664, 33.0 ],
					"style" : "",
					"text" : "Display End ms"
				}

			}
, 			{
				"box" : 				{
					"id" : "obj-245",
					"maxclass" : "comment",
					"numinlets" : 1,
					"numoutlets" : 0,
					"patching_rect" : [ 330.666687, 949.0, 150.0, 20.0 ],
					"presentation" : 1,
					"presentation_linecount" : 2,
					"presentation_rect" : [ 20.666708, 40.666592, 55.333332, 33.0 ],
					"style" : "",
					"text" : "Display Start ms"
				}

			}
, 			{
				"box" : 				{
					"id" : "obj-241",
					"maxclass" : "newobj",
					"numinlets" : 2,
					"numoutlets" : 1,
					"outlettype" : [ "" ],
					"patching_rect" : [ 392.333252, 432.333496, 34.0, 22.0 ],
					"style" : "",
					"text" : "gate"
				}

			}
, 			{
				"box" : 				{
					"id" : "obj-242",
					"maxclass" : "newobj",
					"numinlets" : 2,
					"numoutlets" : 1,
					"outlettype" : [ "" ],
					"patching_rect" : [ 361.666626, 432.333496, 34.0, 22.0 ],
					"style" : "",
					"text" : "gate"
				}

			}
, 			{
				"box" : 				{
					"id" : "obj-239",
					"maxclass" : "toggle",
					"numinlets" : 1,
					"numoutlets" : 1,
					"outlettype" : [ "int" ],
					"parameter_enable" : 0,
					"patching_rect" : [ 1370.666748, 402.666626, 24.0, 24.0 ],
					"presentation" : 1,
					"presentation_rect" : [ 302.999847, 233.199783, 24.0, 24.0 ],
					"style" : ""
				}

			}
, 			{
				"box" : 				{
					"id" : "obj-237",
					"maxclass" : "newobj",
					"numinlets" : 2,
					"numoutlets" : 1,
					"outlettype" : [ "" ],
					"patching_rect" : [ 1401.666748, 442.666748, 34.0, 22.0 ],
					"style" : "",
					"text" : "gate"
				}

			}
, 			{
				"box" : 				{
					"id" : "obj-236",
					"maxclass" : "newobj",
					"numinlets" : 2,
					"numoutlets" : 1,
					"outlettype" : [ "" ],
					"patching_rect" : [ 1370.666748, 442.666748, 34.0, 22.0 ],
					"style" : "",
					"text" : "gate"
				}

			}
, 			{
				"box" : 				{
					"bubble" : 1,
					"bubbleside" : 3,
					"id" : "obj-234",
					"linecount" : 4,
					"maxclass" : "comment",
					"numinlets" : 1,
					"numoutlets" : 0,
					"patching_rect" : [ 330.666687, 465.333374, 154.0, 64.0 ],
					"style" : "",
					"text" : "Display start time ms, Display end time ms, Selection start time ms, Selection end time ms. ",
					"textcolor" : [ 0.0, 0.0, 0.0, 1.0 ]
				}

			}
, 			{
				"box" : 				{
					"bubble" : 1,
					"id" : "obj-232",
					"linecount" : 4,
					"maxclass" : "comment",
					"numinlets" : 1,
					"numoutlets" : 0,
					"patching_rect" : [ 1218.583374, 371.599976, 150.0, 64.0 ],
					"style" : "",
					"text" : "Creates random start and end points based off of input from the master tempo",
					"textcolor" : [ 0.0, 0.0, 0.0, 1.0 ]
				}

			}
, 			{
				"box" : 				{
					"bubble" : 1,
					"bubbleside" : 3,
					"id" : "obj-231",
					"linecount" : 4,
					"maxclass" : "comment",
					"numinlets" : 1,
					"numoutlets" : 0,
					"patching_rect" : [ 570.866699, 320.200073, 150.0, 64.0 ],
					"style" : "",
					"text" : "Creates random start and end points based off of input from the master tempo",
					"textcolor" : [ 0.0, 0.0, 0.0, 1.0 ]
				}

			}
, 			{
				"box" : 				{
					"bubble" : 1,
					"bubblepoint" : 0.9,
					"bubbleside" : 3,
					"id" : "obj-226",
					"linecount" : 3,
					"maxclass" : "comment",
					"numinlets" : 1,
					"numoutlets" : 0,
					"patching_rect" : [ 587.75, 680.0, 169.0, 51.0 ],
					"style" : "",
					"text" : "seconds to take per envelope i.e envelope in Hz",
					"textcolor" : [ 0.0, 0.0, 0.0, 1.0 ]
				}

			}
, 			{
				"box" : 				{
					"bubble" : 1,
					"id" : "obj-227",
					"maxclass" : "comment",
					"numinlets" : 1,
					"numoutlets" : 0,
					"patching_rect" : [ 820.550049, 674.333374, 119.333336, 24.0 ],
					"style" : "",
					"text" : "envelope in secs",
					"textcolor" : [ 0.0, 0.0, 0.0, 1.0 ]
				}

			}
, 			{
				"box" : 				{
					"bubble" : 1,
					"bubbleside" : 3,
					"id" : "obj-228",
					"linecount" : 3,
					"maxclass" : "comment",
					"numinlets" : 1,
					"numoutlets" : 0,
					"patching_rect" : [ 502.716431, 747.0, 152.0, 51.0 ],
					"style" : "",
					"text" : "ramp percentage\nspecify between 0. and 1.",
					"textcolor" : [ 0.0, 0.0, 0.0, 1.0 ]
				}

			}
, 			{
				"box" : 				{
					"bubble" : 1,
					"bubbleside" : 3,
					"id" : "obj-229",
					"linecount" : 2,
					"maxclass" : "comment",
					"numinlets" : 1,
					"numoutlets" : 0,
					"patching_rect" : [ 626.75, 610.0, 91.0, 37.0 ],
					"style" : "",
					"text" : "envelope in ms",
					"textcolor" : [ 0.0, 0.0, 0.0, 1.0 ]
				}

			}
, 			{
				"box" : 				{
					"comment" : "",
					"id" : "obj-225",
					"maxclass" : "outlet",
					"numinlets" : 1,
					"numoutlets" : 0,
					"patching_rect" : [ 1261.666626, 1633.333252, 30.0, 30.0 ],
					"style" : ""
				}

			}
, 			{
				"box" : 				{
					"comment" : "",
					"id" : "obj-224",
					"maxclass" : "outlet",
					"numinlets" : 1,
					"numoutlets" : 0,
					"patching_rect" : [ 1152.666626, 1633.333252, 30.0, 30.0 ],
					"style" : ""
				}

			}
, 			{
				"box" : 				{
					"comment" : "",
					"id" : "obj-223",
					"maxclass" : "inlet",
					"numinlets" : 0,
					"numoutlets" : 1,
					"outlettype" : [ "" ],
					"patching_rect" : [ 691.416626, 48.800049, 30.0, 30.0 ],
					"style" : ""
				}

			}
, 			{
				"box" : 				{
					"id" : "obj-221",
					"maxclass" : "spectroscope~",
					"numinlets" : 2,
					"numoutlets" : 1,
					"outlettype" : [ "" ],
					"patching_rect" : [ 1152.833374, 942.666748, 300.0, 100.0 ],
					"style" : ""
				}

			}
, 			{
				"box" : 				{
					"id" : "obj-209",
					"maxclass" : "spectroscope~",
					"numinlets" : 2,
					"numoutlets" : 1,
					"outlettype" : [ "" ],
					"patching_rect" : [ 847.0, 942.666748, 300.0, 100.0 ],
					"style" : ""
				}

			}
, 			{
				"box" : 				{
					"id" : "obj-206",
					"maxclass" : "newobj",
					"numinlets" : 2,
					"numoutlets" : 1,
					"outlettype" : [ "int" ],
					"patching_rect" : [ 1214.500122, 310.200073, 75.0, 22.0 ],
					"style" : "",
					"text" : "random 500"
				}

			}
, 			{
				"box" : 				{
					"id" : "obj-198",
					"maxclass" : "newobj",
					"numinlets" : 2,
					"numoutlets" : 1,
					"outlettype" : [ "int" ],
					"patching_rect" : [ 783.699951, 310.200073, 75.0, 22.0 ],
					"style" : "",
					"text" : "random 500"
				}

			}
, 			{
				"box" : 				{
					"id" : "obj-197",
					"maxclass" : "number",
					"numinlets" : 1,
					"numoutlets" : 2,
					"outlettype" : [ "", "bang" ],
					"parameter_enable" : 0,
					"patching_rect" : [ 1266.5, 270.466553, 50.0, 22.0 ],
					"presentation" : 1,
					"presentation_rect" : [ 354.666351, 233.199783, 50.0, 22.0 ],
					"style" : ""
				}

			}
, 			{
				"box" : 				{
					"id" : "obj-188",
					"maxclass" : "number",
					"numinlets" : 1,
					"numoutlets" : 2,
					"outlettype" : [ "", "bang" ],
					"parameter_enable" : 0,
					"patching_rect" : [ 835.699829, 270.466553, 50.0, 22.0 ],
					"presentation" : 1,
					"presentation_rect" : [ 355.999725, 75.66658, 50.0, 22.0 ],
					"style" : ""
				}

			}
, 			{
				"box" : 				{
					"format" : 6,
					"id" : "obj-186",
					"maxclass" : "flonum",
					"numinlets" : 1,
					"numoutlets" : 2,
					"outlettype" : [ "", "bang" ],
					"parameter_enable" : 0,
					"patching_rect" : [ 912.799927, 470.333374, 50.0, 22.0 ],
					"presentation" : 1,
					"presentation_rect" : [ 19.333338, 233.199783, 50.0, 22.0 ],
					"style" : ""
				}

			}
, 			{
				"box" : 				{
					"format" : 6,
					"id" : "obj-184",
					"maxclass" : "flonum",
					"numinlets" : 1,
					"numoutlets" : 2,
					"outlettype" : [ "", "bang" ],
					"parameter_enable" : 0,
					"patching_rect" : [ 912.799927, 499.533325, 50.0, 22.0 ],
					"presentation" : 1,
					"presentation_rect" : [ 92.432953, 233.199783, 50.0, 22.0 ],
					"style" : ""
				}

			}
, 			{
				"box" : 				{
					"format" : 6,
					"id" : "obj-182",
					"maxclass" : "flonum",
					"numinlets" : 1,
					"numoutlets" : 2,
					"outlettype" : [ "", "bang" ],
					"parameter_enable" : 0,
					"patching_rect" : [ 967.999878, 470.333374, 50.0, 22.0 ],
					"presentation" : 1,
					"presentation_rect" : [ 161.766327, 233.199783, 50.0, 22.0 ],
					"style" : ""
				}

			}
, 			{
				"box" : 				{
					"format" : 6,
					"id" : "obj-180",
					"maxclass" : "flonum",
					"numinlets" : 1,
					"numoutlets" : 2,
					"outlettype" : [ "", "bang" ],
					"parameter_enable" : 0,
					"patching_rect" : [ 967.999878, 499.533325, 50.0, 22.0 ],
					"presentation" : 1,
					"presentation_rect" : [ 236.432953, 233.199783, 50.0, 22.0 ],
					"style" : ""
				}

			}
, 			{
				"box" : 				{
					"format" : 6,
					"id" : "obj-176",
					"maxclass" : "flonum",
					"numinlets" : 1,
					"numoutlets" : 2,
					"outlettype" : [ "", "bang" ],
					"parameter_enable" : 0,
					"patching_rect" : [ 544.433105, 471.666626, 50.0, 22.0 ],
					"presentation" : 1,
					"presentation_rect" : [ 163.099701, 75.66658, 50.0, 22.0 ],
					"style" : ""
				}

			}
, 			{
				"box" : 				{
					"format" : 6,
					"id" : "obj-174",
					"maxclass" : "flonum",
					"numinlets" : 1,
					"numoutlets" : 2,
					"outlettype" : [ "", "bang" ],
					"parameter_enable" : 0,
					"patching_rect" : [ 544.433105, 499.533325, 50.0, 22.0 ],
					"presentation" : 1,
					"presentation_rect" : [ 237.766327, 75.66658, 50.0, 22.0 ],
					"style" : ""
				}

			}
, 			{
				"box" : 				{
					"format" : 6,
					"id" : "obj-172",
					"maxclass" : "flonum",
					"numinlets" : 1,
					"numoutlets" : 2,
					"outlettype" : [ "", "bang" ],
					"parameter_enable" : 0,
					"patching_rect" : [ 492.433105, 471.666626, 50.0, 22.0 ],
					"presentation" : 1,
					"presentation_rect" : [ 20.666708, 75.66658, 50.0, 22.0 ],
					"style" : ""
				}

			}
, 			{
				"box" : 				{
					"format" : 6,
					"id" : "obj-170",
					"maxclass" : "flonum",
					"numinlets" : 1,
					"numoutlets" : 2,
					"outlettype" : [ "", "bang" ],
					"parameter_enable" : 0,
					"patching_rect" : [ 492.433105, 499.533325, 50.0, 22.0 ],
					"presentation" : 1,
					"presentation_rect" : [ 93.766327, 75.66658, 50.0, 22.0 ],
					"style" : ""
				}

			}
, 			{
				"box" : 				{
					"id" : "obj-166",
					"maxclass" : "button",
					"numinlets" : 1,
					"numoutlets" : 1,
					"outlettype" : [ "bang" ],
					"patching_rect" : [ 1813.0, 958.666504, 24.0, 24.0 ],
					"style" : ""
				}

			}
, 			{
				"box" : 				{
					"id" : "obj-164",
					"maxclass" : "newobj",
					"numinlets" : 1,
					"numoutlets" : 1,
					"outlettype" : [ "bang" ],
					"patching_rect" : [ 1782.0, 918.999756, 60.0, 22.0 ],
					"style" : "",
					"text" : "loadbang"
				}

			}
, 			{
				"box" : 				{
					"id" : "obj-163",
					"maxclass" : "toggle",
					"numinlets" : 1,
					"numoutlets" : 1,
					"outlettype" : [ "int" ],
					"parameter_enable" : 0,
					"patching_rect" : [ 1782.0, 958.666504, 24.0, 24.0 ],
					"style" : ""
				}

			}
, 			{
				"box" : 				{
					"id" : "obj-161",
					"maxclass" : "newobj",
					"numinlets" : 2,
					"numoutlets" : 1,
					"outlettype" : [ "signal" ],
					"patching_rect" : [ 1713.0, 1007.666504, 41.0, 22.0 ],
					"style" : "",
					"text" : "gate~"
				}

			}
, 			{
				"box" : 				{
					"id" : "obj-160",
					"maxclass" : "button",
					"numinlets" : 1,
					"numoutlets" : 1,
					"outlettype" : [ "bang" ],
					"patching_rect" : [ 638.300049, 979.333496, 24.0, 24.0 ],
					"style" : ""
				}

			}
, 			{
				"box" : 				{
					"id" : "obj-158",
					"maxclass" : "newobj",
					"numinlets" : 2,
					"numoutlets" : 1,
					"outlettype" : [ "signal" ],
					"patching_rect" : [ 554.300049, 1077.333496, 41.0, 22.0 ],
					"style" : "",
					"text" : "gate~"
				}

			}
, 			{
				"box" : 				{
					"id" : "obj-153",
					"maxclass" : "toggle",
					"numinlets" : 1,
					"numoutlets" : 1,
					"outlettype" : [ "int" ],
					"parameter_enable" : 0,
					"patching_rect" : [ 606.300049, 979.333496, 24.0, 24.0 ],
					"style" : ""
				}

			}
, 			{
				"box" : 				{
					"id" : "obj-151",
					"maxclass" : "gain~",
					"numinlets" : 1,
					"numoutlets" : 2,
					"outlettype" : [ "signal", "int" ],
					"parameter_enable" : 0,
					"patching_rect" : [ 1261.666626, 1457.666748, 22.0, 140.0 ],
					"presentation" : 1,
					"presentation_rect" : [ 217.999847, 536.333252, 194.0, 46.666664 ],
					"style" : ""
				}

			}
, 			{
				"box" : 				{
					"id" : "obj-149",
					"maxclass" : "button",
					"numinlets" : 1,
					"numoutlets" : 1,
					"outlettype" : [ "bang" ],
					"patching_rect" : [ 1517.0, 1078.666504, 24.0, 24.0 ],
					"style" : ""
				}

			}
, 			{
				"box" : 				{
					"id" : "obj-147",
					"maxclass" : "toggle",
					"numinlets" : 1,
					"numoutlets" : 1,
					"outlettype" : [ "int" ],
					"parameter_enable" : 0,
					"patching_rect" : [ 1848.833252, 958.666504, 24.0, 24.0 ],
					"style" : ""
				}

			}
, 			{
				"box" : 				{
					"id" : "obj-145",
					"maxclass" : "newobj",
					"numinlets" : 2,
					"numoutlets" : 1,
					"outlettype" : [ "signal" ],
					"patching_rect" : [ 1411.5, 1104.666504, 41.0, 22.0 ],
					"style" : "",
					"text" : "gate~"
				}

			}
, 			{
				"box" : 				{
					"id" : "obj-144",
					"maxclass" : "gain~",
					"numinlets" : 1,
					"numoutlets" : 2,
					"outlettype" : [ "signal", "int" ],
					"parameter_enable" : 0,
					"patching_rect" : [ 1152.666626, 1457.666748, 22.0, 140.0 ],
					"presentation" : 1,
					"presentation_rect" : [ 13.46664, 536.333252, 194.0, 46.666664 ],
					"style" : ""
				}

			}
, 			{
				"box" : 				{
					"id" : "obj-143",
					"maxclass" : "button",
					"numinlets" : 1,
					"numoutlets" : 1,
					"outlettype" : [ "bang" ],
					"patching_rect" : [ 726.300049, 1062.333496, 24.0, 24.0 ],
					"style" : ""
				}

			}
, 			{
				"box" : 				{
					"id" : "obj-141",
					"maxclass" : "toggle",
					"numinlets" : 1,
					"numoutlets" : 1,
					"outlettype" : [ "int" ],
					"parameter_enable" : 0,
					"patching_rect" : [ 673.300049, 979.333496, 24.0, 24.0 ],
					"style" : ""
				}

			}
, 			{
				"box" : 				{
					"id" : "obj-139",
					"maxclass" : "newobj",
					"numinlets" : 2,
					"numoutlets" : 1,
					"outlettype" : [ "signal" ],
					"patching_rect" : [ 631.300049, 1077.333496, 41.0, 22.0 ],
					"style" : "",
					"text" : "gate~"
				}

			}
, 			{
				"box" : 				{
					"id" : "obj-118",
					"maxclass" : "button",
					"numinlets" : 1,
					"numoutlets" : 1,
					"outlettype" : [ "bang" ],
					"patching_rect" : [ 749.800049, 1090.333496, 24.0, 24.0 ],
					"style" : ""
				}

			}
, 			{
				"box" : 				{
					"bubble" : 1,
					"id" : "obj-119",
					"linecount" : 4,
					"maxclass" : "comment",
					"numinlets" : 1,
					"numoutlets" : 0,
					"patching_rect" : [ 985.133423, 1244.833496, 87.333328, 64.0 ],
					"style" : "",
					"text" : "(In order)\nCuttoff Gain Resonence",
					"textcolor" : [ 0.0, 0.0, 0.0, 1.0 ]
				}

			}
, 			{
				"box" : 				{
					"bubble" : 1,
					"id" : "obj-120",
					"linecount" : 2,
					"maxclass" : "comment",
					"numinlets" : 1,
					"numoutlets" : 0,
					"patching_rect" : [ 813.550049, 1083.833496, 150.0, 37.0 ],
					"style" : "",
					"text" : "On/off for randomizing the filter",
					"textcolor" : [ 0.0, 0.0, 0.0, 1.0 ]
				}

			}
, 			{
				"box" : 				{
					"id" : "obj-121",
					"maxclass" : "newobj",
					"numinlets" : 1,
					"numoutlets" : 1,
					"outlettype" : [ "bang" ],
					"patching_rect" : [ 606.300049, 942.666748, 60.0, 22.0 ],
					"style" : "",
					"text" : "loadbang"
				}

			}
, 			{
				"box" : 				{
					"fontface" : 0,
					"id" : "obj-122",
					"linmarkers" : [ 0.0, 11025.0, 16537.5 ],
					"logmarkers" : [ 0.0, 100.0, 1000.0, 10000.0 ],
					"maxclass" : "filtergraph~",
					"nfilters" : 1,
					"numinlets" : 8,
					"numoutlets" : 7,
					"outlettype" : [ "list", "float", "float", "float", "float", "list", "int" ],
					"parameter_enable" : 0,
					"patching_rect" : [ 652.799927, 1298.000244, 298.0, 123.0 ],
					"presentation" : 1,
					"presentation_rect" : [ 13.46664, 408.999939, 194.0, 117.666664 ],
					"setfilter" : [ 0, 1, 1, 0, 0, 2282.0, 0.9, 4.0, 0.0, 0.0, 0.0, 0.0, 0.0, 0.0 ],
					"style" : ""
				}

			}
, 			{
				"box" : 				{
					"fontname" : "Arial",
					"fontsize" : 13.0,
					"id" : "obj-123",
					"maxclass" : "message",
					"numinlets" : 2,
					"numoutlets" : 1,
					"outlettype" : [ "" ],
					"patching_rect" : [ 915.550049, 1235.833496, 48.0, 23.0 ],
					"style" : "",
					"text" : "set $1"
				}

			}
, 			{
				"box" : 				{
					"fontname" : "Arial",
					"fontsize" : 13.0,
					"id" : "obj-124",
					"maxclass" : "message",
					"numinlets" : 2,
					"numoutlets" : 1,
					"outlettype" : [ "" ],
					"patching_rect" : [ 853.550049, 1235.833496, 48.0, 23.0 ],
					"style" : "",
					"text" : "set $1"
				}

			}
, 			{
				"box" : 				{
					"fontname" : "Arial",
					"fontsize" : 13.0,
					"id" : "obj-125",
					"maxclass" : "message",
					"numinlets" : 2,
					"numoutlets" : 1,
					"outlettype" : [ "" ],
					"patching_rect" : [ 783.550049, 1235.833496, 48.0, 23.0 ],
					"style" : "",
					"text" : "set $1"
				}

			}
, 			{
				"box" : 				{
					"fontname" : "Arial",
					"fontsize" : 13.0,
					"format" : 6,
					"id" : "obj-126",
					"maxclass" : "flonum",
					"numinlets" : 1,
					"numoutlets" : 2,
					"outlettype" : [ "", "bang" ],
					"parameter_enable" : 0,
					"patching_rect" : [ 911.549927, 1264.000244, 55.0, 23.0 ],
					"presentation" : 1,
					"presentation_rect" : [ 152.466644, 374.999939, 55.0, 23.0 ],
					"style" : ""
				}

			}
, 			{
				"box" : 				{
					"fontname" : "Arial",
					"fontsize" : 13.0,
					"format" : 6,
					"id" : "obj-127",
					"maxclass" : "flonum",
					"numinlets" : 1,
					"numoutlets" : 2,
					"outlettype" : [ "", "bang" ],
					"parameter_enable" : 0,
					"patching_rect" : [ 849.549927, 1264.000244, 55.0, 23.0 ],
					"presentation" : 1,
					"presentation_rect" : [ 82.966637, 374.999939, 55.0, 23.0 ],
					"style" : ""
				}

			}
, 			{
				"box" : 				{
					"fontname" : "Arial",
					"fontsize" : 13.0,
					"format" : 6,
					"id" : "obj-128",
					"maxclass" : "flonum",
					"numinlets" : 1,
					"numoutlets" : 2,
					"outlettype" : [ "", "bang" ],
					"parameter_enable" : 0,
					"patching_rect" : [ 779.549927, 1264.000244, 57.0, 23.0 ],
					"presentation" : 1,
					"presentation_rect" : [ 13.46664, 374.999939, 57.0, 23.0 ],
					"style" : ""
				}

			}
, 			{
				"box" : 				{
					"id" : "obj-129",
					"maxclass" : "newobj",
					"numinlets" : 2,
					"numoutlets" : 1,
					"outlettype" : [ "int" ],
					"patching_rect" : [ 898.633301, 1193.333496, 29.5, 22.0 ],
					"style" : "",
					"text" : "+ 1"
				}

			}
, 			{
				"box" : 				{
					"id" : "obj-130",
					"maxclass" : "newobj",
					"numinlets" : 2,
					"numoutlets" : 1,
					"outlettype" : [ "int" ],
					"patching_rect" : [ 898.633301, 1165.333496, 61.0, 22.0 ],
					"style" : "",
					"text" : "random 5"
				}

			}
, 			{
				"box" : 				{
					"id" : "obj-131",
					"maxclass" : "newobj",
					"numinlets" : 2,
					"numoutlets" : 1,
					"outlettype" : [ "int" ],
					"patching_rect" : [ 782.800049, 1193.333496, 34.0, 22.0 ],
					"style" : "",
					"text" : "+ 20"
				}

			}
, 			{
				"box" : 				{
					"id" : "obj-132",
					"maxclass" : "newobj",
					"numinlets" : 2,
					"numoutlets" : 1,
					"outlettype" : [ "int" ],
					"patching_rect" : [ 782.800049, 1165.333496, 81.0, 22.0 ],
					"style" : "",
					"text" : "random 4000"
				}

			}
, 			{
				"box" : 				{
					"id" : "obj-133",
					"maxclass" : "toggle",
					"numinlets" : 1,
					"numoutlets" : 1,
					"outlettype" : [ "int" ],
					"parameter_enable" : 0,
					"patching_rect" : [ 782.800049, 1090.333496, 24.0, 24.0 ],
					"style" : ""
				}

			}
, 			{
				"box" : 				{
					"id" : "obj-134",
					"maxclass" : "newobj",
					"numinlets" : 2,
					"numoutlets" : 1,
					"outlettype" : [ "" ],
					"patching_rect" : [ 782.800049, 1128.333496, 34.0, 22.0 ],
					"style" : "",
					"text" : "gate"
				}

			}
, 			{
				"box" : 				{
					"id" : "obj-135",
					"maxclass" : "newobj",
					"numinlets" : 6,
					"numoutlets" : 1,
					"outlettype" : [ "signal" ],
					"patching_rect" : [ 631.300049, 1128.333496, 71.5, 22.0 ],
					"style" : "",
					"text" : "biquad~"
				}

			}
, 			{
				"box" : 				{
					"id" : "obj-117",
					"maxclass" : "button",
					"numinlets" : 1,
					"numoutlets" : 1,
					"outlettype" : [ "bang" ],
					"patching_rect" : [ 1541.5, 1104.666504, 24.0, 24.0 ],
					"style" : ""
				}

			}
, 			{
				"box" : 				{
					"bubble" : 1,
					"id" : "obj-114",
					"linecount" : 4,
					"maxclass" : "comment",
					"numinlets" : 1,
					"numoutlets" : 0,
					"patching_rect" : [ 1772.166748, 1259.166504, 87.333328, 64.0 ],
					"style" : "",
					"text" : "(In order)\nCuttoff Gain Resonence",
					"textcolor" : [ 0.0, 0.0, 0.0, 1.0 ]
				}

			}
, 			{
				"box" : 				{
					"bubble" : 1,
					"id" : "obj-115",
					"linecount" : 2,
					"maxclass" : "comment",
					"numinlets" : 1,
					"numoutlets" : 0,
					"patching_rect" : [ 1605.25, 1098.166504, 150.0, 37.0 ],
					"style" : "",
					"text" : "On/off for randomizing the filter",
					"textcolor" : [ 0.0, 0.0, 0.0, 1.0 ]
				}

			}
, 			{
				"box" : 				{
					"fontface" : 0,
					"id" : "obj-190",
					"linmarkers" : [ 0.0, 11025.0, 16537.5 ],
					"logmarkers" : [ 0.0, 100.0, 1000.0, 10000.0 ],
					"maxclass" : "filtergraph~",
					"nfilters" : 1,
					"numinlets" : 8,
					"numoutlets" : 7,
					"outlettype" : [ "list", "float", "float", "float", "float", "list", "int" ],
					"parameter_enable" : 0,
					"patching_rect" : [ 1444.500244, 1312.333252, 298.0, 123.0 ],
					"presentation" : 1,
					"presentation_rect" : [ 217.999847, 408.999939, 194.0, 117.666664 ],
					"setfilter" : [ 0, 1, 1, 0, 0, 4012.0, 1.0, 5.0, 0.0, 0.0, 0.0, 0.0, 0.0, 0.0 ],
					"style" : ""
				}

			}
, 			{
				"box" : 				{
					"fontname" : "Arial",
					"fontsize" : 13.0,
					"id" : "obj-191",
					"maxclass" : "message",
					"numinlets" : 2,
					"numoutlets" : 1,
					"outlettype" : [ "" ],
					"patching_rect" : [ 1707.25, 1250.166504, 48.0, 23.0 ],
					"style" : "",
					"text" : "set $1"
				}

			}
, 			{
				"box" : 				{
					"fontname" : "Arial",
					"fontsize" : 13.0,
					"id" : "obj-192",
					"maxclass" : "message",
					"numinlets" : 2,
					"numoutlets" : 1,
					"outlettype" : [ "" ],
					"patching_rect" : [ 1645.25, 1250.166504, 48.0, 23.0 ],
					"style" : "",
					"text" : "set $1"
				}

			}
, 			{
				"box" : 				{
					"fontname" : "Arial",
					"fontsize" : 13.0,
					"id" : "obj-193",
					"maxclass" : "message",
					"numinlets" : 2,
					"numoutlets" : 1,
					"outlettype" : [ "" ],
					"patching_rect" : [ 1575.25, 1250.166504, 48.0, 23.0 ],
					"style" : "",
					"text" : "set $1"
				}

			}
, 			{
				"box" : 				{
					"fontname" : "Arial",
					"fontsize" : 13.0,
					"format" : 6,
					"id" : "obj-194",
					"maxclass" : "flonum",
					"numinlets" : 1,
					"numoutlets" : 2,
					"outlettype" : [ "", "bang" ],
					"parameter_enable" : 0,
					"patching_rect" : [ 1703.250244, 1278.333252, 55.0, 23.0 ],
					"presentation" : 1,
					"presentation_rect" : [ 356.999847, 374.999939, 55.0, 23.0 ],
					"style" : ""
				}

			}
, 			{
				"box" : 				{
					"fontname" : "Arial",
					"fontsize" : 13.0,
					"format" : 6,
					"id" : "obj-195",
					"maxclass" : "flonum",
					"numinlets" : 1,
					"numoutlets" : 2,
					"outlettype" : [ "", "bang" ],
					"parameter_enable" : 0,
					"patching_rect" : [ 1641.250244, 1278.333252, 55.0, 23.0 ],
					"presentation" : 1,
					"presentation_rect" : [ 287.499847, 374.999939, 55.0, 23.0 ],
					"style" : ""
				}

			}
, 			{
				"box" : 				{
					"fontname" : "Arial",
					"fontsize" : 13.0,
					"format" : 6,
					"id" : "obj-196",
					"maxclass" : "flonum",
					"numinlets" : 1,
					"numoutlets" : 2,
					"outlettype" : [ "", "bang" ],
					"parameter_enable" : 0,
					"patching_rect" : [ 1571.250244, 1278.333252, 57.0, 23.0 ],
					"presentation" : 1,
					"presentation_rect" : [ 217.999847, 374.999939, 57.0, 23.0 ],
					"style" : ""
				}

			}
, 			{
				"box" : 				{
					"id" : "obj-199",
					"maxclass" : "newobj",
					"numinlets" : 2,
					"numoutlets" : 1,
					"outlettype" : [ "int" ],
					"patching_rect" : [ 1690.333252, 1207.666504, 29.5, 22.0 ],
					"style" : "",
					"text" : "+ 1"
				}

			}
, 			{
				"box" : 				{
					"id" : "obj-200",
					"maxclass" : "newobj",
					"numinlets" : 2,
					"numoutlets" : 1,
					"outlettype" : [ "int" ],
					"patching_rect" : [ 1690.333252, 1179.666504, 61.0, 22.0 ],
					"style" : "",
					"text" : "random 5"
				}

			}
, 			{
				"box" : 				{
					"id" : "obj-201",
					"maxclass" : "newobj",
					"numinlets" : 2,
					"numoutlets" : 1,
					"outlettype" : [ "int" ],
					"patching_rect" : [ 1574.5, 1207.666504, 34.0, 22.0 ],
					"style" : "",
					"text" : "+ 20"
				}

			}
, 			{
				"box" : 				{
					"id" : "obj-202",
					"maxclass" : "newobj",
					"numinlets" : 2,
					"numoutlets" : 1,
					"outlettype" : [ "int" ],
					"patching_rect" : [ 1574.5, 1179.666504, 81.0, 22.0 ],
					"style" : "",
					"text" : "random 4000"
				}

			}
, 			{
				"box" : 				{
					"id" : "obj-203",
					"maxclass" : "toggle",
					"numinlets" : 1,
					"numoutlets" : 1,
					"outlettype" : [ "int" ],
					"parameter_enable" : 0,
					"patching_rect" : [ 1574.5, 1104.666504, 24.0, 24.0 ],
					"style" : ""
				}

			}
, 			{
				"box" : 				{
					"id" : "obj-204",
					"maxclass" : "newobj",
					"numinlets" : 2,
					"numoutlets" : 1,
					"outlettype" : [ "" ],
					"patching_rect" : [ 1574.5, 1142.666504, 34.0, 22.0 ],
					"style" : "",
					"text" : "gate"
				}

			}
, 			{
				"box" : 				{
					"id" : "obj-205",
					"maxclass" : "newobj",
					"numinlets" : 6,
					"numoutlets" : 1,
					"outlettype" : [ "signal" ],
					"patching_rect" : [ 1411.5, 1142.666504, 71.5, 22.0 ],
					"style" : "",
					"text" : "biquad~"
				}

			}
, 			{
				"box" : 				{
					"fontname" : "Arial",
					"fontsize" : 12.0,
					"hidden" : 1,
					"id" : "obj-109",
					"maxclass" : "newobj",
					"numinlets" : 1,
					"numoutlets" : 1,
					"outlettype" : [ "" ],
					"patching_rect" : [ 882.800049, 561.0, 72.0, 22.0 ],
					"style" : "",
					"text" : "loadmess 1"
				}

			}
, 			{
				"box" : 				{
					"fontname" : "Arial",
					"fontsize" : 18.0,
					"format" : 6,
					"id" : "obj-110",
					"maxclass" : "flonum",
					"numinlets" : 1,
					"numoutlets" : 2,
					"outlettype" : [ "", "bang" ],
					"parameter_enable" : 0,
					"patching_rect" : [ 882.800049, 607.666626, 64.0, 29.0 ],
					"presentation" : 1,
					"presentation_rect" : [ 27.066492, 593.999939, 64.0, 29.0 ],
					"style" : ""
				}

			}
, 			{
				"box" : 				{
					"fontname" : "Arial",
					"fontsize" : 12.0,
					"id" : "obj-111",
					"maxclass" : "newobj",
					"numinlets" : 1,
					"numoutlets" : 1,
					"outlettype" : [ "signal" ],
					"patching_rect" : [ 882.800049, 643.0, 46.0, 22.0 ],
					"style" : "",
					"text" : "sig~ 1."
				}

			}
, 			{
				"box" : 				{
					"id" : "obj-108",
					"maxclass" : "newobj",
					"numinlets" : 2,
					"numoutlets" : 1,
					"outlettype" : [ "signal" ],
					"patching_rect" : [ 870.800049, 870.333374, 36.0, 22.0 ],
					"style" : "",
					"text" : "*~ 1."
				}

			}
, 			{
				"box" : 				{
					"id" : "obj-91",
					"maxclass" : "newobj",
					"numinlets" : 1,
					"numoutlets" : 1,
					"outlettype" : [ "" ],
					"patching_rect" : [ 665.416626, 740.333496, 82.0, 22.0 ],
					"style" : "",
					"text" : "loadmess 0.2"
				}

			}
, 			{
				"box" : 				{
					"id" : "obj-92",
					"maxclass" : "newobj",
					"numinlets" : 1,
					"numoutlets" : 1,
					"outlettype" : [ "int" ],
					"patching_rect" : [ 770.199951, 643.0, 30.0, 22.0 ],
					"style" : "",
					"text" : "abs"
				}

			}
, 			{
				"box" : 				{
					"id" : "obj-93",
					"maxclass" : "newobj",
					"numinlets" : 2,
					"numoutlets" : 1,
					"outlettype" : [ "int" ],
					"patching_rect" : [ 770.199951, 604.333374, 29.5, 22.0 ],
					"style" : "",
					"text" : "-"
				}

			}
, 			{
				"box" : 				{
					"format" : 6,
					"id" : "obj-94",
					"maxclass" : "flonum",
					"maximum" : 1.0,
					"minimum" : 0.0,
					"numinlets" : 1,
					"numoutlets" : 2,
					"outlettype" : [ "", "bang" ],
					"parameter_enable" : 0,
					"patching_rect" : [ 665.416626, 769.333496, 50.0, 22.0 ],
					"style" : ""
				}

			}
, 			{
				"box" : 				{
					"id" : "obj-95",
					"maxclass" : "newobj",
					"numinlets" : 1,
					"numoutlets" : 2,
					"outlettype" : [ "float", "float" ],
					"patching_rect" : [ 665.416626, 805.0, 29.5, 22.0 ],
					"style" : "",
					"text" : "t f f"
				}

			}
, 			{
				"box" : 				{
					"id" : "obj-96",
					"maxclass" : "newobj",
					"numinlets" : 2,
					"numoutlets" : 1,
					"outlettype" : [ "float" ],
					"patching_rect" : [ 743.166626, 793.333252, 31.0, 22.0 ],
					"style" : "",
					"text" : "!- 1."
				}

			}
, 			{
				"box" : 				{
					"id" : "obj-100",
					"maxclass" : "newobj",
					"numinlets" : 2,
					"numoutlets" : 1,
					"outlettype" : [ "float" ],
					"patching_rect" : [ 770.199951, 709.0, 31.0, 22.0 ],
					"style" : "",
					"text" : "!/ 1."
				}

			}
, 			{
				"box" : 				{
					"id" : "obj-101",
					"maxclass" : "newobj",
					"numinlets" : 2,
					"numoutlets" : 1,
					"outlettype" : [ "float" ],
					"patching_rect" : [ 770.199951, 674.333374, 47.0, 22.0 ],
					"style" : "",
					"text" : "/ 1000."
				}

			}
, 			{
				"box" : 				{
					"fontface" : 0,
					"fontname" : "Arial",
					"fontsize" : 13.0,
					"id" : "obj-102",
					"maxclass" : "newobj",
					"numinlets" : 2,
					"numoutlets" : 1,
					"outlettype" : [ "signal" ],
					"patching_rect" : [ 770.199951, 747.0, 80.0, 23.0 ],
					"style" : "",
					"text" : "phasor~ 0.5"
				}

			}
, 			{
				"box" : 				{
					"fontname" : "Arial",
					"fontsize" : 13.0,
					"id" : "obj-103",
					"maxclass" : "newobj",
					"numinlets" : 3,
					"numoutlets" : 1,
					"outlettype" : [ "signal" ],
					"patching_rect" : [ 598.166626, 829.0, 164.0, 23.0 ],
					"style" : "",
					"text" : "trapezoid~ 0.1 0.9"
				}

			}
, 			{
				"box" : 				{
					"id" : "obj-90",
					"maxclass" : "newobj",
					"numinlets" : 1,
					"numoutlets" : 1,
					"outlettype" : [ "" ],
					"patching_rect" : [ 1306.75, 747.0, 82.0, 22.0 ],
					"style" : "",
					"text" : "loadmess 0.2"
				}

			}
, 			{
				"box" : 				{
					"id" : "obj-89",
					"maxclass" : "newobj",
					"numinlets" : 1,
					"numoutlets" : 1,
					"outlettype" : [ "int" ],
					"patching_rect" : [ 1170.25, 643.0, 30.0, 22.0 ],
					"style" : "",
					"text" : "abs"
				}

			}
, 			{
				"box" : 				{
					"id" : "obj-88",
					"maxclass" : "newobj",
					"numinlets" : 2,
					"numoutlets" : 1,
					"outlettype" : [ "int" ],
					"patching_rect" : [ 1170.25, 607.666626, 29.5, 22.0 ],
					"style" : "",
					"text" : "-"
				}

			}
, 			{
				"box" : 				{
					"format" : 6,
					"id" : "obj-29",
					"maxclass" : "flonum",
					"maximum" : 1.0,
					"minimum" : 0.0,
					"numinlets" : 1,
					"numoutlets" : 2,
					"outlettype" : [ "", "bang" ],
					"parameter_enable" : 0,
					"patching_rect" : [ 1252.25, 747.0, 50.0, 22.0 ],
					"style" : ""
				}

			}
, 			{
				"box" : 				{
					"id" : "obj-79",
					"maxclass" : "newobj",
					"numinlets" : 1,
					"numoutlets" : 2,
					"outlettype" : [ "float", "float" ],
					"patching_rect" : [ 1242.75, 771.0, 29.5, 22.0 ],
					"style" : "",
					"text" : "t f f"
				}

			}
, 			{
				"box" : 				{
					"id" : "obj-80",
					"maxclass" : "newobj",
					"numinlets" : 2,
					"numoutlets" : 1,
					"outlettype" : [ "float" ],
					"patching_rect" : [ 1315.25, 796.0, 31.0, 22.0 ],
					"style" : "",
					"text" : "!- 1."
				}

			}
, 			{
				"box" : 				{
					"bubble" : 1,
					"id" : "obj-81",
					"linecount" : 3,
					"maxclass" : "comment",
					"numinlets" : 1,
					"numoutlets" : 0,
					"patching_rect" : [ 1225.666748, 694.5, 169.0, 51.0 ],
					"style" : "",
					"text" : "seconds to take per envelope i.e envelope in Hz",
					"textcolor" : [ 0.0, 0.0, 0.0, 1.0 ]
				}

			}
, 			{
				"box" : 				{
					"bubble" : 1,
					"id" : "obj-20",
					"maxclass" : "comment",
					"numinlets" : 1,
					"numoutlets" : 0,
					"patching_rect" : [ 1218.583374, 669.0, 150.0, 24.0 ],
					"style" : "",
					"text" : "envelope in secs",
					"textcolor" : [ 0.0, 0.0, 0.0, 1.0 ]
				}

			}
, 			{
				"box" : 				{
					"id" : "obj-82",
					"maxclass" : "newobj",
					"numinlets" : 2,
					"numoutlets" : 1,
					"outlettype" : [ "float" ],
					"patching_rect" : [ 1170.25, 709.0, 31.0, 22.0 ],
					"style" : "",
					"text" : "!/ 1."
				}

			}
, 			{
				"box" : 				{
					"id" : "obj-15",
					"maxclass" : "newobj",
					"numinlets" : 2,
					"numoutlets" : 1,
					"outlettype" : [ "float" ],
					"patching_rect" : [ 1170.25, 674.333374, 47.0, 22.0 ],
					"style" : "",
					"text" : "/ 1000."
				}

			}
, 			{
				"box" : 				{
					"fontface" : 0,
					"fontname" : "Arial",
					"fontsize" : 13.0,
					"id" : "obj-24",
					"maxclass" : "newobj",
					"numinlets" : 2,
					"numoutlets" : 1,
					"outlettype" : [ "signal" ],
					"patching_rect" : [ 1170.25, 747.0, 80.0, 23.0 ],
					"style" : "",
					"text" : "phasor~ 0.5"
				}

			}
, 			{
				"box" : 				{
					"fontname" : "Arial",
					"fontsize" : 13.0,
					"id" : "obj-26",
					"maxclass" : "newobj",
					"numinlets" : 3,
					"numoutlets" : 1,
					"outlettype" : [ "signal" ],
					"patching_rect" : [ 1170.25, 829.0, 164.0, 23.0 ],
					"style" : "",
					"text" : "trapezoid~ 0.1 0.9"
				}

			}
, 			{
				"box" : 				{
					"id" : "obj-84",
					"maxclass" : "newobj",
					"numinlets" : 2,
					"numoutlets" : 1,
					"outlettype" : [ "signal" ],
					"patching_rect" : [ 1152.833374, 870.333374, 36.0, 22.0 ],
					"style" : "",
					"text" : "*~ 1."
				}

			}
, 			{
				"box" : 				{
					"bubble" : 1,
					"id" : "obj-86",
					"linecount" : 3,
					"maxclass" : "comment",
					"numinlets" : 1,
					"numoutlets" : 0,
					"patching_rect" : [ 1401.666748, 737.666626, 152.0, 51.0 ],
					"style" : "",
					"text" : "ramp percentage\nspecify between 0. and 1.",
					"textcolor" : [ 0.0, 0.0, 0.0, 1.0 ]
				}

			}
, 			{
				"box" : 				{
					"bubble" : 1,
					"id" : "obj-87",
					"linecount" : 2,
					"maxclass" : "comment",
					"numinlets" : 1,
					"numoutlets" : 0,
					"patching_rect" : [ 1218.583374, 611.0, 91.0, 37.0 ],
					"style" : "",
					"text" : "envelope in ms",
					"textcolor" : [ 0.0, 0.0, 0.0, 1.0 ]
				}

			}
, 			{
				"box" : 				{
					"fontname" : "Arial",
					"fontsize" : 12.0,
					"hidden" : 1,
					"id" : "obj-74",
					"maxclass" : "newobj",
					"numinlets" : 1,
					"numoutlets" : 1,
					"outlettype" : [ "bang" ],
					"patching_rect" : [ 967.0, 607.666626, 60.0, 22.0 ],
					"style" : "",
					"text" : "loadbang"
				}

			}
, 			{
				"box" : 				{
					"fontname" : "Arial",
					"fontsize" : 12.0,
					"id" : "obj-32",
					"maxclass" : "message",
					"numinlets" : 2,
					"numoutlets" : 1,
					"outlettype" : [ "" ],
					"patching_rect" : [ 984.0, 643.0, 73.0, 22.0 ],
					"style" : "",
					"text" : "loopinterp 1"
				}

			}
, 			{
				"box" : 				{
					"fontname" : "Arial",
					"fontsize" : 12.0,
					"id" : "obj-31",
					"maxclass" : "message",
					"numinlets" : 2,
					"numoutlets" : 1,
					"outlettype" : [ "" ],
					"patching_rect" : [ 936.333374, 643.0, 43.0, 22.0 ],
					"style" : "",
					"text" : "loop 1"
				}

			}
, 			{
				"box" : 				{
					"id" : "obj-71",
					"maxclass" : "newobj",
					"numinlets" : 3,
					"numoutlets" : 2,
					"outlettype" : [ "signal", "signal" ],
					"patching_rect" : [ 1066.5, 829.0, 84.0, 22.0 ],
					"saved_object_attributes" : 					{
						"basictuning" : 440,
						"followglobaltempo" : 0,
						"formantcorrection" : 0,
						"loopend" : [ 13841.996094, "ms" ],
						"loopstart" : [ 13502.994141, "ms" ],
						"mode" : "basic",
						"originallength" : [ 3751.320801, "ticks" ],
						"originaltempo" : 156.305038,
						"phase" : [ 0.0, "ticks" ],
						"pitchcorrection" : 0,
						"quality" : "basic",
						"timestretch" : [ 0 ]
					}
,
					"style" : "",
					"text" : "groove~ ahhh"
				}

			}
, 			{
				"box" : 				{
					"id" : "obj-70",
					"maxclass" : "newobj",
					"numinlets" : 3,
					"numoutlets" : 2,
					"outlettype" : [ "signal", "signal" ],
					"patching_rect" : [ 870.800049, 829.0, 84.0, 22.0 ],
					"saved_object_attributes" : 					{
						"basictuning" : 440,
						"followglobaltempo" : 0,
						"formantcorrection" : 0,
						"loopend" : [ 55451.996094, "ms" ],
						"loopstart" : [ 54345.988281, "ms" ],
						"mode" : "basic",
						"originallength" : [ 289858.0625, "ticks" ],
						"originaltempo" : 12077.418945,
						"phase" : [ 0.0, "ticks" ],
						"pitchcorrection" : 0,
						"quality" : "basic",
						"timestretch" : [ 0 ]
					}
,
					"style" : "",
					"text" : "groove~ ahhh"
				}

			}
, 			{
				"box" : 				{
					"id" : "obj-65",
					"maxclass" : "newobj",
					"numinlets" : 2,
					"numoutlets" : 1,
					"outlettype" : [ "int" ],
					"patching_rect" : [ 1139.0, 425.199951, 41.0, 22.0 ],
					"style" : "",
					"text" : "+ 500"
				}

			}
, 			{
				"box" : 				{
					"fontname" : "Arial",
					"fontsize" : 12.0,
					"id" : "obj-66",
					"maxclass" : "newobj",
					"numinlets" : 2,
					"numoutlets" : 1,
					"outlettype" : [ "int" ],
					"patching_rect" : [ 1201.000122, 341.200073, 32.5, 22.0 ],
					"style" : "",
					"text" : "- 0"
				}

			}
, 			{
				"box" : 				{
					"fontname" : "Arial",
					"fontsize" : 12.0,
					"id" : "obj-67",
					"maxclass" : "newobj",
					"numinlets" : 1,
					"numoutlets" : 2,
					"outlettype" : [ "int", "int" ],
					"patching_rect" : [ 1139.0, 397.0, 32.5, 22.0 ],
					"style" : "",
					"text" : "t i i"
				}

			}
, 			{
				"box" : 				{
					"fontname" : "Arial",
					"fontsize" : 12.0,
					"id" : "obj-68",
					"maxclass" : "newobj",
					"numinlets" : 2,
					"numoutlets" : 1,
					"outlettype" : [ "int" ],
					"patching_rect" : [ 1139.000122, 368.0, 81.0, 22.0 ],
					"style" : "",
					"text" : "random 2000"
				}

			}
, 			{
				"box" : 				{
					"id" : "obj-62",
					"maxclass" : "message",
					"numinlets" : 2,
					"numoutlets" : 1,
					"outlettype" : [ "" ],
					"patching_rect" : [ 1002.902588, 341.200073, 67.0, 22.0 ],
					"style" : "",
					"text" : "set ahhh 2"
				}

			}
, 			{
				"box" : 				{
					"fontname" : "Arial",
					"fontsize" : 12.0,
					"id" : "obj-63",
					"maxclass" : "newobj",
					"numinlets" : 1,
					"numoutlets" : 1,
					"outlettype" : [ "bang" ],
					"patching_rect" : [ 928.800049, 310.200073, 60.0, 22.0 ],
					"style" : "",
					"text" : "loadbang"
				}

			}
, 			{
				"box" : 				{
					"fontname" : "Arial",
					"fontsize" : 12.0,
					"id" : "obj-64",
					"maxclass" : "message",
					"numinlets" : 2,
					"numoutlets" : 1,
					"outlettype" : [ "" ],
					"patching_rect" : [ 928.800049, 341.200073, 67.0, 22.0 ],
					"style" : "",
					"text" : "mode loop"
				}

			}
, 			{
				"box" : 				{
					"id" : "obj-61",
					"maxclass" : "message",
					"numinlets" : 2,
					"numoutlets" : 1,
					"outlettype" : [ "" ],
					"patching_rect" : [ 496.433228, 371.599976, 67.0, 22.0 ],
					"style" : "",
					"text" : "set ahhh 1"
				}

			}
, 			{
				"box" : 				{
					"fontname" : "Arial",
					"fontsize" : 12.0,
					"id" : "obj-56",
					"maxclass" : "newobj",
					"numinlets" : 1,
					"numoutlets" : 1,
					"outlettype" : [ "bang" ],
					"patching_rect" : [ 425.099976, 335.600098, 60.0, 22.0 ],
					"style" : "",
					"text" : "loadbang"
				}

			}
, 			{
				"box" : 				{
					"fontname" : "Arial",
					"fontsize" : 12.0,
					"id" : "obj-33",
					"maxclass" : "message",
					"numinlets" : 2,
					"numoutlets" : 1,
					"outlettype" : [ "" ],
					"patching_rect" : [ 425.099976, 371.599976, 67.0, 22.0 ],
					"style" : "",
					"text" : "mode loop"
				}

			}
, 			{
				"box" : 				{
					"id" : "obj-52",
					"maxclass" : "newobj",
					"numinlets" : 2,
					"numoutlets" : 1,
					"outlettype" : [ "int" ],
					"patching_rect" : [ 708.199951, 429.0, 41.0, 22.0 ],
					"style" : "",
					"text" : "+ 500"
				}

			}
, 			{
				"box" : 				{
					"buffername" : "ahhh",
					"chanoffset" : 2,
					"id" : "obj-39",
					"maxclass" : "waveform~",
					"numinlets" : 5,
					"numoutlets" : 6,
					"outlettype" : [ "float", "float", "float", "float", "list", "" ],
					"patching_rect" : [ 1031.999878, 467.866577, 256.0, 64.0 ],
					"presentation" : 1,
					"presentation_rect" : [ 19.333338, 259.866425, 391.199768, 64.0 ],
					"setmode" : 2,
					"style" : ""
				}

			}
, 			{
				"box" : 				{
					"buffername" : "ahhh",
					"id" : "obj-38",
					"maxclass" : "waveform~",
					"numinlets" : 5,
					"numoutlets" : 6,
					"outlettype" : [ "float", "float", "float", "float", "list", "" ],
					"patching_rect" : [ 609.999878, 471.666626, 256.0, 64.0 ],
					"presentation" : 1,
					"presentation_rect" : [ 20.666708, 101.66658, 385.333069, 64.0 ],
					"setmode" : 2,
					"style" : ""
				}

			}
, 			{
				"box" : 				{
					"fontname" : "Arial",
					"fontsize" : 12.0,
					"id" : "obj-36",
					"maxclass" : "newobj",
					"numinlets" : 2,
					"numoutlets" : 1,
					"outlettype" : [ "int" ],
					"patching_rect" : [ 770.199951, 341.200073, 32.5, 22.0 ],
					"style" : "",
					"text" : "- 0"
				}

			}
, 			{
				"box" : 				{
					"fontname" : "Arial",
					"fontsize" : 12.0,
					"id" : "obj-37",
					"maxclass" : "newobj",
					"numinlets" : 1,
					"numoutlets" : 2,
					"outlettype" : [ "int", "int" ],
					"patching_rect" : [ 708.199951, 397.0, 32.5, 22.0 ],
					"style" : "",
					"text" : "t i i"
				}

			}
, 			{
				"box" : 				{
					"fontname" : "Arial",
					"fontsize" : 12.0,
					"id" : "obj-34",
					"maxclass" : "newobj",
					"numinlets" : 2,
					"numoutlets" : 1,
					"outlettype" : [ "int" ],
					"patching_rect" : [ 708.199951, 368.0, 81.0, 22.0 ],
					"style" : "",
					"text" : "random 2000"
				}

			}
, 			{
				"box" : 				{
					"id" : "obj-35",
					"maxclass" : "newobj",
					"numinlets" : 1,
					"numoutlets" : 9,
					"outlettype" : [ "float", "list", "float", "float", "float", "float", "float", "", "int" ],
					"patching_rect" : [ 623.0, 203.200073, 103.0, 22.0 ],
					"style" : "",
					"text" : "info~ ahhh"
				}

			}
, 			{
				"box" : 				{
					"id" : "obj-30",
					"maxclass" : "newobj",
					"numinlets" : 1,
					"numoutlets" : 2,
					"outlettype" : [ "float", "bang" ],
					"patching_rect" : [ 524.0, 168.0, 118.0, 22.0 ],
					"style" : "",
					"text" : "buffer~ ahhh 3000 2"
				}

			}
, 			{
				"box" : 				{
					"bgcolor" : [ 0.239216, 0.254902, 0.278431, 1.0 ],
					"bgcolor2" : [ 0.239216, 0.254902, 0.278431, 1.0 ],
					"bgfillcolor_angle" : 270.0,
					"bgfillcolor_autogradient" : 0.0,
					"bgfillcolor_color" : [ 0.290196, 0.309804, 0.301961, 1.0 ],
					"bgfillcolor_color1" : [ 0.239216, 0.254902, 0.278431, 1.0 ],
					"bgfillcolor_color2" : [ 0.239216, 0.254902, 0.278431, 1.0 ],
					"bgfillcolor_proportion" : 0.39,
					"bgfillcolor_type" : "gradient",
					"fontsize" : 24.0,
					"gradient" : 1,
					"id" : "obj-27",
					"maxclass" : "message",
					"numinlets" : 2,
					"numoutlets" : 1,
					"outlettype" : [ "" ],
					"patching_rect" : [ 619.333252, 114.666626, 61.0, 35.0 ],
					"presentation" : 1,
					"presentation_rect" : [ 219.133148, 587.999939, 61.0, 35.0 ],
					"style" : "",
					"text" : "read"
				}

			}
, 			{
				"box" : 				{
					"bgcolor" : [ 0.239216, 0.254902, 0.278431, 1.0 ],
					"bgcolor2" : [ 0.239216, 0.254902, 0.278431, 1.0 ],
					"bgfillcolor_angle" : 270.0,
					"bgfillcolor_autogradient" : 0.0,
					"bgfillcolor_color" : [ 0.290196, 0.309804, 0.301961, 1.0 ],
					"bgfillcolor_color1" : [ 0.239216, 0.254902, 0.278431, 1.0 ],
					"bgfillcolor_color2" : [ 0.239216, 0.254902, 0.278431, 1.0 ],
					"bgfillcolor_proportion" : 0.39,
					"bgfillcolor_type" : "gradient",
					"fontsize" : 24.0,
					"gradient" : 1,
					"id" : "obj-25",
					"maxclass" : "message",
					"numinlets" : 2,
					"numoutlets" : 1,
					"outlettype" : [ "" ],
					"patching_rect" : [ 524.0, 114.666626, 91.0, 35.0 ],
					"presentation" : 1,
					"presentation_rect" : [ 116.466637, 587.999939, 91.0, 35.0 ],
					"style" : "",
					"text" : "replace"
				}

			}
, 			{
				"box" : 				{
					"id" : "obj-11",
					"maxclass" : "toggle",
					"numinlets" : 1,
					"numoutlets" : 1,
					"outlettype" : [ "int" ],
					"parameter_enable" : 0,
					"patching_rect" : [ 4050.0, 2704.0, 24.0, 24.0 ],
					"style" : ""
				}

			}
, 			{
				"box" : 				{
					"id" : "obj-240",
					"maxclass" : "toggle",
					"numinlets" : 1,
					"numoutlets" : 1,
					"outlettype" : [ "int" ],
					"parameter_enable" : 0,
					"patching_rect" : [ 361.666626, 395.0, 24.0, 24.0 ],
					"presentation" : 1,
					"presentation_rect" : [ 304.333221, 75.66658, 24.0, 24.0 ],
					"style" : ""
				}

			}
, 			{
				"box" : 				{
					"background" : 1,
					"id" : "obj-243",
					"maxclass" : "panel",
					"numinlets" : 1,
					"numoutlets" : 0,
					"patching_rect" : [ 330.666687, 537.0, 128.0, 128.0 ],
					"presentation" : 1,
					"presentation_rect" : [ 3.59994, 3.999965, 422.666656, 653.666748 ],
					"style" : ""
				}

			}
 ],
		"lines" : [ 			{
				"patchline" : 				{
					"destination" : [ "obj-102", 0 ],
					"disabled" : 0,
					"hidden" : 0,
					"midpoints" : [ 779.699951, 733.0, 779.699951, 733.0 ],
					"source" : [ "obj-100", 0 ]
				}

			}
, 			{
				"patchline" : 				{
					"destination" : [ "obj-100", 0 ],
					"disabled" : 0,
					"hidden" : 0,
					"midpoints" : [ 779.699951, 697.0, 779.699951, 697.0 ],
					"source" : [ "obj-101", 0 ]
				}

			}
, 			{
				"patchline" : 				{
					"destination" : [ "obj-103", 0 ],
					"disabled" : 0,
					"hidden" : 0,
					"midpoints" : [ 779.699951, 772.0, 731.0, 772.0, 731.0, 832.0, 607.666626, 832.0 ],
					"source" : [ "obj-102", 0 ]
				}

			}
, 			{
				"patchline" : 				{
					"destination" : [ "obj-108", 1 ],
					"disabled" : 0,
					"hidden" : 0,
					"midpoints" : [ 607.666626, 862.0, 897.300049, 862.0 ],
					"source" : [ "obj-103", 0 ]
				}

			}
, 			{
				"patchline" : 				{
					"destination" : [ "obj-139", 1 ],
					"disabled" : 0,
					"hidden" : 0,
					"midpoints" : [ 880.300049, 928.0, 707.0, 928.0, 707.0, 1063.0, 662.800049, 1063.0 ],
					"source" : [ "obj-108", 0 ]
				}

			}
, 			{
				"patchline" : 				{
					"destination" : [ "obj-158", 1 ],
					"disabled" : 0,
					"hidden" : 0,
					"midpoints" : [ 880.300049, 907.0, 585.800049, 907.0 ],
					"source" : [ "obj-108", 0 ]
				}

			}
, 			{
				"patchline" : 				{
					"destination" : [ "obj-209", 0 ],
					"disabled" : 0,
					"hidden" : 0,
					"midpoints" : [ 880.300049, 928.0, 856.5, 928.0 ],
					"source" : [ "obj-108", 0 ]
				}

			}
, 			{
				"patchline" : 				{
					"destination" : [ "obj-110", 0 ],
					"disabled" : 0,
					"hidden" : 1,
					"midpoints" : [ 892.300049, 612.0, 892.300049, 612.0 ],
					"source" : [ "obj-109", 0 ]
				}

			}
, 			{
				"patchline" : 				{
					"destination" : [ "obj-111", 0 ],
					"disabled" : 0,
					"hidden" : 0,
					"source" : [ "obj-110", 0 ]
				}

			}
, 			{
				"patchline" : 				{
					"destination" : [ "obj-70", 0 ],
					"disabled" : 0,
					"hidden" : 0,
					"midpoints" : [ 892.300049, 811.0, 880.300049, 811.0 ],
					"source" : [ "obj-111", 0 ]
				}

			}
, 			{
				"patchline" : 				{
					"destination" : [ "obj-71", 0 ],
					"disabled" : 0,
					"hidden" : 0,
					"midpoints" : [ 892.300049, 811.0, 1076.0, 811.0 ],
					"source" : [ "obj-111", 0 ]
				}

			}
, 			{
				"patchline" : 				{
					"destination" : [ "obj-204", 1 ],
					"disabled" : 0,
					"hidden" : 0,
					"midpoints" : [ 1551.0, 1138.0, 1599.0, 1138.0 ],
					"source" : [ "obj-117", 0 ]
				}

			}
, 			{
				"patchline" : 				{
					"destination" : [ "obj-134", 1 ],
					"disabled" : 0,
					"hidden" : 0,
					"source" : [ "obj-118", 0 ]
				}

			}
, 			{
				"patchline" : 				{
					"destination" : [ "obj-153", 0 ],
					"disabled" : 0,
					"hidden" : 0,
					"source" : [ "obj-121", 0 ]
				}

			}
, 			{
				"patchline" : 				{
					"destination" : [ "obj-123", 0 ],
					"disabled" : 0,
					"hidden" : 1,
					"midpoints" : [ 801.799927, 1433.333496, 981.550049, 1433.333496, 981.550049, 1220.333496, 925.050049, 1220.333496 ],
					"source" : [ "obj-122", 3 ]
				}

			}
, 			{
				"patchline" : 				{
					"destination" : [ "obj-124", 0 ],
					"disabled" : 0,
					"hidden" : 1,
					"midpoints" : [ 755.299927, 1434.333496, 642.550049, 1434.333496, 642.550049, 1229.333496, 863.050049, 1229.333496 ],
					"source" : [ "obj-122", 2 ]
				}

			}
, 			{
				"patchline" : 				{
					"destination" : [ "obj-125", 0 ],
					"disabled" : 0,
					"hidden" : 1,
					"midpoints" : [ 708.799927, 1434.333496, 642.550049, 1434.333496, 642.550049, 1229.333496, 793.050049, 1229.333496 ],
					"source" : [ "obj-122", 1 ]
				}

			}
, 			{
				"patchline" : 				{
					"destination" : [ "obj-135", 0 ],
					"disabled" : 0,
					"hidden" : 0,
					"midpoints" : [ 662.299927, 1433.333496, 605.800049, 1433.333496, 605.800049, 1124.333496, 640.800049, 1124.333496 ],
					"source" : [ "obj-122", 0 ]
				}

			}
, 			{
				"patchline" : 				{
					"destination" : [ "obj-126", 0 ],
					"disabled" : 0,
					"hidden" : 1,
					"source" : [ "obj-123", 0 ]
				}

			}
, 			{
				"patchline" : 				{
					"destination" : [ "obj-127", 0 ],
					"disabled" : 0,
					"hidden" : 1,
					"source" : [ "obj-124", 0 ]
				}

			}
, 			{
				"patchline" : 				{
					"destination" : [ "obj-128", 0 ],
					"disabled" : 0,
					"hidden" : 1,
					"source" : [ "obj-125", 0 ]
				}

			}
, 			{
				"patchline" : 				{
					"destination" : [ "obj-122", 7 ],
					"disabled" : 0,
					"hidden" : 1,
					"source" : [ "obj-126", 0 ]
				}

			}
, 			{
				"patchline" : 				{
					"destination" : [ "obj-122", 6 ],
					"disabled" : 0,
					"hidden" : 1,
					"midpoints" : [ 859.049927, 1294.000244, 901.44281, 1294.000244 ],
					"source" : [ "obj-127", 0 ]
				}

			}
, 			{
				"patchline" : 				{
					"destination" : [ "obj-122", 5 ],
					"disabled" : 0,
					"hidden" : 1,
					"midpoints" : [ 789.049927, 1294.000244, 861.585632, 1294.000244 ],
					"source" : [ "obj-128", 0 ]
				}

			}
, 			{
				"patchline" : 				{
					"destination" : [ "obj-126", 0 ],
					"disabled" : 0,
					"hidden" : 0,
					"midpoints" : [ 908.133301, 1232.333496, 907.800049, 1232.333496, 907.800049, 1259.333496, 921.049927, 1259.333496 ],
					"source" : [ "obj-129", 0 ]
				}

			}
, 			{
				"patchline" : 				{
					"destination" : [ "obj-129", 0 ],
					"disabled" : 0,
					"hidden" : 0,
					"source" : [ "obj-130", 0 ]
				}

			}
, 			{
				"patchline" : 				{
					"destination" : [ "obj-128", 0 ],
					"disabled" : 0,
					"hidden" : 0,
					"midpoints" : [ 792.300049, 1232.333496, 775.800049, 1232.333496, 775.800049, 1265.333496, 789.049927, 1265.333496 ],
					"source" : [ "obj-131", 0 ]
				}

			}
, 			{
				"patchline" : 				{
					"destination" : [ "obj-131", 0 ],
					"disabled" : 0,
					"hidden" : 0,
					"source" : [ "obj-132", 0 ]
				}

			}
, 			{
				"patchline" : 				{
					"destination" : [ "obj-134", 0 ],
					"disabled" : 0,
					"hidden" : 0,
					"source" : [ "obj-133", 0 ]
				}

			}
, 			{
				"patchline" : 				{
					"destination" : [ "obj-143", 0 ],
					"disabled" : 0,
					"hidden" : 0,
					"midpoints" : [ 792.300049, 1117.0, 779.0, 1117.0, 779.0, 1057.0, 735.800049, 1057.0 ],
					"source" : [ "obj-133", 0 ]
				}

			}
, 			{
				"patchline" : 				{
					"destination" : [ "obj-130", 0 ],
					"disabled" : 0,
					"hidden" : 0,
					"midpoints" : [ 792.300049, 1155.333496, 908.133301, 1155.333496 ],
					"source" : [ "obj-134", 0 ]
				}

			}
, 			{
				"patchline" : 				{
					"destination" : [ "obj-132", 0 ],
					"disabled" : 0,
					"hidden" : 0,
					"source" : [ "obj-134", 0 ]
				}

			}
, 			{
				"patchline" : 				{
					"destination" : [ "obj-144", 0 ],
					"disabled" : 0,
					"hidden" : 0,
					"midpoints" : [ 640.800049, 1450.0, 1162.166626, 1450.0 ],
					"source" : [ "obj-135", 0 ]
				}

			}
, 			{
				"patchline" : 				{
					"destination" : [ "obj-135", 0 ],
					"disabled" : 0,
					"hidden" : 0,
					"source" : [ "obj-139", 0 ]
				}

			}
, 			{
				"patchline" : 				{
					"destination" : [ "obj-139", 0 ],
					"disabled" : 0,
					"hidden" : 0,
					"midpoints" : [ 682.800049, 1063.0, 640.800049, 1063.0 ],
					"source" : [ "obj-141", 0 ]
				}

			}
, 			{
				"patchline" : 				{
					"destination" : [ "obj-160", 0 ],
					"disabled" : 0,
					"hidden" : 0,
					"midpoints" : [ 682.800049, 1006.0, 662.0, 1006.0, 662.0, 973.0, 647.800049, 973.0 ],
					"source" : [ "obj-141", 0 ]
				}

			}
, 			{
				"patchline" : 				{
					"destination" : [ "obj-141", 0 ],
					"disabled" : 0,
					"hidden" : 0,
					"midpoints" : [ 735.800049, 1087.0, 707.0, 1087.0, 707.0, 973.0, 682.800049, 973.0 ],
					"source" : [ "obj-143", 0 ]
				}

			}
, 			{
				"patchline" : 				{
					"destination" : [ "obj-224", 0 ],
					"disabled" : 0,
					"hidden" : 0,
					"source" : [ "obj-144", 0 ]
				}

			}
, 			{
				"patchline" : 				{
					"destination" : [ "obj-205", 0 ],
					"disabled" : 0,
					"hidden" : 0,
					"midpoints" : [ 1421.0, 1129.0, 1421.0, 1129.0 ],
					"source" : [ "obj-145", 0 ]
				}

			}
, 			{
				"patchline" : 				{
					"destination" : [ "obj-145", 0 ],
					"disabled" : 0,
					"hidden" : 0,
					"midpoints" : [ 1858.333252, 994.0, 1463.0, 994.0, 1463.0, 1090.0, 1421.0, 1090.0 ],
					"source" : [ "obj-147", 0 ]
				}

			}
, 			{
				"patchline" : 				{
					"destination" : [ "obj-166", 0 ],
					"disabled" : 0,
					"hidden" : 0,
					"midpoints" : [ 1858.333252, 985.0, 1838.0, 985.0, 1838.0, 955.0, 1822.5, 955.0 ],
					"source" : [ "obj-147", 0 ]
				}

			}
, 			{
				"patchline" : 				{
					"destination" : [ "obj-147", 0 ],
					"disabled" : 0,
					"hidden" : 0,
					"midpoints" : [ 1526.5, 1105.0, 1502.0, 1105.0, 1502.0, 994.0, 1844.0, 994.0, 1844.0, 955.0, 1858.333252, 955.0 ],
					"source" : [ "obj-149", 0 ]
				}

			}
, 			{
				"patchline" : 				{
					"destination" : [ "obj-82", 0 ],
					"disabled" : 0,
					"hidden" : 0,
					"source" : [ "obj-15", 0 ]
				}

			}
, 			{
				"patchline" : 				{
					"destination" : [ "obj-225", 0 ],
					"disabled" : 0,
					"hidden" : 0,
					"midpoints" : [ 1271.166626, 1611.0, 1271.166626, 1611.0 ],
					"source" : [ "obj-151", 0 ]
				}

			}
, 			{
				"patchline" : 				{
					"destination" : [ "obj-158", 0 ],
					"disabled" : 0,
					"hidden" : 0,
					"midpoints" : [ 615.800049, 1063.0, 563.800049, 1063.0 ],
					"source" : [ "obj-153", 0 ]
				}

			}
, 			{
				"patchline" : 				{
					"destination" : [ "obj-144", 0 ],
					"disabled" : 0,
					"hidden" : 0,
					"midpoints" : [ 563.800049, 1450.0, 1162.166626, 1450.0 ],
					"source" : [ "obj-158", 0 ]
				}

			}
, 			{
				"patchline" : 				{
					"destination" : [ "obj-153", 0 ],
					"disabled" : 0,
					"hidden" : 0,
					"midpoints" : [ 647.800049, 1006.0, 632.0, 1006.0, 632.0, 976.0, 615.800049, 976.0 ],
					"source" : [ "obj-160", 0 ]
				}

			}
, 			{
				"patchline" : 				{
					"destination" : [ "obj-151", 0 ],
					"disabled" : 0,
					"hidden" : 0,
					"midpoints" : [ 1722.5, 1072.666626, 1887.666626, 1072.666626, 1887.666626, 1451.0, 1271.166626, 1451.0 ],
					"source" : [ "obj-161", 0 ]
				}

			}
, 			{
				"patchline" : 				{
					"destination" : [ "obj-161", 0 ],
					"disabled" : 0,
					"hidden" : 0,
					"source" : [ "obj-163", 0 ]
				}

			}
, 			{
				"patchline" : 				{
					"destination" : [ "obj-163", 0 ],
					"disabled" : 0,
					"hidden" : 0,
					"source" : [ "obj-164", 0 ]
				}

			}
, 			{
				"patchline" : 				{
					"destination" : [ "obj-163", 0 ],
					"disabled" : 0,
					"hidden" : 0,
					"midpoints" : [ 1822.5, 985.0, 1808.0, 985.0, 1808.0, 955.0, 1791.5, 955.0 ],
					"source" : [ "obj-166", 0 ]
				}

			}
, 			{
				"patchline" : 				{
					"destination" : [ "obj-38", 1 ],
					"disabled" : 0,
					"hidden" : 0,
					"midpoints" : [ 501.933105, 521.666748, 478.000122, 521.666748, 478.000122, 458.666748, 678.749878, 458.666748 ],
					"source" : [ "obj-170", 0 ]
				}

			}
, 			{
				"patchline" : 				{
					"destination" : [ "obj-38", 0 ],
					"disabled" : 0,
					"hidden" : 0,
					"midpoints" : [ 501.933105, 494.666748, 478.000122, 494.666748, 478.000122, 458.666748, 619.499878, 458.666748 ],
					"source" : [ "obj-172", 0 ]
				}

			}
, 			{
				"patchline" : 				{
					"destination" : [ "obj-38", 3 ],
					"disabled" : 0,
					"hidden" : 0,
					"midpoints" : [ 553.933105, 545.666748, 877.000122, 545.666748, 877.000122, 453.066742, 797.249878, 453.066742 ],
					"source" : [ "obj-174", 0 ]
				}

			}
, 			{
				"patchline" : 				{
					"destination" : [ "obj-38", 2 ],
					"disabled" : 0,
					"hidden" : 0,
					"midpoints" : [ 553.933105, 494.666748, 607.000122, 494.666748, 607.000122, 458.86676, 737.999878, 458.86676 ],
					"source" : [ "obj-176", 0 ]
				}

			}
, 			{
				"patchline" : 				{
					"destination" : [ "obj-39", 3 ],
					"disabled" : 0,
					"hidden" : 0,
					"midpoints" : [ 977.499878, 533.666748, 1300.000122, 533.666748, 1300.000122, 454.666748, 1219.249878, 454.666748 ],
					"source" : [ "obj-180", 0 ]
				}

			}
, 			{
				"patchline" : 				{
					"destination" : [ "obj-39", 2 ],
					"disabled" : 0,
					"hidden" : 0,
					"midpoints" : [ 977.499878, 494.666748, 964.000122, 494.666748, 964.000122, 452.666748, 1159.999878, 452.666748 ],
					"source" : [ "obj-182", 0 ]
				}

			}
, 			{
				"patchline" : 				{
					"destination" : [ "obj-39", 1 ],
					"disabled" : 0,
					"hidden" : 0,
					"midpoints" : [ 922.299927, 521.666748, 898.000122, 521.666748, 898.000122, 452.666748, 1100.749878, 452.666748 ],
					"source" : [ "obj-184", 0 ]
				}

			}
, 			{
				"patchline" : 				{
					"destination" : [ "obj-39", 0 ],
					"disabled" : 0,
					"hidden" : 0,
					"midpoints" : [ 922.299927, 494.666748, 898.000122, 494.666748, 898.000122, 453.000092, 1036.000122, 453.000092, 1036.000122, 461.666748, 1041.499878, 461.666748 ],
					"source" : [ "obj-186", 0 ]
				}

			}
, 			{
				"patchline" : 				{
					"destination" : [ "obj-198", 1 ],
					"disabled" : 0,
					"hidden" : 0,
					"midpoints" : [ 845.199829, 295.0, 849.199951, 295.0 ],
					"source" : [ "obj-188", 0 ]
				}

			}
, 			{
				"patchline" : 				{
					"destination" : [ "obj-52", 1 ],
					"disabled" : 0,
					"hidden" : 0,
					"midpoints" : [ 845.199829, 307.0, 869.0, 307.0, 869.0, 424.0, 739.699951, 424.0 ],
					"source" : [ "obj-188", 0 ]
				}

			}
, 			{
				"patchline" : 				{
					"destination" : [ "obj-191", 0 ],
					"disabled" : 0,
					"hidden" : 1,
					"midpoints" : [ 1593.500244, 1447.0, 1772.0, 1447.0, 1772.0, 1237.0, 1716.75, 1237.0 ],
					"source" : [ "obj-190", 3 ]
				}

			}
, 			{
				"patchline" : 				{
					"destination" : [ "obj-192", 0 ],
					"disabled" : 0,
					"hidden" : 1,
					"midpoints" : [ 1547.000244, 1447.0, 1433.0, 1447.0, 1433.0, 1237.0, 1654.75, 1237.0 ],
					"source" : [ "obj-190", 2 ]
				}

			}
, 			{
				"patchline" : 				{
					"destination" : [ "obj-193", 0 ],
					"disabled" : 0,
					"hidden" : 1,
					"midpoints" : [ 1500.500244, 1447.0, 1433.0, 1447.0, 1433.0, 1238.0, 1584.75, 1238.0 ],
					"source" : [ "obj-190", 1 ]
				}

			}
, 			{
				"patchline" : 				{
					"destination" : [ "obj-205", 0 ],
					"disabled" : 0,
					"hidden" : 0,
					"midpoints" : [ 1454.000244, 1438.0, 1397.0, 1438.0, 1397.0, 1134.0, 1421.0, 1134.0 ],
					"source" : [ "obj-190", 0 ]
				}

			}
, 			{
				"patchline" : 				{
					"destination" : [ "obj-194", 0 ],
					"disabled" : 0,
					"hidden" : 1,
					"midpoints" : [ 1716.75, 1276.0, 1712.750244, 1276.0 ],
					"source" : [ "obj-191", 0 ]
				}

			}
, 			{
				"patchline" : 				{
					"destination" : [ "obj-195", 0 ],
					"disabled" : 0,
					"hidden" : 1,
					"midpoints" : [ 1654.75, 1276.0, 1650.750244, 1276.0 ],
					"source" : [ "obj-192", 0 ]
				}

			}
, 			{
				"patchline" : 				{
					"destination" : [ "obj-196", 0 ],
					"disabled" : 0,
					"hidden" : 1,
					"midpoints" : [ 1584.75, 1276.0, 1580.750244, 1276.0 ],
					"source" : [ "obj-193", 0 ]
				}

			}
, 			{
				"patchline" : 				{
					"destination" : [ "obj-190", 7 ],
					"disabled" : 0,
					"hidden" : 1,
					"midpoints" : [ 1712.750244, 1307.666748, 1733.000244, 1307.666748 ],
					"source" : [ "obj-194", 0 ]
				}

			}
, 			{
				"patchline" : 				{
					"destination" : [ "obj-190", 6 ],
					"disabled" : 0,
					"hidden" : 1,
					"midpoints" : [ 1650.750244, 1307.666748, 1693.143066, 1307.666748 ],
					"source" : [ "obj-195", 0 ]
				}

			}
, 			{
				"patchline" : 				{
					"destination" : [ "obj-190", 5 ],
					"disabled" : 0,
					"hidden" : 1,
					"midpoints" : [ 1580.750244, 1307.666748, 1653.286011, 1307.666748 ],
					"source" : [ "obj-196", 0 ]
				}

			}
, 			{
				"patchline" : 				{
					"destination" : [ "obj-206", 1 ],
					"disabled" : 0,
					"hidden" : 0,
					"midpoints" : [ 1276.0, 295.0, 1280.000122, 295.0 ],
					"source" : [ "obj-197", 0 ]
				}

			}
, 			{
				"patchline" : 				{
					"destination" : [ "obj-65", 1 ],
					"disabled" : 0,
					"hidden" : 0,
					"midpoints" : [ 1276.0, 307.0, 1289.0, 307.0, 1289.0, 421.0, 1170.5, 421.0 ],
					"source" : [ "obj-197", 0 ]
				}

			}
, 			{
				"patchline" : 				{
					"destination" : [ "obj-36", 1 ],
					"disabled" : 0,
					"hidden" : 0,
					"midpoints" : [ 793.199951, 334.0, 793.199951, 334.0 ],
					"source" : [ "obj-198", 0 ]
				}

			}
, 			{
				"patchline" : 				{
					"destination" : [ "obj-194", 0 ],
					"disabled" : 0,
					"hidden" : 0,
					"midpoints" : [ 1699.833252, 1273.0, 1712.750244, 1273.0 ],
					"source" : [ "obj-199", 0 ]
				}

			}
, 			{
				"patchline" : 				{
					"destination" : [ "obj-199", 0 ],
					"disabled" : 0,
					"hidden" : 0,
					"midpoints" : [ 1699.833252, 1204.0, 1699.833252, 1204.0 ],
					"source" : [ "obj-200", 0 ]
				}

			}
, 			{
				"patchline" : 				{
					"destination" : [ "obj-196", 0 ],
					"disabled" : 0,
					"hidden" : 0,
					"midpoints" : [ 1584.0, 1231.0, 1568.333374, 1231.0, 1568.333374, 1273.0, 1580.750244, 1273.0 ],
					"source" : [ "obj-201", 0 ]
				}

			}
, 			{
				"patchline" : 				{
					"destination" : [ "obj-201", 0 ],
					"disabled" : 0,
					"hidden" : 0,
					"midpoints" : [ 1584.0, 1204.0, 1584.0, 1204.0 ],
					"source" : [ "obj-202", 0 ]
				}

			}
, 			{
				"patchline" : 				{
					"destination" : [ "obj-149", 0 ],
					"disabled" : 0,
					"hidden" : 0,
					"midpoints" : [ 1584.0, 1129.0, 1569.666626, 1129.0, 1569.666626, 1089.333374, 1551.0, 1089.333374, 1551.0, 1072.0, 1526.5, 1072.0 ],
					"source" : [ "obj-203", 0 ]
				}

			}
, 			{
				"patchline" : 				{
					"destination" : [ "obj-204", 0 ],
					"disabled" : 0,
					"hidden" : 0,
					"midpoints" : [ 1584.0, 1129.0, 1584.0, 1129.0 ],
					"source" : [ "obj-203", 0 ]
				}

			}
, 			{
				"patchline" : 				{
					"destination" : [ "obj-200", 0 ],
					"disabled" : 0,
					"hidden" : 0,
					"midpoints" : [ 1584.0, 1165.0, 1699.833252, 1165.0 ],
					"source" : [ "obj-204", 0 ]
				}

			}
, 			{
				"patchline" : 				{
					"destination" : [ "obj-202", 0 ],
					"disabled" : 0,
					"hidden" : 0,
					"midpoints" : [ 1584.0, 1165.0, 1584.0, 1165.0 ],
					"source" : [ "obj-204", 0 ]
				}

			}
, 			{
				"patchline" : 				{
					"destination" : [ "obj-151", 0 ],
					"disabled" : 0,
					"hidden" : 0,
					"midpoints" : [ 1421.0, 1450.0, 1271.166626, 1450.0 ],
					"source" : [ "obj-205", 0 ]
				}

			}
, 			{
				"patchline" : 				{
					"destination" : [ "obj-66", 1 ],
					"disabled" : 0,
					"hidden" : 0,
					"midpoints" : [ 1224.000122, 334.0, 1224.000122, 334.0 ],
					"source" : [ "obj-206", 0 ]
				}

			}
, 			{
				"patchline" : 				{
					"destination" : [ "obj-198", 0 ],
					"disabled" : 0,
					"hidden" : 0,
					"midpoints" : [ 700.916626, 190.0, 793.199951, 190.0 ],
					"source" : [ "obj-223", 0 ]
				}

			}
, 			{
				"patchline" : 				{
					"destination" : [ "obj-206", 0 ],
					"disabled" : 0,
					"hidden" : 0,
					"midpoints" : [ 700.916626, 190.0, 1224.000122, 190.0 ],
					"source" : [ "obj-223", 0 ]
				}

			}
, 			{
				"patchline" : 				{
					"destination" : [ "obj-34", 0 ],
					"disabled" : 0,
					"hidden" : 0,
					"midpoints" : [ 700.916626, 190.0, 737.0, 190.0, 737.0, 355.0, 717.699951, 355.0 ],
					"source" : [ "obj-223", 0 ]
				}

			}
, 			{
				"patchline" : 				{
					"destination" : [ "obj-68", 0 ],
					"disabled" : 0,
					"hidden" : 0,
					"midpoints" : [ 700.916626, 190.0, 1148.500122, 190.0 ],
					"source" : [ "obj-223", 0 ]
				}

			}
, 			{
				"patchline" : 				{
					"destination" : [ "obj-39", 2 ],
					"disabled" : 0,
					"hidden" : 0,
					"midpoints" : [ 1380.166748, 475.333344, 1298.0, 475.333344, 1298.0, 454.0, 1159.999878, 454.0 ],
					"source" : [ "obj-236", 0 ]
				}

			}
, 			{
				"patchline" : 				{
					"destination" : [ "obj-39", 3 ],
					"disabled" : 0,
					"hidden" : 0,
					"midpoints" : [ 1411.166748, 475.0, 1298.0, 475.0, 1298.0, 454.0, 1219.249878, 454.0 ],
					"source" : [ "obj-237", 0 ]
				}

			}
, 			{
				"patchline" : 				{
					"destination" : [ "obj-236", 0 ],
					"disabled" : 0,
					"hidden" : 0,
					"source" : [ "obj-239", 0 ]
				}

			}
, 			{
				"patchline" : 				{
					"destination" : [ "obj-237", 0 ],
					"disabled" : 0,
					"hidden" : 0,
					"midpoints" : [ 1380.166748, 436.0, 1411.166748, 436.0 ],
					"source" : [ "obj-239", 0 ]
				}

			}
, 			{
				"patchline" : 				{
					"destination" : [ "obj-26", 0 ],
					"disabled" : 0,
					"hidden" : 0,
					"midpoints" : [ 1179.75, 817.0, 1179.75, 817.0 ],
					"source" : [ "obj-24", 0 ]
				}

			}
, 			{
				"patchline" : 				{
					"destination" : [ "obj-241", 0 ],
					"disabled" : 0,
					"hidden" : 0,
					"midpoints" : [ 371.166626, 425.666748, 401.833252, 425.666748 ],
					"source" : [ "obj-240", 0 ]
				}

			}
, 			{
				"patchline" : 				{
					"destination" : [ "obj-242", 0 ],
					"disabled" : 0,
					"hidden" : 0,
					"source" : [ "obj-240", 0 ]
				}

			}
, 			{
				"patchline" : 				{
					"destination" : [ "obj-38", 3 ],
					"disabled" : 0,
					"hidden" : 0,
					"midpoints" : [ 401.833252, 457.0, 797.249878, 457.0 ],
					"source" : [ "obj-241", 0 ]
				}

			}
, 			{
				"patchline" : 				{
					"destination" : [ "obj-38", 2 ],
					"disabled" : 0,
					"hidden" : 0,
					"midpoints" : [ 371.166626, 457.0, 737.999878, 457.0 ],
					"source" : [ "obj-242", 0 ]
				}

			}
, 			{
				"patchline" : 				{
					"destination" : [ "obj-30", 0 ],
					"disabled" : 0,
					"hidden" : 0,
					"source" : [ "obj-25", 0 ]
				}

			}
, 			{
				"patchline" : 				{
					"destination" : [ "obj-84", 1 ],
					"disabled" : 0,
					"hidden" : 0,
					"midpoints" : [ 1179.75, 865.0, 1179.333374, 865.0 ],
					"source" : [ "obj-26", 0 ]
				}

			}
, 			{
				"patchline" : 				{
					"destination" : [ "obj-30", 0 ],
					"disabled" : 0,
					"hidden" : 0,
					"midpoints" : [ 628.833252, 153.0, 533.5, 153.0 ],
					"source" : [ "obj-27", 0 ]
				}

			}
, 			{
				"patchline" : 				{
					"destination" : [ "obj-133", 0 ],
					"disabled" : 0,
					"hidden" : 0,
					"midpoints" : [ 1132.5, 1088.0, 974.0, 1088.0, 974.0, 1069.0, 792.300049, 1069.0 ],
					"source" : [ "obj-283", 0 ]
				}

			}
, 			{
				"patchline" : 				{
					"destination" : [ "obj-203", 0 ],
					"disabled" : 0,
					"hidden" : 0,
					"midpoints" : [ 1132.5, 1090.0, 1502.0, 1090.0, 1502.0, 1071.666626, 1551.666626, 1071.666626, 1551.666626, 1090.0, 1584.0, 1090.0 ],
					"source" : [ "obj-283", 0 ]
				}

			}
, 			{
				"patchline" : 				{
					"destination" : [ "obj-79", 0 ],
					"disabled" : 0,
					"hidden" : 0,
					"midpoints" : [ 1261.75, 772.0, 1253.0, 772.0, 1253.0, 766.0, 1252.25, 766.0 ],
					"source" : [ "obj-29", 0 ]
				}

			}
, 			{
				"patchline" : 				{
					"destination" : [ "obj-35", 0 ],
					"disabled" : 0,
					"hidden" : 0,
					"source" : [ "obj-30", 1 ]
				}

			}
, 			{
				"patchline" : 				{
					"destination" : [ "obj-70", 0 ],
					"disabled" : 0,
					"hidden" : 0,
					"midpoints" : [ 945.833374, 811.0, 880.300049, 811.0 ],
					"source" : [ "obj-31", 0 ]
				}

			}
, 			{
				"patchline" : 				{
					"destination" : [ "obj-71", 0 ],
					"disabled" : 0,
					"hidden" : 0,
					"midpoints" : [ 945.833374, 812.666687, 1076.0, 812.666687 ],
					"source" : [ "obj-31", 0 ]
				}

			}
, 			{
				"patchline" : 				{
					"destination" : [ "obj-70", 0 ],
					"disabled" : 0,
					"hidden" : 0,
					"midpoints" : [ 993.5, 811.0, 880.300049, 811.0 ],
					"source" : [ "obj-32", 0 ]
				}

			}
, 			{
				"patchline" : 				{
					"destination" : [ "obj-71", 0 ],
					"disabled" : 0,
					"hidden" : 0,
					"midpoints" : [ 993.5, 814.0, 1076.0, 814.0 ],
					"source" : [ "obj-32", 0 ]
				}

			}
, 			{
				"patchline" : 				{
					"destination" : [ "obj-38", 0 ],
					"disabled" : 0,
					"hidden" : 0,
					"midpoints" : [ 434.599976, 457.333344, 619.499878, 457.333344 ],
					"source" : [ "obj-33", 0 ]
				}

			}
, 			{
				"patchline" : 				{
					"destination" : [ "obj-37", 0 ],
					"disabled" : 0,
					"hidden" : 0,
					"midpoints" : [ 717.699951, 391.0, 717.699951, 391.0 ],
					"source" : [ "obj-34", 0 ]
				}

			}
, 			{
				"patchline" : 				{
					"destination" : [ "obj-36", 0 ],
					"disabled" : 0,
					"hidden" : 0,
					"midpoints" : [ 695.5, 328.0, 779.699951, 328.0 ],
					"source" : [ "obj-35", 6 ]
				}

			}
, 			{
				"patchline" : 				{
					"destination" : [ "obj-66", 0 ],
					"disabled" : 0,
					"hidden" : 0,
					"midpoints" : [ 695.5, 256.0, 1199.0, 256.0, 1199.0, 337.0, 1210.500122, 337.0 ],
					"source" : [ "obj-35", 6 ]
				}

			}
, 			{
				"patchline" : 				{
					"destination" : [ "obj-34", 1 ],
					"disabled" : 0,
					"hidden" : 0,
					"midpoints" : [ 779.699951, 364.0, 779.699951, 364.0 ],
					"source" : [ "obj-36", 0 ]
				}

			}
, 			{
				"patchline" : 				{
					"destination" : [ "obj-242", 1 ],
					"disabled" : 0,
					"hidden" : 0,
					"midpoints" : [ 731.199951, 421.0, 656.0, 421.0, 656.0, 412.0, 395.0, 412.0, 395.0, 427.0, 386.166626, 427.0 ],
					"source" : [ "obj-37", 1 ]
				}

			}
, 			{
				"patchline" : 				{
					"destination" : [ "obj-52", 0 ],
					"disabled" : 0,
					"hidden" : 0,
					"midpoints" : [ 717.699951, 421.0, 717.699951, 421.0 ],
					"source" : [ "obj-37", 0 ]
				}

			}
, 			{
				"patchline" : 				{
					"destination" : [ "obj-118", 0 ],
					"disabled" : 0,
					"hidden" : 0,
					"midpoints" : [ 714.299866, 619.0, 755.0, 619.0, 755.0, 790.0, 785.0, 790.0, 785.0, 1075.0, 759.300049, 1075.0 ],
					"source" : [ "obj-38", 2 ]
				}

			}
, 			{
				"patchline" : 				{
					"destination" : [ "obj-70", 2 ],
					"disabled" : 0,
					"hidden" : 0,
					"midpoints" : [ 761.69989, 589.0, 869.0, 589.0, 869.0, 811.0, 945.300049, 811.0 ],
					"source" : [ "obj-38", 3 ]
				}

			}
, 			{
				"patchline" : 				{
					"destination" : [ "obj-70", 1 ],
					"disabled" : 0,
					"hidden" : 0,
					"midpoints" : [ 714.299866, 589.0, 869.0, 589.0, 869.0, 814.0, 912.800049, 814.0 ],
					"source" : [ "obj-38", 2 ]
				}

			}
, 			{
				"patchline" : 				{
					"destination" : [ "obj-93", 1 ],
					"disabled" : 0,
					"hidden" : 0,
					"midpoints" : [ 761.69989, 589.0, 790.199951, 589.0 ],
					"source" : [ "obj-38", 3 ]
				}

			}
, 			{
				"patchline" : 				{
					"destination" : [ "obj-93", 0 ],
					"disabled" : 0,
					"hidden" : 0,
					"midpoints" : [ 714.299866, 589.0, 779.699951, 589.0 ],
					"source" : [ "obj-38", 2 ]
				}

			}
, 			{
				"patchline" : 				{
					"destination" : [ "obj-117", 0 ],
					"disabled" : 0,
					"hidden" : 0,
					"midpoints" : [ 1136.299927, 592.0, 1551.400024, 592.0, 1551.400024, 1099.0, 1551.0, 1099.0 ],
					"source" : [ "obj-39", 2 ]
				}

			}
, 			{
				"patchline" : 				{
					"destination" : [ "obj-71", 2 ],
					"disabled" : 0,
					"hidden" : 0,
					"midpoints" : [ 1183.699829, 592.0, 1141.0, 592.0 ],
					"source" : [ "obj-39", 3 ]
				}

			}
, 			{
				"patchline" : 				{
					"destination" : [ "obj-71", 1 ],
					"disabled" : 0,
					"hidden" : 0,
					"midpoints" : [ 1136.299927, 814.0, 1108.5, 814.0 ],
					"source" : [ "obj-39", 2 ]
				}

			}
, 			{
				"patchline" : 				{
					"destination" : [ "obj-88", 1 ],
					"disabled" : 0,
					"hidden" : 0,
					"midpoints" : [ 1183.699829, 601.0, 1190.25, 601.0 ],
					"source" : [ "obj-39", 3 ]
				}

			}
, 			{
				"patchline" : 				{
					"destination" : [ "obj-88", 0 ],
					"disabled" : 0,
					"hidden" : 0,
					"midpoints" : [ 1136.299927, 592.0, 1179.75, 592.0 ],
					"source" : [ "obj-39", 2 ]
				}

			}
, 			{
				"patchline" : 				{
					"destination" : [ "obj-241", 1 ],
					"disabled" : 0,
					"hidden" : 0,
					"midpoints" : [ 717.699951, 454.0, 656.0, 454.0, 656.0, 412.0, 416.833252, 412.0 ],
					"source" : [ "obj-52", 0 ]
				}

			}
, 			{
				"patchline" : 				{
					"destination" : [ "obj-33", 0 ],
					"disabled" : 0,
					"hidden" : 1,
					"midpoints" : [ 434.599976, 358.0, 434.599976, 358.0 ],
					"source" : [ "obj-56", 0 ]
				}

			}
, 			{
				"patchline" : 				{
					"destination" : [ "obj-61", 0 ],
					"disabled" : 0,
					"hidden" : 0,
					"midpoints" : [ 434.599976, 364.399994, 505.933228, 364.399994 ],
					"source" : [ "obj-56", 0 ]
				}

			}
, 			{
				"patchline" : 				{
					"destination" : [ "obj-38", 0 ],
					"disabled" : 0,
					"hidden" : 0,
					"midpoints" : [ 505.933228, 457.333344, 619.499878, 457.333344 ],
					"source" : [ "obj-61", 0 ]
				}

			}
, 			{
				"patchline" : 				{
					"destination" : [ "obj-39", 0 ],
					"disabled" : 0,
					"hidden" : 0,
					"midpoints" : [ 1012.402588, 448.0, 1031.0, 448.0, 1031.0, 454.0, 1041.499878, 454.0 ],
					"source" : [ "obj-62", 0 ]
				}

			}
, 			{
				"patchline" : 				{
					"destination" : [ "obj-62", 0 ],
					"disabled" : 0,
					"hidden" : 0,
					"midpoints" : [ 938.300049, 334.0, 1012.402588, 334.0 ],
					"source" : [ "obj-63", 0 ]
				}

			}
, 			{
				"patchline" : 				{
					"destination" : [ "obj-64", 0 ],
					"disabled" : 0,
					"hidden" : 1,
					"midpoints" : [ 938.300049, 334.0, 938.300049, 334.0 ],
					"source" : [ "obj-63", 0 ]
				}

			}
, 			{
				"patchline" : 				{
					"destination" : [ "obj-39", 0 ],
					"disabled" : 0,
					"hidden" : 0,
					"midpoints" : [ 938.300049, 448.0, 1031.0, 448.0, 1031.0, 454.0, 1041.499878, 454.0 ],
					"source" : [ "obj-64", 0 ]
				}

			}
, 			{
				"patchline" : 				{
					"destination" : [ "obj-237", 1 ],
					"disabled" : 0,
					"hidden" : 0,
					"midpoints" : [ 1148.5, 454.666656, 1367.0, 454.666656, 1367.0, 436.0, 1426.166748, 436.0 ],
					"source" : [ "obj-65", 0 ]
				}

			}
, 			{
				"patchline" : 				{
					"destination" : [ "obj-68", 1 ],
					"disabled" : 0,
					"hidden" : 0,
					"midpoints" : [ 1210.500122, 364.0, 1210.500122, 364.0 ],
					"source" : [ "obj-66", 0 ]
				}

			}
, 			{
				"patchline" : 				{
					"destination" : [ "obj-236", 1 ],
					"disabled" : 0,
					"hidden" : 0,
					"midpoints" : [ 1162.0, 421.0, 1205.0, 421.0, 1205.0, 455.666656, 1367.0, 455.666656, 1367.0, 436.0, 1395.166748, 436.0 ],
					"source" : [ "obj-67", 1 ]
				}

			}
, 			{
				"patchline" : 				{
					"destination" : [ "obj-65", 0 ],
					"disabled" : 0,
					"hidden" : 0,
					"midpoints" : [ 1148.5, 421.0, 1148.5, 421.0 ],
					"source" : [ "obj-67", 0 ]
				}

			}
, 			{
				"patchline" : 				{
					"destination" : [ "obj-67", 0 ],
					"disabled" : 0,
					"hidden" : 0,
					"midpoints" : [ 1148.500122, 391.0, 1148.5, 391.0 ],
					"source" : [ "obj-68", 0 ]
				}

			}
, 			{
				"patchline" : 				{
					"destination" : [ "obj-108", 0 ],
					"disabled" : 0,
					"hidden" : 0,
					"midpoints" : [ 880.300049, 853.0, 880.300049, 853.0 ],
					"source" : [ "obj-70", 0 ]
				}

			}
, 			{
				"patchline" : 				{
					"destination" : [ "obj-84", 0 ],
					"disabled" : 0,
					"hidden" : 0,
					"midpoints" : [ 1076.0, 865.0, 1162.333374, 865.0 ],
					"source" : [ "obj-71", 0 ]
				}

			}
, 			{
				"patchline" : 				{
					"destination" : [ "obj-31", 0 ],
					"disabled" : 0,
					"hidden" : 1,
					"midpoints" : [ 976.5, 631.0, 947.0, 631.0, 947.0, 637.0, 945.833374, 637.0 ],
					"source" : [ "obj-74", 0 ]
				}

			}
, 			{
				"patchline" : 				{
					"destination" : [ "obj-32", 0 ],
					"disabled" : 0,
					"hidden" : 1,
					"midpoints" : [ 976.5, 637.0, 993.5, 637.0 ],
					"source" : [ "obj-74", 0 ]
				}

			}
, 			{
				"patchline" : 				{
					"destination" : [ "obj-26", 1 ],
					"disabled" : 0,
					"hidden" : 0,
					"source" : [ "obj-79", 0 ]
				}

			}
, 			{
				"patchline" : 				{
					"destination" : [ "obj-80", 0 ],
					"disabled" : 0,
					"hidden" : 0,
					"midpoints" : [ 1262.75, 822.666687, 1301.0, 822.666687, 1301.0, 790.0, 1324.75, 790.0 ],
					"source" : [ "obj-79", 1 ]
				}

			}
, 			{
				"patchline" : 				{
					"destination" : [ "obj-26", 2 ],
					"disabled" : 0,
					"hidden" : 0,
					"source" : [ "obj-80", 0 ]
				}

			}
, 			{
				"patchline" : 				{
					"destination" : [ "obj-24", 0 ],
					"disabled" : 0,
					"hidden" : 0,
					"midpoints" : [ 1179.75, 733.0, 1179.75, 733.0 ],
					"source" : [ "obj-82", 0 ]
				}

			}
, 			{
				"patchline" : 				{
					"destination" : [ "obj-145", 1 ],
					"disabled" : 0,
					"hidden" : 0,
					"midpoints" : [ 1162.333374, 928.0, 1463.0, 928.0, 1463.0, 1090.0, 1443.0, 1090.0 ],
					"source" : [ "obj-84", 0 ]
				}

			}
, 			{
				"patchline" : 				{
					"destination" : [ "obj-161", 1 ],
					"disabled" : 0,
					"hidden" : 0,
					"midpoints" : [ 1162.333374, 928.0, 1744.5, 928.0 ],
					"source" : [ "obj-84", 0 ]
				}

			}
, 			{
				"patchline" : 				{
					"destination" : [ "obj-221", 0 ],
					"disabled" : 0,
					"hidden" : 0,
					"midpoints" : [ 1162.333374, 928.0, 1162.333374, 928.0 ],
					"source" : [ "obj-84", 0 ]
				}

			}
, 			{
				"patchline" : 				{
					"destination" : [ "obj-89", 0 ],
					"disabled" : 0,
					"hidden" : 0,
					"source" : [ "obj-88", 0 ]
				}

			}
, 			{
				"patchline" : 				{
					"destination" : [ "obj-15", 0 ],
					"disabled" : 0,
					"hidden" : 0,
					"source" : [ "obj-89", 0 ]
				}

			}
, 			{
				"patchline" : 				{
					"destination" : [ "obj-29", 0 ],
					"disabled" : 0,
					"hidden" : 0,
					"midpoints" : [ 1316.25, 781.0, 1283.0, 781.0, 1283.0, 805.0, 1157.0, 805.0, 1157.0, 741.0, 1261.75, 741.0 ],
					"source" : [ "obj-90", 0 ]
				}

			}
, 			{
				"patchline" : 				{
					"destination" : [ "obj-94", 0 ],
					"disabled" : 0,
					"hidden" : 0,
					"midpoints" : [ 674.916626, 762.666748, 674.916626, 762.666748 ],
					"source" : [ "obj-91", 0 ]
				}

			}
, 			{
				"patchline" : 				{
					"destination" : [ "obj-101", 0 ],
					"disabled" : 0,
					"hidden" : 0,
					"midpoints" : [ 779.699951, 667.0, 779.699951, 667.0 ],
					"source" : [ "obj-92", 0 ]
				}

			}
, 			{
				"patchline" : 				{
					"destination" : [ "obj-92", 0 ],
					"disabled" : 0,
					"hidden" : 0,
					"midpoints" : [ 779.699951, 628.0, 779.699951, 628.0 ],
					"source" : [ "obj-93", 0 ]
				}

			}
, 			{
				"patchline" : 				{
					"destination" : [ "obj-95", 0 ],
					"disabled" : 0,
					"hidden" : 0,
					"midpoints" : [ 674.916626, 792.666748, 674.916626, 792.666748 ],
					"source" : [ "obj-94", 0 ]
				}

			}
, 			{
				"patchline" : 				{
					"destination" : [ "obj-103", 1 ],
					"disabled" : 0,
					"hidden" : 0,
					"midpoints" : [ 674.916626, 829.0, 680.166626, 829.0 ],
					"source" : [ "obj-95", 0 ]
				}

			}
, 			{
				"patchline" : 				{
					"destination" : [ "obj-96", 0 ],
					"disabled" : 0,
					"hidden" : 0,
					"midpoints" : [ 685.416626, 829.0, 695.0, 829.0, 695.0, 814.0, 728.0, 814.0, 728.0, 787.0, 752.666626, 787.0 ],
					"source" : [ "obj-95", 1 ]
				}

			}
, 			{
				"patchline" : 				{
					"destination" : [ "obj-103", 2 ],
					"disabled" : 0,
					"hidden" : 0,
					"midpoints" : [ 752.666626, 817.0, 752.666626, 817.0 ],
					"source" : [ "obj-96", 0 ]
				}

			}
 ],
		"dependency_cache" : [  ],
		"embedsnapshot" : 0,
		"styles" : [ 			{
				"name" : "Tech",
				"default" : 				{
					"fontname" : [ "Lucida Console" ],
					"textjustification" : [ 1 ],
					"textcolor_inverse" : [ 0.0, 1.0, 0.0, 1.0 ],
					"fontface" : [ 1 ],
					"fontsize" : [ 18.0 ],
					"bgfillcolor" : 					{
						"type" : "color",
						"color" : [ 0.290196, 0.309804, 0.301961, 0.0 ],
						"color1" : [ 0.376471, 0.384314, 0.4, 0.0 ],
						"color2" : [ 0.290196, 0.309804, 0.301961, 1.0 ],
						"angle" : 270.0,
						"proportion" : 0.39,
						"autogradient" : 0
					}

				}
,
				"parentstyle" : "",
				"multi" : 0
			}
, 			{
				"name" : "Tech1",
				"default" : 				{
					"fontname" : [ "Lucida Console" ],
					"textjustification" : [ 1 ],
					"textcolor_inverse" : [ 0.0, 1.0, 0.0, 1.0 ],
					"fontface" : [ 1 ],
					"fontsize" : [ 12.0 ],
					"bgfillcolor" : 					{
						"type" : "color",
						"color" : [ 0.290196, 0.309804, 0.301961, 0.0 ],
						"color1" : [ 0.376471, 0.384314, 0.4, 1.0 ],
						"color2" : [ 0.290196, 0.309804, 0.301961, 1.0 ],
						"angle" : 270.0,
						"proportion" : 0.39,
						"autogradient" : 0
					}

				}
,
				"parentstyle" : "Tech",
				"multi" : 0
			}
, 			{
				"name" : "Tech2",
				"default" : 				{
					"fontname" : [ "Lucida Console" ],
					"textjustification" : [ 1 ],
					"textcolor_inverse" : [ 0.0, 1.0, 0.0, 1.0 ],
					"fontface" : [ 3 ],
					"fontsize" : [ 36.0 ],
					"bgfillcolor" : 					{
						"type" : "color",
						"color" : [ 0.290196, 0.309804, 0.301961, 0.0 ],
						"color1" : [ 0.376471, 0.384314, 0.4, 0.0 ],
						"color2" : [ 0.290196, 0.309804, 0.301961, 1.0 ],
						"angle" : 270.0,
						"proportion" : 0.39,
						"autogradient" : 0
					}

				}
,
				"parentstyle" : "Tech",
				"multi" : 0
			}
, 			{
				"name" : "Tech4",
				"default" : 				{
					"fontname" : [ "Lucida Console" ],
					"textjustification" : [ 1 ],
					"textcolor_inverse" : [ 0.0, 0.0, 0.0, 1.0 ],
					"fontface" : [ 1 ],
					"fontsize" : [ 72.0 ],
					"bgfillcolor" : 					{
						"type" : "color",
						"color" : [ 0.0, 1.0, 0.6, 0.0 ],
						"color1" : [ 0.376471, 0.384314, 0.4, 0.0 ],
						"color2" : [ 0.290196, 0.309804, 0.301961, 1.0 ],
						"angle" : 270.0,
						"proportion" : 0.39,
						"autogradient" : 0.0
					}

				}
,
				"parentstyle" : "Tech",
				"multi" : 0
			}
, 			{
				"name" : "message004",
				"default" : 				{
					"textjustification" : [ 1 ],
					"fontsize" : [ 48.0 ]
				}
,
				"parentstyle" : "Tech1",
				"multi" : 0
			}
, 			{
				"name" : "message005",
				"default" : 				{
					"fontname" : [ "Lucida Console" ],
					"textcolor_inverse" : [ 0.0, 1.0, 0.0, 1.0 ],
					"fontface" : [ 1 ],
					"bgfillcolor" : 					{
						"type" : "color",
						"color" : [ 0.290196, 0.309804, 0.301961, 0.0 ],
						"color1" : [ 0.376471, 0.384314, 0.4, 0.0 ],
						"color2" : [ 0.290196, 0.309804, 0.301961, 1.0 ],
						"angle" : 270.0,
						"proportion" : 0.39,
						"autogradient" : 0
					}

				}
,
				"parentstyle" : "message004",
				"multi" : 0
			}
, 			{
				"name" : "newobjBlue-1",
				"default" : 				{
					"accentcolor" : [ 0.317647, 0.654902, 0.976471, 1.0 ]
				}
,
				"parentstyle" : "",
				"multi" : 0
			}
, 			{
				"name" : "newobjBrown-1",
				"default" : 				{
					"accentcolor" : [ 0.654902, 0.572549, 0.376471, 1.0 ]
				}
,
				"parentstyle" : "",
				"multi" : 0
			}
, 			{
				"name" : "newobjGreen-1",
				"default" : 				{
					"accentcolor" : [ 0.0, 0.533333, 0.168627, 1.0 ]
				}
,
				"parentstyle" : "",
				"multi" : 0
			}
, 			{
				"name" : "newobjYellow-1",
				"default" : 				{
					"accentcolor" : [ 0.82517, 0.78181, 0.059545, 1.0 ],
					"fontsize" : [ 12.059008 ]
				}
,
				"parentstyle" : "",
				"multi" : 0
			}
, 			{
				"name" : "numberGold-1",
				"default" : 				{
					"accentcolor" : [ 0.764706, 0.592157, 0.101961, 1.0 ]
				}
,
				"parentstyle" : "",
				"multi" : 0
			}
 ],
		"default_bgcolor" : [ 0.239216, 0.254902, 0.278431, 1.0 ],
		"color" : [ 0.0, 1.0, 0.909804, 1.0 ],
		"elementcolor" : [ 0.380896, 0.406538, 0.487159, 1.0 ],
		"accentcolor" : [ 0.32549, 0.345098, 0.372549, 1.0 ],
		"textcolor" : [ 0.0, 1.0, 0.853387, 1.0 ],
		"textcolor_inverse" : [ 0.0, 1.0, 0.854902, 1.0 ],
		"bgfillcolor_type" : "gradient",
		"bgfillcolor_color1" : [ 0.32549, 0.345098, 0.372549, 1.0 ],
		"bgfillcolor_color2" : [ 0.32549, 0.345098, 0.372549, 1.0 ],
		"bgfillcolor_color" : [ 0.290196, 0.309804, 0.301961, 1.0 ],
		"bgfillcolor_angle" : 270.0,
		"bgfillcolor_proportion" : 0.39
	}

}
