{
	"patcher" : 	{
		"fileversion" : 1,
		"appversion" : 		{
			"major" : 7,
			"minor" : 0,
			"revision" : 5,
			"architecture" : "x86",
			"modernui" : 1
		}
,
		"rect" : [ -678.0, 449.0, 674.0, 229.0 ],
		"bglocked" : 0,
		"openinpresentation" : 1,
		"default_fontsize" : 12.0,
		"default_fontface" : 0,
		"default_fontname" : "Arial",
		"gridonopen" : 1,
		"gridsize" : [ 15.0, 15.0 ],
		"gridsnaponopen" : 1,
		"objectsnaponopen" : 1,
		"statusbarvisible" : 2,
		"toolbarvisible" : 1,
		"lefttoolbarpinned" : 0,
		"toptoolbarpinned" : 0,
		"righttoolbarpinned" : 0,
		"bottomtoolbarpinned" : 0,
		"toolbars_unpinned_last_save" : 0,
		"tallnewobj" : 0,
		"boxanimatetime" : 200,
		"enablehscroll" : 1,
		"enablevscroll" : 1,
		"devicewidth" : 0.0,
		"description" : "",
		"digest" : "",
		"tags" : "",
		"style" : "",
		"subpatcher_template" : "",
		"boxes" : [ 			{
				"box" : 				{
					"bubble" : 1,
					"bubbleside" : 3,
					"id" : "obj-9",
					"maxclass" : "comment",
					"numinlets" : 1,
					"numoutlets" : 0,
					"patching_rect" : [ 39.666748, 309.0, 109.0, 24.0 ],
					"style" : "",
					"text" : "FM Processing",
					"textcolor" : [ 0.0, 0.0, 0.0, 1.0 ]
				}

			}
, 			{
				"box" : 				{
					"id" : "obj-5",
					"maxclass" : "newobj",
					"numinlets" : 1,
					"numoutlets" : 1,
					"outlettype" : [ "" ],
					"patching_rect" : [ 178.0, 234.666626, 72.0, 22.0 ],
					"style" : "",
					"text" : "loadmess 2"
				}

			}
, 			{
				"box" : 				{
					"id" : "obj-8",
					"maxclass" : "message",
					"numinlets" : 2,
					"numoutlets" : 1,
					"outlettype" : [ "" ],
					"patching_rect" : [ 339.333374, 555.73584, 29.5, 22.0 ],
					"style" : "",
					"text" : "1"
				}

			}
, 			{
				"box" : 				{
					"id" : "obj-2",
					"maxclass" : "newobj",
					"numinlets" : 1,
					"numoutlets" : 1,
					"outlettype" : [ "bang" ],
					"patching_rect" : [ 339.333374, 524.73584, 60.0, 22.0 ],
					"style" : "",
					"text" : "loadbang"
				}

			}
, 			{
				"box" : 				{
					"id" : "obj-1",
					"maxclass" : "preset",
					"numinlets" : 1,
					"numoutlets" : 4,
					"outlettype" : [ "preset", "int", "preset", "int" ],
					"patching_rect" : [ 299.333374, 580.73584, 100.0, 40.0 ],
					"presentation" : 1,
					"presentation_rect" : [ 70.000061, 137.047913, 114.800003, 28.0 ],
					"preset_data" : [ 						{
							"number" : 1,
							"data" : [ 6, "obj-361", "gain~", "list", 77, 10.0, 6, "obj-362", "gain~", "list", 90, 10.0 ]
						}
, 						{
							"number" : 2,
							"data" : [ 6, "obj-361", "gain~", "list", 99, 10.0, 6, "obj-362", "gain~", "list", 90, 10.0 ]
						}
, 						{
							"number" : 3,
							"data" : [ 6, "obj-361", "gain~", "list", 99, 10.0, 6, "obj-362", "gain~", "list", 106, 10.0 ]
						}
, 						{
							"number" : 4,
							"data" : [ 6, "obj-361", "gain~", "list", 109, 10.0, 6, "obj-362", "gain~", "list", 106, 10.0 ]
						}
 ],
					"style" : ""
				}

			}
, 			{
				"box" : 				{
					"bubble" : 1,
					"bubbleside" : 3,
					"id" : "obj-22",
					"linecount" : 2,
					"maxclass" : "comment",
					"numinlets" : 1,
					"numoutlets" : 0,
					"patching_rect" : [ 9.470192, 230.666626, 84.666664, 37.0 ],
					"style" : "",
					"text" : "Carrier Frequency",
					"textcolor" : [ 0.0, 0.0, 0.0, 1.0 ]
				}

			}
, 			{
				"box" : 				{
					"bubble" : 1,
					"bubbleside" : 2,
					"id" : "obj-20",
					"linecount" : 2,
					"maxclass" : "comment",
					"numinlets" : 1,
					"numoutlets" : 0,
					"patching_rect" : [ 81.333496, 46.402649, 150.0, 52.0 ],
					"style" : "",
					"text" : "On/off random for amplitude index",
					"textcolor" : [ 0.0, 0.0, 0.0, 1.0 ]
				}

			}
, 			{
				"box" : 				{
					"bubble" : 1,
					"id" : "obj-18",
					"linecount" : 4,
					"maxclass" : "comment",
					"numinlets" : 1,
					"numoutlets" : 0,
					"patching_rect" : [ 625.470215, 638.73584, 87.333328, 64.0 ],
					"style" : "",
					"text" : "(In order)\nCuttoff Gain Resonence",
					"textcolor" : [ 0.0, 0.0, 0.0, 1.0 ]
				}

			}
, 			{
				"box" : 				{
					"bubble" : 1,
					"id" : "obj-12",
					"linecount" : 2,
					"maxclass" : "comment",
					"numinlets" : 1,
					"numoutlets" : 0,
					"patching_rect" : [ 461.053467, 477.569214, 150.0, 37.0 ],
					"style" : "",
					"text" : "On/off for randomizing the filter",
					"textcolor" : [ 0.0, 0.0, 0.0, 1.0 ]
				}

			}
, 			{
				"box" : 				{
					"bubble" : 1,
					"id" : "obj-10",
					"maxclass" : "comment",
					"numinlets" : 1,
					"numoutlets" : 0,
					"patching_rect" : [ 480.053467, 304.73584, 112.0, 24.0 ],
					"style" : "",
					"text" : "Amplitude Index",
					"textcolor" : [ 0.0, 0.0, 0.0, 1.0 ]
				}

			}
, 			{
				"box" : 				{
					"bubble" : 1,
					"id" : "obj-4",
					"maxclass" : "comment",
					"numinlets" : 1,
					"numoutlets" : 0,
					"patching_rect" : [ 465.470215, 138.402588, 122.0, 24.0 ],
					"style" : "",
					"text" : "Modulation index",
					"textcolor" : [ 0.0, 0.0, 0.0, 1.0 ]
				}

			}
, 			{
				"box" : 				{
					"comment" : "",
					"id" : "obj-7",
					"maxclass" : "outlet",
					"numinlets" : 1,
					"numoutlets" : 0,
					"patching_rect" : [ 200.333374, 851.0, 30.0, 30.0 ],
					"style" : ""
				}

			}
, 			{
				"box" : 				{
					"comment" : "",
					"id" : "obj-6",
					"maxclass" : "outlet",
					"numinlets" : 1,
					"numoutlets" : 0,
					"patching_rect" : [ 173.333374, 851.0, 30.0, 30.0 ],
					"style" : ""
				}

			}
, 			{
				"box" : 				{
					"id" : "obj-1263",
					"maxclass" : "number",
					"numinlets" : 1,
					"numoutlets" : 2,
					"outlettype" : [ "", "bang" ],
					"parameter_enable" : 0,
					"patching_rect" : [ 306.333374, 863.069214, 50.0, 22.0 ],
					"presentation" : 1,
					"presentation_rect" : [ 6.303406, 170.852905, 50.0, 22.0 ],
					"style" : ""
				}

			}
, 			{
				"box" : 				{
					"id" : "obj-1264",
					"maxclass" : "number",
					"numinlets" : 1,
					"numoutlets" : 2,
					"outlettype" : [ "", "bang" ],
					"parameter_enable" : 0,
					"patching_rect" : [ 245.333374, 863.069214, 50.0, 22.0 ],
					"presentation" : 1,
					"presentation_rect" : [ 6.303406, 198.193481, 50.0, 22.0 ],
					"style" : ""
				}

			}
, 			{
				"box" : 				{
					"id" : "obj-1257",
					"maxclass" : "comment",
					"numinlets" : 1,
					"numoutlets" : 0,
					"patching_rect" : [ 730.0, 773.73584, 150.0, 20.0 ],
					"presentation" : 1,
					"presentation_linecount" : 2,
					"presentation_rect" : [ 401.499847, 41.7146, 78.0, 33.0 ],
					"style" : "",
					"text" : "FILTER AT RANDOM"
				}

			}
, 			{
				"box" : 				{
					"id" : "obj-1253",
					"maxclass" : "comment",
					"numinlets" : 1,
					"numoutlets" : 0,
					"patching_rect" : [ 730.0, 773.73584, 150.0, 20.0 ],
					"presentation" : 1,
					"presentation_rect" : [ 625.303406, 31.333008, 46.0, 20.0 ],
					"style" : "",
					"text" : "REZ"
				}

			}
, 			{
				"box" : 				{
					"id" : "obj-1254",
					"maxclass" : "comment",
					"numinlets" : 1,
					"numoutlets" : 0,
					"patching_rect" : [ 730.0, 773.73584, 150.0, 20.0 ],
					"presentation" : 1,
					"presentation_rect" : [ 560.166504, 31.333008, 40.0, 20.0 ],
					"style" : "",
					"text" : "GAIN"
				}

			}
, 			{
				"box" : 				{
					"id" : "obj-1255",
					"maxclass" : "comment",
					"numinlets" : 1,
					"numoutlets" : 0,
					"patching_rect" : [ 730.0, 773.73584, 150.0, 20.0 ],
					"presentation" : 1,
					"presentation_rect" : [ 486.499878, 31.333008, 64.333252, 20.0 ],
					"style" : "",
					"text" : "CUT OFF"
				}

			}
, 			{
				"box" : 				{
					"id" : "obj-1252",
					"maxclass" : "comment",
					"numinlets" : 1,
					"numoutlets" : 0,
					"patching_rect" : [ 730.0, 773.73584, 150.0, 20.0 ],
					"presentation" : 1,
					"presentation_linecount" : 2,
					"presentation_rect" : [ 366.166504, 181.922241, 69.333496, 33.0 ],
					"style" : "",
					"text" : "AMP MOD PRESET"
				}

			}
, 			{
				"box" : 				{
					"id" : "obj-1251",
					"maxclass" : "comment",
					"numinlets" : 1,
					"numoutlets" : 0,
					"patching_rect" : [ 730.0, 773.73584, 150.0, 20.0 ],
					"presentation" : 1,
					"presentation_linecount" : 2,
					"presentation_rect" : [ 589.029541, 181.922241, 75.136841, 33.0 ],
					"style" : "",
					"text" : "<RANDOM AMP MOD"
				}

			}
, 			{
				"box" : 				{
					"id" : "obj-1250",
					"linecount" : 2,
					"maxclass" : "comment",
					"numinlets" : 1,
					"numoutlets" : 0,
					"patching_rect" : [ 730.0, 803.73584, 150.0, 33.0 ],
					"presentation" : 1,
					"presentation_linecount" : 3,
					"presentation_rect" : [ 15.303406, 37.645081, 47.0, 47.0 ],
					"style" : "",
					"text" : "MOD FREQ\nVVVV"
				}

			}
, 			{
				"box" : 				{
					"id" : "obj-1248",
					"maxclass" : "comment",
					"numinlets" : 1,
					"numoutlets" : 0,
					"patching_rect" : [ 730.0, 773.73584, 150.0, 20.0 ],
					"presentation" : 1,
					"presentation_rect" : [ 192.166504, 19.714539, 80.0, 20.0 ],
					"style" : "",
					"text" : "MOD INDEX"
				}

			}
, 			{
				"box" : 				{
					"id" : "obj-1249",
					"maxclass" : "comment",
					"numinlets" : 1,
					"numoutlets" : 0,
					"patching_rect" : [ 730.0, 773.73584, 150.0, 20.0 ],
					"presentation" : 1,
					"presentation_rect" : [ 192.166504, 123.853027, 80.0, 20.0 ],
					"style" : "",
					"text" : "AMP INDEX"
				}

			}
, 			{
				"box" : 				{
					"id" : "obj-379",
					"maxclass" : "message",
					"numinlets" : 2,
					"numoutlets" : 1,
					"outlettype" : [ "" ],
					"patching_rect" : [ 313.333374, 99.40271, 83.0, 22.0 ],
					"style" : "",
					"text" : "setdomain $1"
				}

			}
, 			{
				"box" : 				{
					"id" : "obj-380",
					"maxclass" : "number",
					"numinlets" : 1,
					"numoutlets" : 2,
					"outlettype" : [ "", "bang" ],
					"parameter_enable" : 0,
					"patching_rect" : [ 407.333374, 61.402649, 50.0, 22.0 ],
					"style" : ""
				}

			}
, 			{
				"box" : 				{
					"id" : "obj-381",
					"maxclass" : "newobj",
					"numinlets" : 1,
					"numoutlets" : 1,
					"outlettype" : [ "" ],
					"patching_rect" : [ 313.333374, 61.402649, 85.0, 22.0 ],
					"style" : "",
					"text" : "loadmess 250"
				}

			}
, 			{
				"box" : 				{
					"id" : "obj-382",
					"maxclass" : "preset",
					"numinlets" : 1,
					"numoutlets" : 4,
					"outlettype" : [ "preset", "int", "preset", "int" ],
					"patching_rect" : [ 144.333496, 138.402588, 100.0, 40.0 ],
					"presentation" : 1,
					"presentation_rect" : [ 437.5, 181.922241, 100.0, 40.0 ],
					"preset_data" : [ 						{
							"number" : 1,
							"data" : [ 4, "obj-400", "function", "clear", 7, "obj-400", "function", "add", 0.0, 24.0, 0, 7, "obj-400", "function", "add", 25.33721, 19.502224, 0, 7, "obj-400", "function", "add", 25.33721, 9.055806, 0, 7, "obj-400", "function", "add", 37.402542, 16.600441, 0, 7, "obj-400", "function", "add", 66.359337, 2.671885, 0, 7, "obj-400", "function", "add", 97.729195, 20.662935, 0, 7, "obj-400", "function", "add", 107.381462, 0.930816, 0, 7, "obj-400", "function", "add", 121.859856, 19.502224, 0, 7, "obj-400", "function", "add", 158.055847, 23.564718, 0, 7, "obj-400", "function", "add", 162.881989, 12.537946, 0, 7, "obj-400", "function", "add", 249.999985, 0.0, 0, 7, "obj-400", "function", "add", 249.999985, 0.0, 0, 5, "obj-400", "function", "domain", 250.0, 6, "obj-400", "function", "range", 0.0, 24.0, 5, "obj-400", "function", "mode", 0 ]
						}
, 						{
							"number" : 2,
							"data" : [ 4, "obj-400", "function", "clear", 7, "obj-400", "function", "add", 0.0, 13.118302, 0, 7, "obj-400", "function", "add", 250.0, 14.279015, 0, 5, "obj-400", "function", "domain", 250.0, 6, "obj-400", "function", "range", 0.0, 24.0, 5, "obj-400", "function", "mode", 0 ]
						}
, 						{
							"number" : 3,
							"data" : [ 4, "obj-400", "function", "clear", 7, "obj-400", "function", "add", 0.0, 24.0, 0, 7, "obj-400", "function", "add", 32.576408, 0.0, 0, 5, "obj-400", "function", "domain", 250.0, 6, "obj-400", "function", "range", 0.0, 24.0, 5, "obj-400", "function", "mode", 0 ]
						}
 ],
					"style" : ""
				}

			}
, 			{
				"box" : 				{
					"id" : "obj-383",
					"maxclass" : "newobj",
					"numinlets" : 2,
					"numoutlets" : 1,
					"outlettype" : [ "int" ],
					"patching_rect" : [ 230.333496, 108.069214, 61.0, 22.0 ],
					"style" : "",
					"text" : "random 4"
				}

			}
, 			{
				"box" : 				{
					"id" : "obj-384",
					"maxclass" : "toggle",
					"numinlets" : 1,
					"numoutlets" : 1,
					"outlettype" : [ "int" ],
					"parameter_enable" : 0,
					"patching_rect" : [ 144.333496, 106.333374, 24.0, 24.0 ],
					"presentation" : 1,
					"presentation_rect" : [ 546.833252, 185.422241, 33.0, 33.0 ],
					"style" : ""
				}

			}
, 			{
				"box" : 				{
					"id" : "obj-385",
					"maxclass" : "newobj",
					"numinlets" : 2,
					"numoutlets" : 1,
					"outlettype" : [ "" ],
					"patching_rect" : [ 183.333496, 108.069214, 34.0, 22.0 ],
					"style" : "",
					"text" : "gate"
				}

			}
, 			{
				"box" : 				{
					"comment" : "",
					"id" : "obj-386",
					"maxclass" : "inlet",
					"numinlets" : 0,
					"numoutlets" : 1,
					"outlettype" : [ "bang" ],
					"patching_rect" : [ 103.666748, 107.069336, 30.0, 30.0 ],
					"style" : ""
				}

			}
, 			{
				"box" : 				{
					"id" : "obj-387",
					"maxclass" : "message",
					"numinlets" : 2,
					"numoutlets" : 1,
					"outlettype" : [ "" ],
					"patching_rect" : [ 476.333374, 99.40271, 37.0, 22.0 ],
					"style" : "",
					"text" : "clear"
				}

			}
, 			{
				"box" : 				{
					"id" : "obj-388",
					"maxclass" : "newobj",
					"numinlets" : 2,
					"numoutlets" : 2,
					"outlettype" : [ "signal", "bang" ],
					"patching_rect" : [ 360.333374, 416.402466, 36.0, 22.0 ],
					"style" : "",
					"text" : "line~"
				}

			}
, 			{
				"box" : 				{
					"id" : "obj-389",
					"maxclass" : "newobj",
					"numinlets" : 2,
					"numoutlets" : 1,
					"outlettype" : [ "signal" ],
					"patching_rect" : [ 103.666748, 444.666626, 29.5, 22.0 ],
					"style" : "",
					"text" : "*~"
				}

			}
, 			{
				"box" : 				{
					"id" : "obj-390",
					"maxclass" : "message",
					"numinlets" : 2,
					"numoutlets" : 1,
					"outlettype" : [ "" ],
					"patching_rect" : [ 476.333374, 252.402466, 37.0, 22.0 ],
					"style" : "",
					"text" : "clear"
				}

			}
, 			{
				"box" : 				{
					"addpoints" : [ 0.0, 0.0, 0, 40.8242, 0.951635, 0, 58.013329, 0.0, 0, 144.496613, 0.0, 0 ],
					"domain" : 500.0,
					"id" : "obj-391",
					"maxclass" : "function",
					"numinlets" : 1,
					"numoutlets" : 4,
					"outlettype" : [ "float", "", "", "bang" ],
					"parameter_enable" : 0,
					"patching_rect" : [ 313.333374, 304.73584, 167.136841, 80.138527 ],
					"presentation" : 1,
					"presentation_rect" : [ 192.166504, 141.783691, 167.136841, 80.138527 ],
					"style" : "",
					"varname" : "amp1[7]"
				}

			}
, 			{
				"box" : 				{
					"id" : "obj-392",
					"maxclass" : "button",
					"numinlets" : 1,
					"numoutlets" : 1,
					"outlettype" : [ "bang" ],
					"patching_rect" : [ 103.666748, 171.069214, 24.0, 24.0 ],
					"presentation" : 1,
					"presentation_rect" : [ 70.000061, 19.714539, 115.333374, 115.333374 ],
					"style" : ""
				}

			}
, 			{
				"box" : 				{
					"id" : "obj-393",
					"maxclass" : "newobj",
					"numinlets" : 2,
					"numoutlets" : 1,
					"outlettype" : [ "signal" ],
					"patching_rect" : [ 240.833374, 314.73584, 29.5, 22.0 ],
					"style" : "",
					"text" : "*~"
				}

			}
, 			{
				"box" : 				{
					"id" : "obj-394",
					"maxclass" : "newobj",
					"numinlets" : 2,
					"numoutlets" : 2,
					"outlettype" : [ "signal", "bang" ],
					"patching_rect" : [ 251.333374, 269.402466, 36.0, 22.0 ],
					"style" : "",
					"text" : "line~"
				}

			}
, 			{
				"box" : 				{
					"id" : "obj-395",
					"maxclass" : "newobj",
					"numinlets" : 2,
					"numoutlets" : 1,
					"outlettype" : [ "signal" ],
					"patching_rect" : [ 153.333374, 352.402466, 29.5, 22.0 ],
					"style" : "",
					"text" : "*~"
				}

			}
, 			{
				"box" : 				{
					"id" : "obj-396",
					"maxclass" : "newobj",
					"numinlets" : 3,
					"numoutlets" : 1,
					"outlettype" : [ "signal" ],
					"patching_rect" : [ 153.333374, 314.73584, 40.0, 22.0 ],
					"style" : "",
					"text" : "rect~"
				}

			}
, 			{
				"box" : 				{
					"id" : "obj-397",
					"maxclass" : "newobj",
					"numinlets" : 2,
					"numoutlets" : 1,
					"outlettype" : [ "float" ],
					"patching_rect" : [ 153.333374, 277.402466, 35.0, 22.0 ],
					"style" : "",
					"text" : "* 1.5"
				}

			}
, 			{
				"box" : 				{
					"id" : "obj-398",
					"maxclass" : "newobj",
					"numinlets" : 2,
					"numoutlets" : 1,
					"outlettype" : [ "signal" ],
					"patching_rect" : [ 103.666748, 399.333252, 45.0, 22.0 ],
					"style" : "",
					"text" : "cycle~"
				}

			}
, 			{
				"box" : 				{
					"id" : "obj-399",
					"maxclass" : "newobj",
					"numinlets" : 2,
					"numoutlets" : 1,
					"outlettype" : [ "int" ],
					"patching_rect" : [ 103.666748, 338.333252, 29.5, 22.0 ],
					"style" : "",
					"text" : "+ ~"
				}

			}
, 			{
				"box" : 				{
					"addpoints" : [ 0.0, 24.0, 0, 25.33721, 19.502224, 0, 25.33721, 9.055806, 0, 37.402542, 16.600441, 0, 66.359337, 2.671885, 0, 97.729195, 20.662935, 0, 107.381462, 0.930816, 0, 121.859856, 19.502224, 0, 158.055847, 23.564718, 0, 162.881989, 12.537946, 0, 249.999985, 0.0, 0, 249.999985, 0.0, 0 ],
					"domain" : 250.0,
					"id" : "obj-400",
					"maxclass" : "function",
					"numinlets" : 1,
					"numoutlets" : 4,
					"outlettype" : [ "float", "", "", "bang" ],
					"parameter_enable" : 0,
					"patching_rect" : [ 313.333374, 138.402588, 150.136841, 80.138527 ],
					"presentation" : 1,
					"presentation_rect" : [ 192.166504, 41.7146, 167.136841, 80.138527 ],
					"range" : [ 0.0, 24.0 ],
					"style" : "",
					"varname" : "modindex1[7]"
				}

			}
, 			{
				"box" : 				{
					"fontsize" : 18.0,
					"id" : "obj-401",
					"maxclass" : "number",
					"numinlets" : 1,
					"numoutlets" : 2,
					"outlettype" : [ "", "bang" ],
					"parameter_enable" : 0,
					"patching_rect" : [ 103.666748, 234.666626, 64.0, 29.0 ],
					"presentation" : 1,
					"presentation_rect" : [ 6.303406, 106.047913, 64.0, 29.0 ],
					"style" : ""
				}

			}
, 			{
				"box" : 				{
					"id" : "obj-361",
					"maxclass" : "gain~",
					"numinlets" : 1,
					"numoutlets" : 2,
					"outlettype" : [ "signal", "int" ],
					"parameter_enable" : 0,
					"patching_rect" : [ 200.333374, 684.73584, 22.0, 140.0 ],
					"presentation" : 1,
					"presentation_rect" : [ 70.000061, 168.526855, 114.800003, 24.569313 ],
					"style" : ""
				}

			}
, 			{
				"box" : 				{
					"id" : "obj-362",
					"maxclass" : "gain~",
					"numinlets" : 1,
					"numoutlets" : 2,
					"outlettype" : [ "signal", "int" ],
					"parameter_enable" : 0,
					"patching_rect" : [ 173.333374, 684.73584, 22.0, 140.0 ],
					"presentation" : 1,
					"presentation_rect" : [ 70.000061, 196.908813, 114.800003, 24.569313 ],
					"style" : ""
				}

			}
, 			{
				"box" : 				{
					"fontface" : 0,
					"id" : "obj-363",
					"linmarkers" : [ 0.0, 11025.0, 16537.5 ],
					"logmarkers" : [ 0.0, 100.0, 1000.0, 10000.0 ],
					"maxclass" : "filtergraph~",
					"nfilters" : 1,
					"numinlets" : 8,
					"numoutlets" : 7,
					"outlettype" : [ "list", "float", "float", "float", "float", "list", "int" ],
					"parameter_enable" : 0,
					"patching_rect" : [ 299.333374, 693.069214, 298.0, 123.0 ],
					"presentation" : 1,
					"presentation_rect" : [ 366.166504, 83.951477, 298.0, 90.069191 ],
					"setfilter" : [ 0, 1, 1, 0, 0, 16801.0, 0.835652, 5.0, 0.0, 0.0, 0.0, 0.0, 0.0, 0.0 ],
					"style" : ""
				}

			}
, 			{
				"box" : 				{
					"fontname" : "Arial",
					"fontsize" : 13.0,
					"id" : "obj-364",
					"maxclass" : "message",
					"numinlets" : 2,
					"numoutlets" : 1,
					"outlettype" : [ "" ],
					"patching_rect" : [ 558.083374, 632.23584, 48.0, 23.0 ],
					"style" : "",
					"text" : "set $1"
				}

			}
, 			{
				"box" : 				{
					"fontname" : "Arial",
					"fontsize" : 13.0,
					"id" : "obj-365",
					"maxclass" : "message",
					"numinlets" : 2,
					"numoutlets" : 1,
					"outlettype" : [ "" ],
					"patching_rect" : [ 496.083374, 632.23584, 48.0, 23.0 ],
					"style" : "",
					"text" : "set $1"
				}

			}
, 			{
				"box" : 				{
					"fontname" : "Arial",
					"fontsize" : 13.0,
					"id" : "obj-366",
					"maxclass" : "message",
					"numinlets" : 2,
					"numoutlets" : 1,
					"outlettype" : [ "" ],
					"patching_rect" : [ 426.083374, 632.23584, 48.0, 23.0 ],
					"style" : "",
					"text" : "set $1"
				}

			}
, 			{
				"box" : 				{
					"fontname" : "Arial",
					"fontsize" : 13.0,
					"format" : 6,
					"id" : "obj-367",
					"maxclass" : "flonum",
					"numinlets" : 1,
					"numoutlets" : 2,
					"outlettype" : [ "", "bang" ],
					"parameter_enable" : 0,
					"patching_rect" : [ 558.083374, 659.069214, 55.0, 23.0 ],
					"presentation" : 1,
					"presentation_rect" : [ 619.166504, 53.333008, 45.0, 23.0 ],
					"style" : ""
				}

			}
, 			{
				"box" : 				{
					"fontname" : "Arial",
					"fontsize" : 13.0,
					"format" : 6,
					"id" : "obj-368",
					"maxclass" : "flonum",
					"numinlets" : 1,
					"numoutlets" : 2,
					"outlettype" : [ "", "bang" ],
					"parameter_enable" : 0,
					"patching_rect" : [ 496.083374, 659.069214, 55.0, 23.0 ],
					"presentation" : 1,
					"presentation_rect" : [ 557.166504, 53.333008, 46.0, 23.0 ],
					"style" : ""
				}

			}
, 			{
				"box" : 				{
					"fontname" : "Arial",
					"fontsize" : 13.0,
					"format" : 6,
					"id" : "obj-369",
					"maxclass" : "flonum",
					"numinlets" : 1,
					"numoutlets" : 2,
					"outlettype" : [ "", "bang" ],
					"parameter_enable" : 0,
					"patching_rect" : [ 426.083374, 659.069214, 57.0, 23.0 ],
					"presentation" : 1,
					"presentation_rect" : [ 486.499878, 53.333008, 57.0, 23.0 ],
					"style" : ""
				}

			}
, 			{
				"box" : 				{
					"attr" : "edit_mode",
					"fontface" : 0,
					"fontname" : "Arial",
					"fontsize" : 13.0,
					"id" : "obj-370",
					"lock" : 1,
					"maxclass" : "attrui",
					"numinlets" : 1,
					"numoutlets" : 1,
					"orientation" : 1,
					"outlettype" : [ "" ],
					"patching_rect" : [ 299.333374, 638.73584, 83.0, 46.0 ],
					"style" : "",
					"text_width" : 83.0
				}

			}
, 			{
				"box" : 				{
					"id" : "obj-372",
					"maxclass" : "newobj",
					"numinlets" : 2,
					"numoutlets" : 1,
					"outlettype" : [ "int" ],
					"patching_rect" : [ 541.166626, 589.73584, 29.5, 22.0 ],
					"style" : "",
					"text" : "+ 1"
				}

			}
, 			{
				"box" : 				{
					"id" : "obj-373",
					"maxclass" : "newobj",
					"numinlets" : 2,
					"numoutlets" : 1,
					"outlettype" : [ "int" ],
					"patching_rect" : [ 541.166626, 561.73584, 61.0, 22.0 ],
					"style" : "",
					"text" : "random 5"
				}

			}
, 			{
				"box" : 				{
					"id" : "obj-374",
					"maxclass" : "newobj",
					"numinlets" : 2,
					"numoutlets" : 1,
					"outlettype" : [ "int" ],
					"patching_rect" : [ 425.333374, 589.73584, 48.0, 22.0 ],
					"style" : "",
					"text" : "+ 4000"
				}

			}
, 			{
				"box" : 				{
					"id" : "obj-375",
					"maxclass" : "newobj",
					"numinlets" : 2,
					"numoutlets" : 1,
					"outlettype" : [ "int" ],
					"patching_rect" : [ 425.333374, 561.73584, 88.0, 22.0 ],
					"style" : "",
					"text" : "random 18000"
				}

			}
, 			{
				"box" : 				{
					"id" : "obj-376",
					"maxclass" : "toggle",
					"numinlets" : 1,
					"numoutlets" : 1,
					"outlettype" : [ "int" ],
					"parameter_enable" : 0,
					"patching_rect" : [ 425.333374, 484.069214, 24.0, 24.0 ],
					"presentation" : 1,
					"presentation_rect" : [ 366.166504, 41.7146, 33.333332, 33.333332 ],
					"style" : ""
				}

			}
, 			{
				"box" : 				{
					"id" : "obj-377",
					"maxclass" : "newobj",
					"numinlets" : 2,
					"numoutlets" : 1,
					"outlettype" : [ "" ],
					"patching_rect" : [ 425.333374, 524.73584, 34.0, 22.0 ],
					"style" : "",
					"text" : "gate"
				}

			}
, 			{
				"box" : 				{
					"id" : "obj-378",
					"maxclass" : "newobj",
					"numinlets" : 6,
					"numoutlets" : 1,
					"outlettype" : [ "signal" ],
					"patching_rect" : [ 262.333374, 524.73584, 71.5, 22.0 ],
					"style" : "",
					"text" : "biquad~"
				}

			}
, 			{
				"box" : 				{
					"background" : 1,
					"id" : "obj-3",
					"maxclass" : "panel",
					"numinlets" : 1,
					"numoutlets" : 0,
					"patching_rect" : [ 730.0, 638.73584, 128.0, 128.0 ],
					"presentation" : 1,
					"presentation_rect" : [ 1.303406, 0.833008, 670.0, 227.089233 ],
					"style" : ""
				}

			}
 ],
		"lines" : [ 			{
				"patchline" : 				{
					"destination" : [ "obj-361", 0 ],
					"disabled" : 0,
					"hidden" : 0,
					"midpoints" : [ 308.833374, 621.0, 209.833374, 621.0 ],
					"source" : [ "obj-1", 0 ]
				}

			}
, 			{
				"patchline" : 				{
					"destination" : [ "obj-362", 0 ],
					"disabled" : 0,
					"hidden" : 0,
					"midpoints" : [ 308.833374, 621.0, 182.833374, 621.0 ],
					"source" : [ "obj-1", 0 ]
				}

			}
, 			{
				"patchline" : 				{
					"destination" : [ "obj-8", 0 ],
					"disabled" : 0,
					"hidden" : 0,
					"source" : [ "obj-2", 0 ]
				}

			}
, 			{
				"patchline" : 				{
					"destination" : [ "obj-1263", 0 ],
					"disabled" : 0,
					"hidden" : 0,
					"midpoints" : [ 213.333374, 849.069214, 315.833374, 849.069214 ],
					"source" : [ "obj-361", 1 ]
				}

			}
, 			{
				"patchline" : 				{
					"destination" : [ "obj-7", 0 ],
					"disabled" : 0,
					"hidden" : 0,
					"source" : [ "obj-361", 0 ]
				}

			}
, 			{
				"patchline" : 				{
					"destination" : [ "obj-1264", 0 ],
					"disabled" : 0,
					"hidden" : 0,
					"midpoints" : [ 186.333374, 849.069214, 254.833374, 849.069214 ],
					"source" : [ "obj-362", 1 ]
				}

			}
, 			{
				"patchline" : 				{
					"destination" : [ "obj-6", 0 ],
					"disabled" : 0,
					"hidden" : 0,
					"source" : [ "obj-362", 0 ]
				}

			}
, 			{
				"patchline" : 				{
					"destination" : [ "obj-364", 0 ],
					"disabled" : 0,
					"hidden" : 1,
					"midpoints" : [ 448.333374, 829.735962, 624.083374, 829.735962, 624.083374, 616.735962, 567.583374, 616.735962 ],
					"source" : [ "obj-363", 3 ]
				}

			}
, 			{
				"patchline" : 				{
					"destination" : [ "obj-365", 0 ],
					"disabled" : 0,
					"hidden" : 1,
					"midpoints" : [ 401.833374, 830.735962, 285.083374, 830.735962, 285.083374, 625.735962, 505.583374, 625.735962 ],
					"source" : [ "obj-363", 2 ]
				}

			}
, 			{
				"patchline" : 				{
					"destination" : [ "obj-366", 0 ],
					"disabled" : 0,
					"hidden" : 1,
					"midpoints" : [ 355.333374, 830.735962, 285.083374, 830.735962, 285.083374, 625.735962, 435.583374, 625.735962 ],
					"source" : [ "obj-363", 1 ]
				}

			}
, 			{
				"patchline" : 				{
					"destination" : [ "obj-378", 0 ],
					"disabled" : 0,
					"hidden" : 0,
					"midpoints" : [ 308.833374, 829.735962, 248.333374, 829.735962, 248.333374, 520.735962, 271.833374, 520.735962 ],
					"source" : [ "obj-363", 0 ]
				}

			}
, 			{
				"patchline" : 				{
					"destination" : [ "obj-367", 0 ],
					"disabled" : 0,
					"hidden" : 1,
					"source" : [ "obj-364", 0 ]
				}

			}
, 			{
				"patchline" : 				{
					"destination" : [ "obj-368", 0 ],
					"disabled" : 0,
					"hidden" : 1,
					"source" : [ "obj-365", 0 ]
				}

			}
, 			{
				"patchline" : 				{
					"destination" : [ "obj-369", 0 ],
					"disabled" : 0,
					"hidden" : 1,
					"source" : [ "obj-366", 0 ]
				}

			}
, 			{
				"patchline" : 				{
					"destination" : [ "obj-363", 7 ],
					"disabled" : 0,
					"hidden" : 1,
					"source" : [ "obj-367", 0 ]
				}

			}
, 			{
				"patchline" : 				{
					"destination" : [ "obj-363", 6 ],
					"disabled" : 0,
					"hidden" : 1,
					"midpoints" : [ 505.583374, 689.069336, 547.976257, 689.069336 ],
					"source" : [ "obj-368", 0 ]
				}

			}
, 			{
				"patchline" : 				{
					"destination" : [ "obj-363", 5 ],
					"disabled" : 0,
					"hidden" : 1,
					"midpoints" : [ 435.583374, 689.069336, 508.11908, 689.069336 ],
					"source" : [ "obj-369", 0 ]
				}

			}
, 			{
				"patchline" : 				{
					"destination" : [ "obj-363", 0 ],
					"disabled" : 0,
					"hidden" : 0,
					"source" : [ "obj-370", 0 ]
				}

			}
, 			{
				"patchline" : 				{
					"destination" : [ "obj-367", 0 ],
					"disabled" : 0,
					"hidden" : 0,
					"midpoints" : [ 550.666626, 628.735962, 550.333374, 628.735962, 550.333374, 655.735962, 567.583374, 655.735962 ],
					"source" : [ "obj-372", 0 ]
				}

			}
, 			{
				"patchline" : 				{
					"destination" : [ "obj-372", 0 ],
					"disabled" : 0,
					"hidden" : 0,
					"source" : [ "obj-373", 0 ]
				}

			}
, 			{
				"patchline" : 				{
					"destination" : [ "obj-369", 0 ],
					"disabled" : 0,
					"hidden" : 0,
					"midpoints" : [ 434.833374, 628.735962, 418.333374, 628.735962, 418.333374, 661.735962, 435.583374, 661.735962 ],
					"source" : [ "obj-374", 0 ]
				}

			}
, 			{
				"patchline" : 				{
					"destination" : [ "obj-374", 0 ],
					"disabled" : 0,
					"hidden" : 0,
					"source" : [ "obj-375", 0 ]
				}

			}
, 			{
				"patchline" : 				{
					"destination" : [ "obj-377", 0 ],
					"disabled" : 0,
					"hidden" : 0,
					"source" : [ "obj-376", 0 ]
				}

			}
, 			{
				"patchline" : 				{
					"destination" : [ "obj-373", 0 ],
					"disabled" : 0,
					"hidden" : 0,
					"midpoints" : [ 434.833374, 551.735962, 550.666626, 551.735962 ],
					"source" : [ "obj-377", 0 ]
				}

			}
, 			{
				"patchline" : 				{
					"destination" : [ "obj-375", 0 ],
					"disabled" : 0,
					"hidden" : 0,
					"source" : [ "obj-377", 0 ]
				}

			}
, 			{
				"patchline" : 				{
					"destination" : [ "obj-361", 0 ],
					"disabled" : 0,
					"hidden" : 0,
					"midpoints" : [ 271.833374, 667.735962, 209.833374, 667.735962 ],
					"source" : [ "obj-378", 0 ]
				}

			}
, 			{
				"patchline" : 				{
					"destination" : [ "obj-362", 0 ],
					"disabled" : 0,
					"hidden" : 0,
					"midpoints" : [ 271.833374, 667.735962, 182.833374, 667.735962 ],
					"source" : [ "obj-378", 0 ]
				}

			}
, 			{
				"patchline" : 				{
					"destination" : [ "obj-400", 0 ],
					"disabled" : 0,
					"hidden" : 0,
					"source" : [ "obj-379", 0 ]
				}

			}
, 			{
				"patchline" : 				{
					"destination" : [ "obj-379", 0 ],
					"disabled" : 0,
					"hidden" : 0,
					"midpoints" : [ 416.833374, 95.40271, 322.833374, 95.40271 ],
					"source" : [ "obj-380", 0 ]
				}

			}
, 			{
				"patchline" : 				{
					"destination" : [ "obj-380", 0 ],
					"disabled" : 0,
					"hidden" : 0,
					"midpoints" : [ 322.833374, 89.40271, 402.333374, 89.40271, 402.333374, 56.402649, 416.833374, 56.402649 ],
					"source" : [ "obj-381", 0 ]
				}

			}
, 			{
				"patchline" : 				{
					"destination" : [ "obj-391", 0 ],
					"disabled" : 0,
					"hidden" : 0,
					"midpoints" : [ 153.833496, 213.069214, 300.0, 213.069214, 300.0, 291.069214, 322.833374, 291.069214 ],
					"source" : [ "obj-382", 0 ]
				}

			}
, 			{
				"patchline" : 				{
					"destination" : [ "obj-400", 0 ],
					"disabled" : 0,
					"hidden" : 0,
					"midpoints" : [ 153.833496, 210.069214, 308.000122, 210.069214, 308.000122, 130.402588, 322.833374, 130.402588 ],
					"source" : [ "obj-382", 0 ]
				}

			}
, 			{
				"patchline" : 				{
					"destination" : [ "obj-382", 0 ],
					"disabled" : 0,
					"hidden" : 0,
					"midpoints" : [ 239.833496, 134.069214, 153.833496, 134.069214 ],
					"source" : [ "obj-383", 0 ]
				}

			}
, 			{
				"patchline" : 				{
					"destination" : [ "obj-385", 0 ],
					"disabled" : 0,
					"hidden" : 0,
					"midpoints" : [ 153.833496, 135.0, 174.333496, 135.0, 174.333496, 103.0, 192.833496, 103.0 ],
					"source" : [ "obj-384", 0 ]
				}

			}
, 			{
				"patchline" : 				{
					"destination" : [ "obj-383", 0 ],
					"disabled" : 0,
					"hidden" : 0,
					"midpoints" : [ 192.833496, 134.069214, 227.333496, 134.069214, 227.333496, 103.069214, 239.833496, 103.069214 ],
					"source" : [ "obj-385", 0 ]
				}

			}
, 			{
				"patchline" : 				{
					"destination" : [ "obj-392", 0 ],
					"disabled" : 0,
					"hidden" : 0,
					"source" : [ "obj-386", 0 ]
				}

			}
, 			{
				"patchline" : 				{
					"destination" : [ "obj-400", 0 ],
					"disabled" : 0,
					"hidden" : 0,
					"midpoints" : [ 485.833374, 128.402466, 323.083496, 128.402466, 323.083496, 134.402466, 322.833374, 134.402466 ],
					"source" : [ "obj-387", 0 ]
				}

			}
, 			{
				"patchline" : 				{
					"destination" : [ "obj-389", 1 ],
					"disabled" : 0,
					"hidden" : 0,
					"midpoints" : [ 369.833374, 441.333252, 123.666748, 441.333252 ],
					"source" : [ "obj-388", 0 ]
				}

			}
, 			{
				"patchline" : 				{
					"destination" : [ "obj-378", 0 ],
					"disabled" : 0,
					"hidden" : 0,
					"midpoints" : [ 113.166748, 508.0, 271.833374, 508.0 ],
					"source" : [ "obj-389", 0 ]
				}

			}
, 			{
				"patchline" : 				{
					"destination" : [ "obj-391", 0 ],
					"disabled" : 0,
					"hidden" : 0,
					"midpoints" : [ 485.833374, 290.402466, 322.833374, 290.402466 ],
					"source" : [ "obj-390", 0 ]
				}

			}
, 			{
				"patchline" : 				{
					"destination" : [ "obj-388", 0 ],
					"disabled" : 0,
					"hidden" : 0,
					"midpoints" : [ 372.212311, 411.069214, 369.833374, 411.069214 ],
					"source" : [ "obj-391", 1 ]
				}

			}
, 			{
				"patchline" : 				{
					"destination" : [ "obj-377", 1 ],
					"disabled" : 0,
					"hidden" : 0,
					"midpoints" : [ 113.166748, 210.069214, 300.0, 210.069214, 300.0, 510.069214, 411.0, 510.069214, 411.0, 519.069214, 449.833374, 519.069214 ],
					"source" : [ "obj-392", 0 ]
				}

			}
, 			{
				"patchline" : 				{
					"destination" : [ "obj-385", 1 ],
					"disabled" : 0,
					"hidden" : 0,
					"midpoints" : [ 113.166748, 200.069214, 88.666748, 200.069214, 88.666748, 92.069214, 207.833496, 92.069214 ],
					"source" : [ "obj-392", 0 ]
				}

			}
, 			{
				"patchline" : 				{
					"destination" : [ "obj-391", 0 ],
					"disabled" : 0,
					"hidden" : 0,
					"midpoints" : [ 113.166748, 210.73584, 309.0, 210.73584, 309.0, 248.402466, 322.833374, 248.402466 ],
					"source" : [ "obj-392", 0 ]
				}

			}
, 			{
				"patchline" : 				{
					"destination" : [ "obj-397", 0 ],
					"disabled" : 0,
					"hidden" : 0,
					"midpoints" : [ 113.166748, 210.402466, 162.833374, 210.402466 ],
					"source" : [ "obj-392", 0 ]
				}

			}
, 			{
				"patchline" : 				{
					"destination" : [ "obj-400", 0 ],
					"disabled" : 0,
					"hidden" : 0,
					"midpoints" : [ 113.166748, 210.73584, 307.666748, 210.73584, 307.666748, 129.73584, 322.833374, 129.73584 ],
					"source" : [ "obj-392", 0 ]
				}

			}
, 			{
				"patchline" : 				{
					"destination" : [ "obj-401", 0 ],
					"disabled" : 0,
					"hidden" : 0,
					"midpoints" : [ 113.166748, 219.666626, 113.166748, 219.666626 ],
					"source" : [ "obj-392", 0 ]
				}

			}
, 			{
				"patchline" : 				{
					"destination" : [ "obj-395", 1 ],
					"disabled" : 0,
					"hidden" : 0,
					"midpoints" : [ 250.333374, 348.402466, 173.333374, 348.402466 ],
					"source" : [ "obj-393", 0 ]
				}

			}
, 			{
				"patchline" : 				{
					"destination" : [ "obj-393", 1 ],
					"disabled" : 0,
					"hidden" : 0,
					"midpoints" : [ 260.833374, 294.402466, 260.833374, 294.402466 ],
					"source" : [ "obj-394", 0 ]
				}

			}
, 			{
				"patchline" : 				{
					"destination" : [ "obj-398", 1 ],
					"disabled" : 0,
					"hidden" : 0,
					"midpoints" : [ 162.833374, 376.333252, 139.166748, 376.333252 ],
					"source" : [ "obj-395", 0 ]
				}

			}
, 			{
				"patchline" : 				{
					"destination" : [ "obj-395", 0 ],
					"disabled" : 0,
					"hidden" : 0,
					"midpoints" : [ 162.833374, 342.402466, 162.833374, 342.402466 ],
					"source" : [ "obj-396", 0 ]
				}

			}
, 			{
				"patchline" : 				{
					"destination" : [ "obj-393", 0 ],
					"disabled" : 0,
					"hidden" : 0,
					"midpoints" : [ 162.833374, 307.069092, 250.333374, 307.069092 ],
					"source" : [ "obj-397", 0 ]
				}

			}
, 			{
				"patchline" : 				{
					"destination" : [ "obj-396", 0 ],
					"disabled" : 0,
					"hidden" : 0,
					"midpoints" : [ 162.833374, 300.402466, 162.833374, 300.402466 ],
					"source" : [ "obj-397", 0 ]
				}

			}
, 			{
				"patchline" : 				{
					"destination" : [ "obj-389", 0 ],
					"disabled" : 0,
					"hidden" : 0,
					"midpoints" : [ 113.166748, 422.333252, 113.166748, 422.333252 ],
					"source" : [ "obj-398", 0 ]
				}

			}
, 			{
				"patchline" : 				{
					"destination" : [ "obj-398", 0 ],
					"disabled" : 0,
					"hidden" : 0,
					"midpoints" : [ 113.166748, 363.333252, 113.166748, 363.333252 ],
					"source" : [ "obj-399", 0 ]
				}

			}
, 			{
				"patchline" : 				{
					"destination" : [ "obj-394", 0 ],
					"disabled" : 0,
					"hidden" : 0,
					"midpoints" : [ 366.545654, 251.069092, 260.833374, 251.069092 ],
					"source" : [ "obj-400", 1 ]
				}

			}
, 			{
				"patchline" : 				{
					"destination" : [ "obj-397", 0 ],
					"disabled" : 0,
					"hidden" : 0,
					"midpoints" : [ 113.166748, 265.333252, 162.833374, 265.333252 ],
					"source" : [ "obj-401", 0 ]
				}

			}
, 			{
				"patchline" : 				{
					"destination" : [ "obj-399", 0 ],
					"disabled" : 0,
					"hidden" : 0,
					"midpoints" : [ 113.166748, 261.333252, 113.166748, 261.333252 ],
					"source" : [ "obj-401", 0 ]
				}

			}
, 			{
				"patchline" : 				{
					"destination" : [ "obj-401", 0 ],
					"disabled" : 0,
					"hidden" : 0,
					"midpoints" : [ 187.5, 258.0, 168.0, 258.0, 168.0, 211.0, 113.166748, 211.0 ],
					"source" : [ "obj-5", 0 ]
				}

			}
, 			{
				"patchline" : 				{
					"destination" : [ "obj-1", 0 ],
					"disabled" : 0,
					"hidden" : 0,
					"midpoints" : [ 348.833374, 579.0, 336.0, 579.0, 336.0, 576.0, 308.833374, 576.0 ],
					"source" : [ "obj-8", 0 ]
				}

			}
 ],
		"styles" : [ 			{
				"name" : "newobjBlue-1",
				"default" : 				{
					"accentcolor" : [ 0.317647, 0.654902, 0.976471, 1.0 ]
				}
,
				"parentstyle" : "",
				"multi" : 0
			}
, 			{
				"name" : "newobjBrown-1",
				"default" : 				{
					"accentcolor" : [ 0.654902, 0.572549, 0.376471, 1.0 ]
				}
,
				"parentstyle" : "",
				"multi" : 0
			}
, 			{
				"name" : "newobjGreen-1",
				"default" : 				{
					"accentcolor" : [ 0.0, 0.533333, 0.168627, 1.0 ]
				}
,
				"parentstyle" : "",
				"multi" : 0
			}
, 			{
				"name" : "newobjYellow-1",
				"default" : 				{
					"fontsize" : [ 12.059008 ],
					"accentcolor" : [ 0.82517, 0.78181, 0.059545, 1.0 ]
				}
,
				"parentstyle" : "",
				"multi" : 0
			}
, 			{
				"name" : "numberGold-1",
				"default" : 				{
					"accentcolor" : [ 0.764706, 0.592157, 0.101961, 1.0 ]
				}
,
				"parentstyle" : "",
				"multi" : 0
			}
 ],
		"default_bgcolor" : [ 0.239216, 0.254902, 0.278431, 1.0 ],
		"color" : [ 0.0, 1.0, 0.854902, 1.0 ],
		"elementcolor" : [ 0.380896, 0.406538, 0.487159, 1.0 ],
		"accentcolor" : [ 0.32549, 0.345098, 0.372549, 1.0 ],
		"textcolor" : [ 0.0, 1.0, 0.854902, 1.0 ],
		"textcolor_inverse" : [ 0.0, 1.0, 0.854902, 1.0 ],
		"bgfillcolor_type" : "gradient",
		"bgfillcolor_color1" : [ 0.32549, 0.345098, 0.372549, 1.0 ],
		"bgfillcolor_color2" : [ 0.32549, 0.345098, 0.372549, 1.0 ],
		"bgfillcolor_color" : [ 0.290196, 0.309804, 0.301961, 1.0 ],
		"bgfillcolor_angle" : 270.0,
		"bgfillcolor_proportion" : 0.39
	}

}
