{
	"patcher" : 	{
		"fileversion" : 1,
		"appversion" : 		{
			"major" : 7,
			"minor" : 0,
			"revision" : 5,
			"architecture" : "x86",
			"modernui" : 1
		}
,
		"rect" : [ 5.0, 204.0, 148.0, 304.0 ],
		"bglocked" : 0,
		"openinpresentation" : 1,
		"default_fontsize" : 12.0,
		"default_fontface" : 0,
		"default_fontname" : "Arial",
		"gridonopen" : 1,
		"gridsize" : [ 15.0, 15.0 ],
		"gridsnaponopen" : 1,
		"objectsnaponopen" : 1,
		"statusbarvisible" : 2,
		"toolbarvisible" : 1,
		"lefttoolbarpinned" : 0,
		"toptoolbarpinned" : 0,
		"righttoolbarpinned" : 0,
		"bottomtoolbarpinned" : 0,
		"toolbars_unpinned_last_save" : 0,
		"tallnewobj" : 0,
		"boxanimatetime" : 200,
		"enablehscroll" : 1,
		"enablevscroll" : 1,
		"devicewidth" : 0.0,
		"description" : "",
		"digest" : "",
		"tags" : "",
		"style" : "",
		"subpatcher_template" : "",
		"boxes" : [ 			{
				"box" : 				{
					"bubble" : 1,
					"bubbleside" : 3,
					"id" : "obj-42",
					"linecount" : 6,
					"maxclass" : "comment",
					"numinlets" : 1,
					"numoutlets" : 0,
					"patching_rect" : [ 1.0, 248.0, 77.0, 91.0 ],
					"style" : "",
					"text" : "Settings are chained to the other channel ",
					"textcolor" : [ 0.0, 0.0, 0.0, 1.0 ]
				}

			}
, 			{
				"box" : 				{
					"bubble" : 1,
					"id" : "obj-39",
					"linecount" : 2,
					"maxclass" : "comment",
					"numinlets" : 1,
					"numoutlets" : 0,
					"patching_rect" : [ 202.0, 425.0, 150.0, 37.0 ],
					"style" : "",
					"text" : "Default Reverb settings for live performance ",
					"textcolor" : [ 0.0, 0.0, 0.0, 1.0 ]
				}

			}
, 			{
				"box" : 				{
					"bubble" : 1,
					"bubbleside" : 3,
					"id" : "obj-33",
					"linecount" : 3,
					"maxclass" : "comment",
					"numinlets" : 1,
					"numoutlets" : 0,
					"patching_rect" : [ 12.0, 178.5, 88.0, 51.0 ],
					"style" : "",
					"text" : "Stereo Input Gates for Reverb",
					"textcolor" : [ 0.0, 0.0, 0.0, 1.0 ]
				}

			}
, 			{
				"box" : 				{
					"bubble" : 1,
					"id" : "obj-31",
					"maxclass" : "comment",
					"numinlets" : 1,
					"numoutlets" : 0,
					"patching_rect" : [ 412.0, 195.0, 101.0, 24.0 ],
					"style" : "",
					"text" : "Bypass Gates",
					"textcolor" : [ 0.0, 0.0, 0.0, 1.0 ]
				}

			}
, 			{
				"box" : 				{
					"id" : "obj-28",
					"maxclass" : "comment",
					"numinlets" : 1,
					"numoutlets" : 0,
					"patching_rect" : [ 629.0, 377.0, 150.0, 20.0 ],
					"presentation" : 1,
					"presentation_rect" : [ 44.5, 11.0, 53.0, 20.0 ],
					"style" : "",
					"text" : "Reverb"
				}

			}
, 			{
				"box" : 				{
					"id" : "obj-2",
					"maxclass" : "newobj",
					"numinlets" : 1,
					"numoutlets" : 1,
					"outlettype" : [ "bang" ],
					"patching_rect" : [ 104.5, 113.0, 60.0, 22.0 ],
					"style" : "",
					"text" : "loadbang"
				}

			}
, 			{
				"box" : 				{
					"id" : "obj-27",
					"maxclass" : "newobj",
					"numinlets" : 1,
					"numoutlets" : 1,
					"outlettype" : [ "" ],
					"patching_rect" : [ 104.5, 476.0, 79.0, 22.0 ],
					"style" : "",
					"text" : "loadmess 84"
				}

			}
, 			{
				"box" : 				{
					"id" : "obj-26",
					"maxclass" : "newobj",
					"numinlets" : 1,
					"numoutlets" : 1,
					"outlettype" : [ "" ],
					"patching_rect" : [ 104.5, 446.0, 85.0, 22.0 ],
					"style" : "",
					"text" : "loadmess 108"
				}

			}
, 			{
				"box" : 				{
					"id" : "obj-25",
					"maxclass" : "newobj",
					"numinlets" : 1,
					"numoutlets" : 1,
					"outlettype" : [ "" ],
					"patching_rect" : [ 104.5, 417.0, 85.0, 22.0 ],
					"style" : "",
					"text" : "loadmess 200"
				}

			}
, 			{
				"box" : 				{
					"id" : "obj-6",
					"maxclass" : "newobj",
					"numinlets" : 1,
					"numoutlets" : 1,
					"outlettype" : [ "" ],
					"patching_rect" : [ 104.5, 387.0, 79.0, 22.0 ],
					"style" : "",
					"text" : "loadmess 98"
				}

			}
, 			{
				"box" : 				{
					"id" : "obj-49",
					"maxclass" : "comment",
					"numinlets" : 1,
					"numoutlets" : 0,
					"patching_rect" : [ 638.0, 341.0, 58.0, 20.0 ],
					"presentation" : 1,
					"presentation_rect" : [ 77.0, 188.0, 56.0, 20.0 ],
					"style" : "",
					"text" : "Defusion"
				}

			}
, 			{
				"box" : 				{
					"id" : "obj-47",
					"maxclass" : "comment",
					"numinlets" : 1,
					"numoutlets" : 0,
					"patching_rect" : [ 638.0, 319.0, 58.0, 20.0 ],
					"presentation" : 1,
					"presentation_rect" : [ 12.5, 188.0, 58.0, 20.0 ],
					"style" : "",
					"text" : "Damping"
				}

			}
, 			{
				"box" : 				{
					"id" : "obj-45",
					"maxclass" : "comment",
					"numinlets" : 1,
					"numoutlets" : 0,
					"patching_rect" : [ 638.0, 297.0, 58.0, 20.0 ],
					"presentation" : 1,
					"presentation_rect" : [ 77.0, 137.0, 50.0, 20.0 ],
					"style" : "",
					"text" : "Decay"
				}

			}
, 			{
				"box" : 				{
					"id" : "obj-43",
					"maxclass" : "comment",
					"numinlets" : 1,
					"numoutlets" : 0,
					"patching_rect" : [ 638.0, 275.0, 58.0, 20.0 ],
					"presentation" : 1,
					"presentation_rect" : [ 12.5, 137.0, 58.0, 20.0 ],
					"style" : "",
					"text" : "Size"
				}

			}
, 			{
				"box" : 				{
					"id" : "obj-41",
					"maxclass" : "comment",
					"numinlets" : 1,
					"numoutlets" : 0,
					"patching_rect" : [ 629.0, 212.0, 150.0, 20.0 ],
					"presentation" : 1,
					"presentation_rect" : [ 71.0, 251.0, 56.0, 20.0 ],
					"style" : "",
					"text" : "Pre/Post"
				}

			}
, 			{
				"box" : 				{
					"id" : "obj-38",
					"maxclass" : "comment",
					"numinlets" : 1,
					"numoutlets" : 0,
					"patching_rect" : [ 629.0, 239.0, 150.0, 20.0 ],
					"presentation" : 1,
					"presentation_rect" : [ 77.0, 65.0, 56.0, 20.0 ],
					"style" : "",
					"text" : "ON/OFF"
				}

			}
, 			{
				"box" : 				{
					"id" : "obj-34",
					"maxclass" : "newobj",
					"numinlets" : 2,
					"numoutlets" : 1,
					"outlettype" : [ "signal" ],
					"patching_rect" : [ 151.5, 193.0, 41.0, 22.0 ],
					"style" : "",
					"text" : "gate~"
				}

			}
, 			{
				"box" : 				{
					"id" : "obj-35",
					"maxclass" : "toggle",
					"numinlets" : 1,
					"numoutlets" : 1,
					"outlettype" : [ "int" ],
					"parameter_enable" : 0,
					"patching_rect" : [ 104.5, 155.0, 24.0, 24.0 ],
					"presentation" : 1,
					"presentation_rect" : [ 12.5, 236.0, 50.0, 50.0 ],
					"style" : ""
				}

			}
, 			{
				"box" : 				{
					"id" : "obj-36",
					"maxclass" : "newobj",
					"numinlets" : 2,
					"numoutlets" : 1,
					"outlettype" : [ "signal" ],
					"patching_rect" : [ 104.5, 193.0, 41.0, 22.0 ],
					"style" : "",
					"text" : "gate~"
				}

			}
, 			{
				"box" : 				{
					"comment" : "",
					"id" : "obj-30",
					"maxclass" : "outlet",
					"numinlets" : 1,
					"numoutlets" : 0,
					"patching_rect" : [ 330.0, 355.0, 30.0, 30.0 ],
					"style" : ""
				}

			}
, 			{
				"box" : 				{
					"comment" : "",
					"id" : "obj-29",
					"maxclass" : "outlet",
					"numinlets" : 1,
					"numoutlets" : 0,
					"patching_rect" : [ 222.0, 355.0, 30.0, 30.0 ],
					"style" : ""
				}

			}
, 			{
				"box" : 				{
					"id" : "obj-13",
					"maxclass" : "newobj",
					"numinlets" : 1,
					"numoutlets" : 1,
					"outlettype" : [ "bang" ],
					"patching_rect" : [ 380.30011, 159.0, 60.0, 22.0 ],
					"style" : "",
					"text" : "loadbang"
				}

			}
, 			{
				"box" : 				{
					"id" : "obj-19",
					"maxclass" : "newobj",
					"numinlets" : 2,
					"numoutlets" : 1,
					"outlettype" : [ "signal" ],
					"patching_rect" : [ 249.0, 195.0, 41.0, 22.0 ],
					"style" : "",
					"text" : "gate~"
				}

			}
, 			{
				"box" : 				{
					"id" : "obj-20",
					"maxclass" : "toggle",
					"numinlets" : 1,
					"numoutlets" : 1,
					"outlettype" : [ "int" ],
					"parameter_enable" : 0,
					"patching_rect" : [ 202.0, 157.0, 24.0, 24.0 ],
					"presentation" : 1,
					"presentation_rect" : [ 12.5, 44.0, 62.0, 62.0 ],
					"style" : ""
				}

			}
, 			{
				"box" : 				{
					"id" : "obj-21",
					"maxclass" : "newobj",
					"numinlets" : 2,
					"numoutlets" : 1,
					"outlettype" : [ "signal" ],
					"patching_rect" : [ 202.0, 195.0, 41.0, 22.0 ],
					"style" : "",
					"text" : "gate~"
				}

			}
, 			{
				"box" : 				{
					"id" : "obj-22",
					"maxclass" : "button",
					"numinlets" : 1,
					"numoutlets" : 1,
					"outlettype" : [ "bang" ],
					"patching_rect" : [ 262.0, 157.0, 24.0, 24.0 ],
					"style" : ""
				}

			}
, 			{
				"box" : 				{
					"id" : "obj-23",
					"maxclass" : "newobj",
					"numinlets" : 2,
					"numoutlets" : 1,
					"outlettype" : [ "signal" ],
					"patching_rect" : [ 366.0, 195.0, 41.0, 22.0 ],
					"style" : "",
					"text" : "gate~"
				}

			}
, 			{
				"box" : 				{
					"id" : "obj-24",
					"maxclass" : "toggle",
					"numinlets" : 1,
					"numoutlets" : 1,
					"outlettype" : [ "int" ],
					"parameter_enable" : 0,
					"patching_rect" : [ 319.0, 157.0, 24.0, 24.0 ],
					"style" : ""
				}

			}
, 			{
				"box" : 				{
					"id" : "obj-5",
					"maxclass" : "newobj",
					"numinlets" : 2,
					"numoutlets" : 1,
					"outlettype" : [ "signal" ],
					"patching_rect" : [ 319.0, 195.0, 41.0, 22.0 ],
					"style" : "",
					"text" : "gate~"
				}

			}
, 			{
				"box" : 				{
					"comment" : "",
					"id" : "obj-9",
					"maxclass" : "inlet",
					"numinlets" : 0,
					"numoutlets" : 1,
					"outlettype" : [ "signal" ],
					"patching_rect" : [ 288.0, 113.0, 30.0, 30.0 ],
					"style" : ""
				}

			}
, 			{
				"box" : 				{
					"comment" : "",
					"id" : "obj-7",
					"maxclass" : "inlet",
					"numinlets" : 0,
					"numoutlets" : 1,
					"outlettype" : [ "signal" ],
					"patching_rect" : [ 226.0, 113.0, 30.0, 30.0 ],
					"style" : ""
				}

			}
, 			{
				"box" : 				{
					"id" : "obj-15",
					"maxclass" : "number",
					"numinlets" : 1,
					"numoutlets" : 2,
					"outlettype" : [ "", "bang" ],
					"parameter_enable" : 0,
					"patching_rect" : [ 428.5, 267.0, 50.0, 22.0 ],
					"style" : ""
				}

			}
, 			{
				"box" : 				{
					"id" : "obj-16",
					"maxclass" : "number",
					"numinlets" : 1,
					"numoutlets" : 2,
					"outlettype" : [ "", "bang" ],
					"parameter_enable" : 0,
					"patching_rect" : [ 359.5, 298.0, 50.0, 22.0 ],
					"style" : ""
				}

			}
, 			{
				"box" : 				{
					"id" : "obj-17",
					"maxclass" : "number",
					"numinlets" : 1,
					"numoutlets" : 2,
					"outlettype" : [ "", "bang" ],
					"parameter_enable" : 0,
					"patching_rect" : [ 428.5, 298.0, 50.0, 22.0 ],
					"style" : ""
				}

			}
, 			{
				"box" : 				{
					"id" : "obj-18",
					"maxclass" : "number",
					"numinlets" : 1,
					"numoutlets" : 2,
					"outlettype" : [ "", "bang" ],
					"parameter_enable" : 0,
					"patching_rect" : [ 359.5, 267.0, 50.0, 22.0 ],
					"style" : ""
				}

			}
, 			{
				"box" : 				{
					"id" : "obj-14",
					"maxclass" : "number",
					"numinlets" : 1,
					"numoutlets" : 2,
					"outlettype" : [ "", "bang" ],
					"parameter_enable" : 0,
					"patching_rect" : [ 160.5, 267.0, 50.0, 22.0 ],
					"presentation" : 1,
					"presentation_rect" : [ 77.0, 113.0, 50.0, 22.0 ],
					"style" : ""
				}

			}
, 			{
				"box" : 				{
					"id" : "obj-12",
					"maxclass" : "number",
					"numinlets" : 1,
					"numoutlets" : 2,
					"outlettype" : [ "", "bang" ],
					"parameter_enable" : 0,
					"patching_rect" : [ 91.5, 298.0, 50.0, 22.0 ],
					"presentation" : 1,
					"presentation_rect" : [ 12.5, 164.0, 50.0, 22.0 ],
					"style" : ""
				}

			}
, 			{
				"box" : 				{
					"id" : "obj-10",
					"maxclass" : "number",
					"numinlets" : 1,
					"numoutlets" : 2,
					"outlettype" : [ "", "bang" ],
					"parameter_enable" : 0,
					"patching_rect" : [ 160.5, 298.0, 50.0, 22.0 ],
					"presentation" : 1,
					"presentation_rect" : [ 77.0, 164.0, 50.0, 22.0 ],
					"style" : ""
				}

			}
, 			{
				"box" : 				{
					"id" : "obj-8",
					"maxclass" : "number",
					"numinlets" : 1,
					"numoutlets" : 2,
					"outlettype" : [ "", "bang" ],
					"parameter_enable" : 0,
					"patching_rect" : [ 91.5, 267.0, 50.0, 22.0 ],
					"presentation" : 1,
					"presentation_rect" : [ 12.5, 113.0, 50.0, 22.0 ],
					"style" : ""
				}

			}
, 			{
				"box" : 				{
					"id" : "obj-4",
					"maxclass" : "newobj",
					"numinlets" : 5,
					"numoutlets" : 2,
					"outlettype" : [ "signal", "signal" ],
					"patching_rect" : [ 288.0, 267.0, 61.0, 22.0 ],
					"style" : "",
					"text" : "yafr2"
				}

			}
, 			{
				"box" : 				{
					"id" : "obj-1",
					"maxclass" : "newobj",
					"numinlets" : 5,
					"numoutlets" : 2,
					"outlettype" : [ "signal", "signal" ],
					"patching_rect" : [ 222.0, 267.0, 61.0, 22.0 ],
					"style" : "",
					"text" : "yafr2"
				}

			}
, 			{
				"box" : 				{
					"background" : 1,
					"id" : "obj-50",
					"maxclass" : "panel",
					"numinlets" : 1,
					"numoutlets" : 0,
					"patching_rect" : [ 629.0, 68.0, 128.0, 128.0 ],
					"presentation" : 1,
					"presentation_rect" : [ 3.5, 5.0, 136.5, 285.0 ],
					"style" : ""
				}

			}
 ],
		"lines" : [ 			{
				"patchline" : 				{
					"destination" : [ "obj-29", 0 ],
					"disabled" : 0,
					"hidden" : 0,
					"source" : [ "obj-1", 0 ]
				}

			}
, 			{
				"patchline" : 				{
					"destination" : [ "obj-1", 4 ],
					"disabled" : 0,
					"hidden" : 0,
					"midpoints" : [ 170.0, 330.0, 285.0, 330.0, 285.0, 264.0, 273.5, 264.0 ],
					"source" : [ "obj-10", 0 ]
				}

			}
, 			{
				"patchline" : 				{
					"destination" : [ "obj-17", 0 ],
					"disabled" : 0,
					"hidden" : 0,
					"midpoints" : [ 170.0, 330.0, 423.0, 330.0, 423.0, 294.0, 438.0, 294.0 ],
					"source" : [ "obj-10", 0 ]
				}

			}
, 			{
				"patchline" : 				{
					"destination" : [ "obj-1", 3 ],
					"disabled" : 0,
					"hidden" : 0,
					"midpoints" : [ 101.0, 321.0, 78.0, 321.0, 78.0, 252.0, 263.0, 252.0 ],
					"source" : [ "obj-12", 0 ]
				}

			}
, 			{
				"patchline" : 				{
					"destination" : [ "obj-16", 0 ],
					"disabled" : 0,
					"hidden" : 0,
					"midpoints" : [ 101.0, 330.0, 345.0, 330.0, 345.0, 294.0, 369.0, 294.0 ],
					"source" : [ "obj-12", 0 ]
				}

			}
, 			{
				"patchline" : 				{
					"destination" : [ "obj-24", 0 ],
					"disabled" : 0,
					"hidden" : 0,
					"midpoints" : [ 389.80011, 184.0, 345.0, 184.0, 345.0, 154.0, 328.5, 154.0 ],
					"source" : [ "obj-13", 0 ]
				}

			}
, 			{
				"patchline" : 				{
					"destination" : [ "obj-1", 2 ],
					"disabled" : 0,
					"hidden" : 0,
					"midpoints" : [ 170.0, 291.0, 156.0, 291.0, 156.0, 252.0, 252.5, 252.0 ],
					"source" : [ "obj-14", 0 ]
				}

			}
, 			{
				"patchline" : 				{
					"destination" : [ "obj-15", 0 ],
					"disabled" : 0,
					"hidden" : 0,
					"midpoints" : [ 170.0, 291.0, 156.0, 291.0, 156.0, 252.0, 438.0, 252.0 ],
					"source" : [ "obj-14", 0 ]
				}

			}
, 			{
				"patchline" : 				{
					"destination" : [ "obj-4", 2 ],
					"disabled" : 0,
					"hidden" : 0,
					"midpoints" : [ 438.0, 291.0, 411.0, 291.0, 411.0, 252.0, 318.5, 252.0 ],
					"source" : [ "obj-15", 0 ]
				}

			}
, 			{
				"patchline" : 				{
					"destination" : [ "obj-4", 3 ],
					"disabled" : 0,
					"hidden" : 0,
					"midpoints" : [ 369.0, 321.0, 351.0, 321.0, 351.0, 264.0, 329.0, 264.0 ],
					"source" : [ "obj-16", 0 ]
				}

			}
, 			{
				"patchline" : 				{
					"destination" : [ "obj-4", 4 ],
					"disabled" : 0,
					"hidden" : 0,
					"midpoints" : [ 438.0, 330.0, 345.0, 330.0, 345.0, 291.0, 351.0, 291.0, 351.0, 264.0, 339.5, 264.0 ],
					"source" : [ "obj-17", 0 ]
				}

			}
, 			{
				"patchline" : 				{
					"destination" : [ "obj-4", 1 ],
					"disabled" : 0,
					"hidden" : 0,
					"midpoints" : [ 369.0, 291.0, 351.0, 291.0, 351.0, 252.0, 308.0, 252.0 ],
					"source" : [ "obj-18", 0 ]
				}

			}
, 			{
				"patchline" : 				{
					"destination" : [ "obj-34", 1 ],
					"disabled" : 0,
					"hidden" : 0,
					"midpoints" : [ 258.5, 228.0, 192.0, 228.0, 192.0, 189.0, 183.0, 189.0 ],
					"source" : [ "obj-19", 0 ]
				}

			}
, 			{
				"patchline" : 				{
					"destination" : [ "obj-4", 0 ],
					"disabled" : 0,
					"hidden" : 0,
					"midpoints" : [ 258.5, 252.0, 297.5, 252.0 ],
					"source" : [ "obj-19", 0 ]
				}

			}
, 			{
				"patchline" : 				{
					"destination" : [ "obj-20", 0 ],
					"disabled" : 0,
					"hidden" : 0,
					"midpoints" : [ 114.0, 147.0, 207.0, 147.0, 207.0, 153.0, 211.5, 153.0 ],
					"source" : [ "obj-2", 0 ]
				}

			}
, 			{
				"patchline" : 				{
					"destination" : [ "obj-35", 0 ],
					"disabled" : 0,
					"hidden" : 0,
					"source" : [ "obj-2", 0 ]
				}

			}
, 			{
				"patchline" : 				{
					"destination" : [ "obj-19", 0 ],
					"disabled" : 0,
					"hidden" : 0,
					"midpoints" : [ 211.5, 190.0, 258.5, 190.0 ],
					"source" : [ "obj-20", 0 ]
				}

			}
, 			{
				"patchline" : 				{
					"destination" : [ "obj-21", 0 ],
					"disabled" : 0,
					"hidden" : 0,
					"source" : [ "obj-20", 0 ]
				}

			}
, 			{
				"patchline" : 				{
					"destination" : [ "obj-22", 0 ],
					"disabled" : 0,
					"hidden" : 0,
					"midpoints" : [ 211.5, 190.0, 233.0, 190.0, 233.0, 153.0, 271.5, 153.0 ],
					"source" : [ "obj-20", 0 ]
				}

			}
, 			{
				"patchline" : 				{
					"destination" : [ "obj-1", 0 ],
					"disabled" : 0,
					"hidden" : 0,
					"midpoints" : [ 211.5, 252.0, 231.5, 252.0 ],
					"source" : [ "obj-21", 0 ]
				}

			}
, 			{
				"patchline" : 				{
					"destination" : [ "obj-36", 1 ],
					"disabled" : 0,
					"hidden" : 0,
					"midpoints" : [ 211.5, 228.0, 147.0, 228.0, 147.0, 189.0, 136.0, 189.0 ],
					"source" : [ "obj-21", 0 ]
				}

			}
, 			{
				"patchline" : 				{
					"destination" : [ "obj-24", 0 ],
					"disabled" : 0,
					"hidden" : 0,
					"midpoints" : [ 271.5, 184.0, 297.0, 184.0, 297.0, 151.0, 328.5, 151.0 ],
					"source" : [ "obj-22", 0 ]
				}

			}
, 			{
				"patchline" : 				{
					"destination" : [ "obj-30", 0 ],
					"disabled" : 0,
					"hidden" : 0,
					"midpoints" : [ 375.5, 252.0, 351.0, 252.0, 351.0, 300.0, 339.5, 300.0 ],
					"source" : [ "obj-23", 0 ]
				}

			}
, 			{
				"patchline" : 				{
					"destination" : [ "obj-23", 0 ],
					"disabled" : 0,
					"hidden" : 0,
					"midpoints" : [ 328.5, 190.0, 375.5, 190.0 ],
					"source" : [ "obj-24", 0 ]
				}

			}
, 			{
				"patchline" : 				{
					"destination" : [ "obj-5", 0 ],
					"disabled" : 0,
					"hidden" : 0,
					"source" : [ "obj-24", 0 ]
				}

			}
, 			{
				"patchline" : 				{
					"destination" : [ "obj-14", 0 ],
					"disabled" : 0,
					"hidden" : 0,
					"midpoints" : [ 114.0, 441.0, 78.0, 441.0, 78.0, 252.0, 170.0, 252.0 ],
					"source" : [ "obj-25", 0 ]
				}

			}
, 			{
				"patchline" : 				{
					"destination" : [ "obj-12", 0 ],
					"disabled" : 0,
					"hidden" : 0,
					"midpoints" : [ 114.0, 471.0, 78.0, 471.0, 78.0, 294.0, 101.0, 294.0 ],
					"source" : [ "obj-26", 0 ]
				}

			}
, 			{
				"patchline" : 				{
					"destination" : [ "obj-10", 0 ],
					"disabled" : 0,
					"hidden" : 0,
					"midpoints" : [ 114.0, 501.0, 90.0, 501.0, 90.0, 330.0, 156.0, 330.0, 156.0, 294.0, 170.0, 294.0 ],
					"source" : [ "obj-27", 0 ]
				}

			}
, 			{
				"patchline" : 				{
					"destination" : [ "obj-30", 0 ],
					"disabled" : 0,
					"hidden" : 0,
					"midpoints" : [ 161.0, 252.0, 285.0, 252.0, 285.0, 342.0, 339.5, 342.0 ],
					"source" : [ "obj-34", 0 ]
				}

			}
, 			{
				"patchline" : 				{
					"destination" : [ "obj-34", 0 ],
					"disabled" : 0,
					"hidden" : 0,
					"midpoints" : [ 114.0, 188.0, 161.0, 188.0 ],
					"source" : [ "obj-35", 0 ]
				}

			}
, 			{
				"patchline" : 				{
					"destination" : [ "obj-36", 0 ],
					"disabled" : 0,
					"hidden" : 0,
					"source" : [ "obj-35", 0 ]
				}

			}
, 			{
				"patchline" : 				{
					"destination" : [ "obj-29", 0 ],
					"disabled" : 0,
					"hidden" : 0,
					"midpoints" : [ 114.0, 252.0, 219.0, 252.0, 219.0, 300.0, 231.5, 300.0 ],
					"source" : [ "obj-36", 0 ]
				}

			}
, 			{
				"patchline" : 				{
					"destination" : [ "obj-30", 0 ],
					"disabled" : 0,
					"hidden" : 0,
					"midpoints" : [ 339.5, 291.0, 339.5, 291.0 ],
					"source" : [ "obj-4", 1 ]
				}

			}
, 			{
				"patchline" : 				{
					"destination" : [ "obj-29", 0 ],
					"disabled" : 0,
					"hidden" : 0,
					"midpoints" : [ 328.5, 252.0, 285.0, 252.0, 285.0, 342.0, 231.5, 342.0 ],
					"source" : [ "obj-5", 0 ]
				}

			}
, 			{
				"patchline" : 				{
					"destination" : [ "obj-8", 0 ],
					"disabled" : 0,
					"hidden" : 0,
					"midpoints" : [ 114.0, 411.0, 78.0, 411.0, 78.0, 261.0, 101.0, 261.0 ],
					"source" : [ "obj-6", 0 ]
				}

			}
, 			{
				"patchline" : 				{
					"destination" : [ "obj-21", 1 ],
					"disabled" : 0,
					"hidden" : 0,
					"midpoints" : [ 235.5, 144.0, 233.5, 144.0 ],
					"source" : [ "obj-7", 0 ]
				}

			}
, 			{
				"patchline" : 				{
					"destination" : [ "obj-5", 1 ],
					"disabled" : 0,
					"hidden" : 0,
					"midpoints" : [ 235.5, 153.0, 298.0, 153.0, 298.0, 189.0, 350.5, 189.0 ],
					"source" : [ "obj-7", 0 ]
				}

			}
, 			{
				"patchline" : 				{
					"destination" : [ "obj-1", 1 ],
					"disabled" : 0,
					"hidden" : 0,
					"midpoints" : [ 101.0, 291.0, 78.0, 291.0, 78.0, 252.0, 242.0, 252.0 ],
					"source" : [ "obj-8", 0 ]
				}

			}
, 			{
				"patchline" : 				{
					"destination" : [ "obj-18", 0 ],
					"disabled" : 0,
					"hidden" : 0,
					"midpoints" : [ 101.0, 291.0, 78.0, 291.0, 78.0, 252.0, 369.0, 252.0 ],
					"source" : [ "obj-8", 0 ]
				}

			}
, 			{
				"patchline" : 				{
					"destination" : [ "obj-19", 1 ],
					"disabled" : 0,
					"hidden" : 0,
					"midpoints" : [ 297.5, 185.0, 280.5, 185.0 ],
					"source" : [ "obj-9", 0 ]
				}

			}
, 			{
				"patchline" : 				{
					"destination" : [ "obj-23", 1 ],
					"disabled" : 0,
					"hidden" : 0,
					"midpoints" : [ 297.5, 187.0, 306.0, 187.0, 306.0, 189.0, 397.5, 189.0 ],
					"source" : [ "obj-9", 0 ]
				}

			}
 ],
		"styles" : [ 			{
				"name" : "Tech",
				"default" : 				{
					"fontname" : [ "Lucida Console" ],
					"textcolor_inverse" : [ 0.0, 1.0, 0.0, 1.0 ],
					"bgfillcolor" : 					{
						"type" : "color",
						"color" : [ 0.290196, 0.309804, 0.301961, 0.0 ],
						"color1" : [ 0.376471, 0.384314, 0.4, 0.0 ],
						"color2" : [ 0.290196, 0.309804, 0.301961, 1.0 ],
						"angle" : 270.0,
						"proportion" : 0.39,
						"autogradient" : 0
					}
,
					"fontface" : [ 1 ],
					"fontsize" : [ 18.0 ],
					"textjustification" : [ 1 ]
				}
,
				"parentstyle" : "",
				"multi" : 0
			}
, 			{
				"name" : "Tech1",
				"default" : 				{
					"fontname" : [ "Lucida Console" ],
					"textcolor_inverse" : [ 0.0, 1.0, 0.0, 1.0 ],
					"bgfillcolor" : 					{
						"type" : "color",
						"color" : [ 0.290196, 0.309804, 0.301961, 0.0 ],
						"color1" : [ 0.376471, 0.384314, 0.4, 1.0 ],
						"color2" : [ 0.290196, 0.309804, 0.301961, 1.0 ],
						"angle" : 270.0,
						"proportion" : 0.39,
						"autogradient" : 0
					}
,
					"fontface" : [ 1 ],
					"fontsize" : [ 12.0 ],
					"textjustification" : [ 1 ]
				}
,
				"parentstyle" : "Tech",
				"multi" : 0
			}
, 			{
				"name" : "Tech2",
				"default" : 				{
					"fontname" : [ "Lucida Console" ],
					"textcolor_inverse" : [ 0.0, 1.0, 0.0, 1.0 ],
					"bgfillcolor" : 					{
						"type" : "color",
						"color" : [ 0.290196, 0.309804, 0.301961, 0.0 ],
						"color1" : [ 0.376471, 0.384314, 0.4, 0.0 ],
						"color2" : [ 0.290196, 0.309804, 0.301961, 1.0 ],
						"angle" : 270.0,
						"proportion" : 0.39,
						"autogradient" : 0
					}
,
					"fontface" : [ 3 ],
					"fontsize" : [ 36.0 ],
					"textjustification" : [ 1 ]
				}
,
				"parentstyle" : "Tech",
				"multi" : 0
			}
, 			{
				"name" : "Tech4",
				"default" : 				{
					"fontname" : [ "Lucida Console" ],
					"textcolor_inverse" : [ 0.0, 0.0, 0.0, 1.0 ],
					"bgfillcolor" : 					{
						"type" : "color",
						"color" : [ 0.0, 1.0, 0.6, 0.0 ],
						"color1" : [ 0.376471, 0.384314, 0.4, 0.0 ],
						"color2" : [ 0.290196, 0.309804, 0.301961, 1.0 ],
						"angle" : 270.0,
						"proportion" : 0.39,
						"autogradient" : 0.0
					}
,
					"fontface" : [ 1 ],
					"fontsize" : [ 72.0 ],
					"textjustification" : [ 1 ]
				}
,
				"parentstyle" : "Tech",
				"multi" : 0
			}
, 			{
				"name" : "message004",
				"default" : 				{
					"fontsize" : [ 48.0 ],
					"textjustification" : [ 1 ]
				}
,
				"parentstyle" : "Tech1",
				"multi" : 0
			}
, 			{
				"name" : "message005",
				"default" : 				{
					"fontname" : [ "Lucida Console" ],
					"textcolor_inverse" : [ 0.0, 1.0, 0.0, 1.0 ],
					"bgfillcolor" : 					{
						"type" : "color",
						"color" : [ 0.290196, 0.309804, 0.301961, 0.0 ],
						"color1" : [ 0.376471, 0.384314, 0.4, 0.0 ],
						"color2" : [ 0.290196, 0.309804, 0.301961, 1.0 ],
						"angle" : 270.0,
						"proportion" : 0.39,
						"autogradient" : 0
					}
,
					"fontface" : [ 1 ]
				}
,
				"parentstyle" : "message004",
				"multi" : 0
			}
 ],
		"default_bgcolor" : [ 0.239216, 0.254902, 0.278431, 1.0 ],
		"color" : [ 0.0, 1.0, 0.854902, 1.0 ],
		"elementcolor" : [ 0.380896, 0.406538, 0.487159, 1.0 ],
		"accentcolor" : [ 0.32549, 0.345098, 0.372549, 1.0 ],
		"textcolor" : [ 0.0, 1.0, 0.854902, 1.0 ],
		"textcolor_inverse" : [ 0.0, 1.0, 0.854902, 1.0 ],
		"bgfillcolor_type" : "gradient",
		"bgfillcolor_color1" : [ 0.32549, 0.345098, 0.372549, 1.0 ],
		"bgfillcolor_color2" : [ 0.32549, 0.345098, 0.372549, 1.0 ],
		"bgfillcolor_color" : [ 0.290196, 0.309804, 0.301961, 1.0 ],
		"bgfillcolor_angle" : 270.0,
		"bgfillcolor_proportion" : 0.39
	}

}
