{
	"patcher" : 	{
		"fileversion" : 1,
		"appversion" : 		{
			"major" : 7,
			"minor" : 0,
			"revision" : 5,
			"architecture" : "x86",
			"modernui" : 1
		}
,
		"rect" : [ 34.0, 79.0, 912.0, 635.0 ],
		"bglocked" : 0,
		"openinpresentation" : 1,
		"default_fontsize" : 12.0,
		"default_fontface" : 0,
		"default_fontname" : "Arial",
		"gridonopen" : 1,
		"gridsize" : [ 15.0, 15.0 ],
		"gridsnaponopen" : 1,
		"objectsnaponopen" : 1,
		"statusbarvisible" : 2,
		"toolbarvisible" : 1,
		"lefttoolbarpinned" : 0,
		"toptoolbarpinned" : 0,
		"righttoolbarpinned" : 0,
		"bottomtoolbarpinned" : 0,
		"toolbars_unpinned_last_save" : 0,
		"tallnewobj" : 0,
		"boxanimatetime" : 200,
		"enablehscroll" : 1,
		"enablevscroll" : 1,
		"devicewidth" : 0.0,
		"description" : "",
		"digest" : "",
		"tags" : "",
		"style" : "",
		"subpatcher_template" : "",
		"boxes" : [ 			{
				"box" : 				{
					"id" : "obj-86",
					"maxclass" : "message",
					"numinlets" : 2,
					"numoutlets" : 1,
					"outlettype" : [ "" ],
					"patching_rect" : [ 798.08313, 565.0, 29.5, 22.0 ],
					"style" : "",
					"text" : "32"
				}

			}
, 			{
				"box" : 				{
					"id" : "obj-84",
					"maxclass" : "message",
					"numinlets" : 2,
					"numoutlets" : 1,
					"outlettype" : [ "" ],
					"patching_rect" : [ 753.083374, 565.0, 29.5, 22.0 ],
					"style" : "",
					"text" : "31"
				}

			}
, 			{
				"box" : 				{
					"id" : "obj-82",
					"maxclass" : "message",
					"numinlets" : 2,
					"numoutlets" : 1,
					"outlettype" : [ "" ],
					"patching_rect" : [ 706.416626, 565.0, 29.5, 22.0 ],
					"style" : "",
					"text" : "30"
				}

			}
, 			{
				"box" : 				{
					"id" : "obj-80",
					"maxclass" : "message",
					"numinlets" : 2,
					"numoutlets" : 1,
					"outlettype" : [ "" ],
					"patching_rect" : [ 663.749878, 565.0, 29.5, 22.0 ],
					"style" : "",
					"text" : "29"
				}

			}
, 			{
				"box" : 				{
					"id" : "obj-78",
					"maxclass" : "message",
					"numinlets" : 2,
					"numoutlets" : 1,
					"outlettype" : [ "" ],
					"patching_rect" : [ 621.33313, 565.0, 29.5, 22.0 ],
					"style" : "",
					"text" : "28"
				}

			}
, 			{
				"box" : 				{
					"id" : "obj-76",
					"maxclass" : "message",
					"numinlets" : 2,
					"numoutlets" : 1,
					"outlettype" : [ "" ],
					"patching_rect" : [ 576.333374, 565.0, 29.5, 22.0 ],
					"style" : "",
					"text" : "27"
				}

			}
, 			{
				"box" : 				{
					"id" : "obj-74",
					"maxclass" : "message",
					"numinlets" : 2,
					"numoutlets" : 1,
					"outlettype" : [ "" ],
					"patching_rect" : [ 529.666626, 565.0, 29.5, 22.0 ],
					"style" : "",
					"text" : "26"
				}

			}
, 			{
				"box" : 				{
					"id" : "obj-72",
					"maxclass" : "message",
					"numinlets" : 2,
					"numoutlets" : 1,
					"outlettype" : [ "" ],
					"patching_rect" : [ 486.999878, 565.0, 29.5, 22.0 ],
					"style" : "",
					"text" : "25"
				}

			}
, 			{
				"box" : 				{
					"id" : "obj-70",
					"maxclass" : "message",
					"numinlets" : 2,
					"numoutlets" : 1,
					"outlettype" : [ "" ],
					"patching_rect" : [ 449.749878, 565.0, 29.5, 22.0 ],
					"style" : "",
					"text" : "24"
				}

			}
, 			{
				"box" : 				{
					"id" : "obj-68",
					"maxclass" : "message",
					"numinlets" : 2,
					"numoutlets" : 1,
					"outlettype" : [ "" ],
					"patching_rect" : [ 404.750122, 565.0, 29.5, 22.0 ],
					"style" : "",
					"text" : "23"
				}

			}
, 			{
				"box" : 				{
					"id" : "obj-66",
					"maxclass" : "message",
					"numinlets" : 2,
					"numoutlets" : 1,
					"outlettype" : [ "" ],
					"patching_rect" : [ 358.083374, 565.0, 29.5, 22.0 ],
					"style" : "",
					"text" : "22"
				}

			}
, 			{
				"box" : 				{
					"id" : "obj-64",
					"maxclass" : "message",
					"numinlets" : 2,
					"numoutlets" : 1,
					"outlettype" : [ "" ],
					"patching_rect" : [ 315.416626, 565.0, 29.5, 22.0 ],
					"style" : "",
					"text" : "21"
				}

			}
, 			{
				"box" : 				{
					"id" : "obj-62",
					"maxclass" : "message",
					"numinlets" : 2,
					"numoutlets" : 1,
					"outlettype" : [ "" ],
					"patching_rect" : [ 272.999878, 565.0, 29.5, 22.0 ],
					"style" : "",
					"text" : "20"
				}

			}
, 			{
				"box" : 				{
					"id" : "obj-60",
					"maxclass" : "message",
					"numinlets" : 2,
					"numoutlets" : 1,
					"outlettype" : [ "" ],
					"patching_rect" : [ 228.000122, 565.0, 29.5, 22.0 ],
					"style" : "",
					"text" : "19"
				}

			}
, 			{
				"box" : 				{
					"id" : "obj-58",
					"maxclass" : "message",
					"numinlets" : 2,
					"numoutlets" : 1,
					"outlettype" : [ "" ],
					"patching_rect" : [ 181.333374, 565.0, 29.5, 22.0 ],
					"style" : "",
					"text" : "18"
				}

			}
, 			{
				"box" : 				{
					"id" : "obj-56",
					"maxclass" : "message",
					"numinlets" : 2,
					"numoutlets" : 1,
					"outlettype" : [ "" ],
					"patching_rect" : [ 138.666626, 565.0, 29.5, 22.0 ],
					"style" : "",
					"text" : "17"
				}

			}
, 			{
				"box" : 				{
					"id" : "obj-54",
					"maxclass" : "message",
					"numinlets" : 2,
					"numoutlets" : 1,
					"outlettype" : [ "" ],
					"patching_rect" : [ 798.08313, 392.0, 29.5, 22.0 ],
					"style" : "",
					"text" : "16"
				}

			}
, 			{
				"box" : 				{
					"id" : "obj-52",
					"maxclass" : "message",
					"numinlets" : 2,
					"numoutlets" : 1,
					"outlettype" : [ "" ],
					"patching_rect" : [ 753.083374, 392.0, 29.5, 22.0 ],
					"style" : "",
					"text" : "15"
				}

			}
, 			{
				"box" : 				{
					"id" : "obj-50",
					"maxclass" : "message",
					"numinlets" : 2,
					"numoutlets" : 1,
					"outlettype" : [ "" ],
					"patching_rect" : [ 706.416626, 392.0, 29.5, 22.0 ],
					"style" : "",
					"text" : "14"
				}

			}
, 			{
				"box" : 				{
					"id" : "obj-48",
					"maxclass" : "message",
					"numinlets" : 2,
					"numoutlets" : 1,
					"outlettype" : [ "" ],
					"patching_rect" : [ 663.749878, 392.0, 29.5, 22.0 ],
					"style" : "",
					"text" : "13"
				}

			}
, 			{
				"box" : 				{
					"id" : "obj-46",
					"maxclass" : "message",
					"numinlets" : 2,
					"numoutlets" : 1,
					"outlettype" : [ "" ],
					"patching_rect" : [ 621.33313, 392.0, 29.5, 22.0 ],
					"style" : "",
					"text" : "12"
				}

			}
, 			{
				"box" : 				{
					"id" : "obj-43",
					"maxclass" : "message",
					"numinlets" : 2,
					"numoutlets" : 1,
					"outlettype" : [ "" ],
					"patching_rect" : [ 576.333374, 392.0, 29.5, 22.0 ],
					"style" : "",
					"text" : "11"
				}

			}
, 			{
				"box" : 				{
					"id" : "obj-41",
					"maxclass" : "message",
					"numinlets" : 2,
					"numoutlets" : 1,
					"outlettype" : [ "" ],
					"patching_rect" : [ 529.666626, 392.0, 29.5, 22.0 ],
					"style" : "",
					"text" : "10"
				}

			}
, 			{
				"box" : 				{
					"id" : "obj-39",
					"maxclass" : "message",
					"numinlets" : 2,
					"numoutlets" : 1,
					"outlettype" : [ "" ],
					"patching_rect" : [ 486.999878, 392.0, 29.5, 22.0 ],
					"style" : "",
					"text" : "9"
				}

			}
, 			{
				"box" : 				{
					"id" : "obj-37",
					"maxclass" : "message",
					"numinlets" : 2,
					"numoutlets" : 1,
					"outlettype" : [ "" ],
					"patching_rect" : [ 449.749878, 392.0, 29.5, 22.0 ],
					"style" : "",
					"text" : "8"
				}

			}
, 			{
				"box" : 				{
					"id" : "obj-35",
					"maxclass" : "message",
					"numinlets" : 2,
					"numoutlets" : 1,
					"outlettype" : [ "" ],
					"patching_rect" : [ 404.750122, 392.0, 29.5, 22.0 ],
					"style" : "",
					"text" : "7"
				}

			}
, 			{
				"box" : 				{
					"id" : "obj-33",
					"maxclass" : "message",
					"numinlets" : 2,
					"numoutlets" : 1,
					"outlettype" : [ "" ],
					"patching_rect" : [ 358.083374, 392.0, 29.5, 22.0 ],
					"style" : "",
					"text" : "6"
				}

			}
, 			{
				"box" : 				{
					"id" : "obj-31",
					"maxclass" : "message",
					"numinlets" : 2,
					"numoutlets" : 1,
					"outlettype" : [ "" ],
					"patching_rect" : [ 315.416626, 392.0, 29.5, 22.0 ],
					"style" : "",
					"text" : "5"
				}

			}
, 			{
				"box" : 				{
					"id" : "obj-29",
					"maxclass" : "message",
					"numinlets" : 2,
					"numoutlets" : 1,
					"outlettype" : [ "" ],
					"patching_rect" : [ 272.999878, 392.0, 29.5, 22.0 ],
					"style" : "",
					"text" : "4"
				}

			}
, 			{
				"box" : 				{
					"id" : "obj-27",
					"maxclass" : "message",
					"numinlets" : 2,
					"numoutlets" : 1,
					"outlettype" : [ "" ],
					"patching_rect" : [ 228.000122, 392.0, 29.5, 22.0 ],
					"style" : "",
					"text" : "3"
				}

			}
, 			{
				"box" : 				{
					"id" : "obj-25",
					"maxclass" : "message",
					"numinlets" : 2,
					"numoutlets" : 1,
					"outlettype" : [ "" ],
					"patching_rect" : [ 181.333374, 392.0, 29.5, 22.0 ],
					"style" : "",
					"text" : "2"
				}

			}
, 			{
				"box" : 				{
					"id" : "obj-23",
					"maxclass" : "message",
					"numinlets" : 2,
					"numoutlets" : 1,
					"outlettype" : [ "" ],
					"patching_rect" : [ 138.666626, 392.0, 29.5, 22.0 ],
					"style" : "",
					"text" : "1"
				}

			}
, 			{
				"box" : 				{
					"id" : "obj-4",
					"maxclass" : "button",
					"numinlets" : 1,
					"numoutlets" : 1,
					"outlettype" : [ "bang" ],
					"patching_rect" : [ 1231.949097, 135.0, 24.0, 24.0 ],
					"presentation" : 1,
					"presentation_rect" : [ 315.651855, 66.222992, 24.0, 24.0 ],
					"style" : ""
				}

			}
, 			{
				"box" : 				{
					"id" : "obj-6",
					"maxclass" : "button",
					"numinlets" : 1,
					"numoutlets" : 1,
					"outlettype" : [ "bang" ],
					"patching_rect" : [ 1205.949097, 135.0, 24.0, 24.0 ],
					"presentation" : 1,
					"presentation_rect" : [ 295.651855, 66.222992, 24.0, 24.0 ],
					"style" : ""
				}

			}
, 			{
				"box" : 				{
					"id" : "obj-7",
					"maxclass" : "button",
					"numinlets" : 1,
					"numoutlets" : 1,
					"outlettype" : [ "bang" ],
					"patching_rect" : [ 1181.949341, 135.0, 24.0, 24.0 ],
					"presentation" : 1,
					"presentation_rect" : [ 275.651855, 66.222992, 24.0, 24.0 ],
					"style" : ""
				}

			}
, 			{
				"box" : 				{
					"id" : "obj-8",
					"maxclass" : "button",
					"numinlets" : 1,
					"numoutlets" : 1,
					"outlettype" : [ "bang" ],
					"patching_rect" : [ 1155.949341, 135.0, 24.0, 24.0 ],
					"presentation" : 1,
					"presentation_rect" : [ 256.083252, 66.222992, 24.0, 24.0 ],
					"style" : ""
				}

			}
, 			{
				"box" : 				{
					"id" : "obj-9",
					"maxclass" : "button",
					"numinlets" : 1,
					"numoutlets" : 1,
					"outlettype" : [ "bang" ],
					"patching_rect" : [ 1129.949341, 135.0, 24.0, 24.0 ],
					"presentation" : 1,
					"presentation_rect" : [ 235.166504, 66.222992, 24.0, 24.0 ],
					"style" : ""
				}

			}
, 			{
				"box" : 				{
					"id" : "obj-10",
					"maxclass" : "button",
					"numinlets" : 1,
					"numoutlets" : 1,
					"outlettype" : [ "bang" ],
					"patching_rect" : [ 1103.949341, 135.0, 24.0, 24.0 ],
					"presentation" : 1,
					"presentation_rect" : [ 215.166504, 66.222992, 24.0, 24.0 ],
					"style" : ""
				}

			}
, 			{
				"box" : 				{
					"id" : "obj-11",
					"maxclass" : "button",
					"numinlets" : 1,
					"numoutlets" : 1,
					"outlettype" : [ "bang" ],
					"patching_rect" : [ 1079.949585, 135.0, 24.0, 24.0 ],
					"presentation" : 1,
					"presentation_rect" : [ 195.166504, 66.222992, 24.0, 24.0 ],
					"style" : ""
				}

			}
, 			{
				"box" : 				{
					"id" : "obj-12",
					"maxclass" : "button",
					"numinlets" : 1,
					"numoutlets" : 1,
					"outlettype" : [ "bang" ],
					"patching_rect" : [ 1053.949585, 135.0, 24.0, 24.0 ],
					"presentation" : 1,
					"presentation_rect" : [ 172.749756, 66.222992, 24.0, 24.0 ],
					"style" : ""
				}

			}
, 			{
				"box" : 				{
					"id" : "obj-13",
					"maxclass" : "button",
					"numinlets" : 1,
					"numoutlets" : 1,
					"outlettype" : [ "bang" ],
					"patching_rect" : [ 1027.949585, 135.0, 24.0, 24.0 ],
					"presentation" : 1,
					"presentation_rect" : [ 152.749756, 66.222992, 24.0, 24.0 ],
					"style" : ""
				}

			}
, 			{
				"box" : 				{
					"id" : "obj-14",
					"maxclass" : "button",
					"numinlets" : 1,
					"numoutlets" : 1,
					"outlettype" : [ "bang" ],
					"patching_rect" : [ 1001.949585, 135.0, 24.0, 24.0 ],
					"presentation" : 1,
					"presentation_rect" : [ 132.5, 66.222992, 24.0, 24.0 ],
					"style" : ""
				}

			}
, 			{
				"box" : 				{
					"id" : "obj-15",
					"maxclass" : "button",
					"numinlets" : 1,
					"numoutlets" : 1,
					"outlettype" : [ "bang" ],
					"patching_rect" : [ 977.949829, 135.0, 24.0, 24.0 ],
					"presentation" : 1,
					"presentation_rect" : [ 112.416748, 66.222992, 24.0, 24.0 ],
					"style" : ""
				}

			}
, 			{
				"box" : 				{
					"id" : "obj-16",
					"maxclass" : "button",
					"numinlets" : 1,
					"numoutlets" : 1,
					"outlettype" : [ "bang" ],
					"patching_rect" : [ 951.949829, 135.0, 24.0, 24.0 ],
					"presentation" : 1,
					"presentation_rect" : [ 90.166504, 66.222992, 24.0, 24.0 ],
					"style" : ""
				}

			}
, 			{
				"box" : 				{
					"id" : "obj-17",
					"maxclass" : "button",
					"numinlets" : 1,
					"numoutlets" : 1,
					"outlettype" : [ "bang" ],
					"patching_rect" : [ 925.949829, 135.0, 24.0, 24.0 ],
					"presentation" : 1,
					"presentation_rect" : [ 69.749756, 66.222992, 24.0, 24.0 ],
					"style" : ""
				}

			}
, 			{
				"box" : 				{
					"id" : "obj-18",
					"maxclass" : "button",
					"numinlets" : 1,
					"numoutlets" : 1,
					"outlettype" : [ "bang" ],
					"patching_rect" : [ 899.949829, 135.0, 24.0, 24.0 ],
					"presentation" : 1,
					"presentation_rect" : [ 49.083252, 66.222992, 24.0, 24.0 ],
					"style" : ""
				}

			}
, 			{
				"box" : 				{
					"id" : "obj-19",
					"maxclass" : "button",
					"numinlets" : 1,
					"numoutlets" : 1,
					"outlettype" : [ "bang" ],
					"patching_rect" : [ 875.950073, 135.0, 24.0, 24.0 ],
					"presentation" : 1,
					"presentation_rect" : [ 27.083252, 66.222992, 24.0, 24.0 ],
					"style" : ""
				}

			}
, 			{
				"box" : 				{
					"id" : "obj-20",
					"maxclass" : "button",
					"numinlets" : 1,
					"numoutlets" : 1,
					"outlettype" : [ "bang" ],
					"patching_rect" : [ 849.950073, 135.0, 24.0, 24.0 ],
					"presentation" : 1,
					"presentation_rect" : [ 6.416504, 66.222992, 24.0, 24.0 ],
					"style" : ""
				}

			}
, 			{
				"box" : 				{
					"id" : "obj-1",
					"maxclass" : "preset",
					"numinlets" : 1,
					"numoutlets" : 4,
					"outlettype" : [ "preset", "int", "preset", "int" ],
					"patching_rect" : [ 358.083374, 57.0, 100.0, 40.0 ],
					"presentation" : 1,
					"presentation_rect" : [ 148.083374, 94.722992, 191.568481, 53.0 ],
					"style" : ""
				}

			}
, 			{
				"box" : 				{
					"comment" : "",
					"id" : "obj-2",
					"maxclass" : "outlet",
					"numinlets" : 1,
					"numoutlets" : 0,
					"patching_rect" : [ 458.666626, 737.0, 30.0, 30.0 ],
					"style" : ""
				}

			}
, 			{
				"box" : 				{
					"id" : "obj-1275",
					"maxclass" : "button",
					"numinlets" : 1,
					"numoutlets" : 1,
					"outlettype" : [ "bang" ],
					"patching_rect" : [ 1231.949097, 109.0, 24.0, 24.0 ],
					"presentation" : 1,
					"presentation_rect" : [ 315.651855, 46.222992, 24.0, 24.0 ],
					"style" : ""
				}

			}
, 			{
				"box" : 				{
					"id" : "obj-1276",
					"maxclass" : "button",
					"numinlets" : 1,
					"numoutlets" : 1,
					"outlettype" : [ "bang" ],
					"patching_rect" : [ 1205.949097, 109.0, 24.0, 24.0 ],
					"presentation" : 1,
					"presentation_rect" : [ 295.651855, 46.222992, 24.0, 24.0 ],
					"style" : ""
				}

			}
, 			{
				"box" : 				{
					"id" : "obj-1277",
					"maxclass" : "button",
					"numinlets" : 1,
					"numoutlets" : 1,
					"outlettype" : [ "bang" ],
					"patching_rect" : [ 1181.949341, 109.0, 24.0, 24.0 ],
					"presentation" : 1,
					"presentation_rect" : [ 275.651855, 46.222992, 24.0, 24.0 ],
					"style" : ""
				}

			}
, 			{
				"box" : 				{
					"id" : "obj-1278",
					"maxclass" : "button",
					"numinlets" : 1,
					"numoutlets" : 1,
					"outlettype" : [ "bang" ],
					"patching_rect" : [ 1155.949341, 109.0, 24.0, 24.0 ],
					"presentation" : 1,
					"presentation_rect" : [ 256.083252, 46.222992, 24.0, 24.0 ],
					"style" : ""
				}

			}
, 			{
				"box" : 				{
					"id" : "obj-1279",
					"maxclass" : "button",
					"numinlets" : 1,
					"numoutlets" : 1,
					"outlettype" : [ "bang" ],
					"patching_rect" : [ 1129.949341, 109.0, 24.0, 24.0 ],
					"presentation" : 1,
					"presentation_rect" : [ 235.166504, 46.222992, 24.0, 24.0 ],
					"style" : ""
				}

			}
, 			{
				"box" : 				{
					"id" : "obj-1280",
					"maxclass" : "button",
					"numinlets" : 1,
					"numoutlets" : 1,
					"outlettype" : [ "bang" ],
					"patching_rect" : [ 1103.949341, 109.0, 24.0, 24.0 ],
					"presentation" : 1,
					"presentation_rect" : [ 215.166504, 46.222992, 24.0, 24.0 ],
					"style" : ""
				}

			}
, 			{
				"box" : 				{
					"id" : "obj-1281",
					"maxclass" : "button",
					"numinlets" : 1,
					"numoutlets" : 1,
					"outlettype" : [ "bang" ],
					"patching_rect" : [ 1079.949585, 109.0, 24.0, 24.0 ],
					"presentation" : 1,
					"presentation_rect" : [ 195.166504, 46.222992, 24.0, 24.0 ],
					"style" : ""
				}

			}
, 			{
				"box" : 				{
					"id" : "obj-1282",
					"maxclass" : "button",
					"numinlets" : 1,
					"numoutlets" : 1,
					"outlettype" : [ "bang" ],
					"patching_rect" : [ 1053.949585, 109.0, 24.0, 24.0 ],
					"presentation" : 1,
					"presentation_rect" : [ 172.749756, 46.222992, 24.0, 24.0 ],
					"style" : ""
				}

			}
, 			{
				"box" : 				{
					"id" : "obj-1271",
					"maxclass" : "button",
					"numinlets" : 1,
					"numoutlets" : 1,
					"outlettype" : [ "bang" ],
					"patching_rect" : [ 1027.949585, 109.0, 24.0, 24.0 ],
					"presentation" : 1,
					"presentation_rect" : [ 152.749756, 46.222992, 24.0, 24.0 ],
					"style" : ""
				}

			}
, 			{
				"box" : 				{
					"id" : "obj-1272",
					"maxclass" : "button",
					"numinlets" : 1,
					"numoutlets" : 1,
					"outlettype" : [ "bang" ],
					"patching_rect" : [ 1001.949585, 109.0, 24.0, 24.0 ],
					"presentation" : 1,
					"presentation_rect" : [ 132.5, 46.222992, 24.0, 24.0 ],
					"style" : ""
				}

			}
, 			{
				"box" : 				{
					"id" : "obj-1273",
					"maxclass" : "button",
					"numinlets" : 1,
					"numoutlets" : 1,
					"outlettype" : [ "bang" ],
					"patching_rect" : [ 977.949829, 109.0, 24.0, 24.0 ],
					"presentation" : 1,
					"presentation_rect" : [ 112.416748, 46.222992, 24.0, 24.0 ],
					"style" : ""
				}

			}
, 			{
				"box" : 				{
					"id" : "obj-1274",
					"maxclass" : "button",
					"numinlets" : 1,
					"numoutlets" : 1,
					"outlettype" : [ "bang" ],
					"patching_rect" : [ 951.949829, 109.0, 24.0, 24.0 ],
					"presentation" : 1,
					"presentation_rect" : [ 90.166504, 46.222992, 24.0, 24.0 ],
					"style" : ""
				}

			}
, 			{
				"box" : 				{
					"id" : "obj-1269",
					"maxclass" : "button",
					"numinlets" : 1,
					"numoutlets" : 1,
					"outlettype" : [ "bang" ],
					"patching_rect" : [ 925.949829, 109.0, 24.0, 24.0 ],
					"presentation" : 1,
					"presentation_rect" : [ 69.749756, 46.222992, 24.0, 24.0 ],
					"style" : ""
				}

			}
, 			{
				"box" : 				{
					"id" : "obj-1270",
					"maxclass" : "button",
					"numinlets" : 1,
					"numoutlets" : 1,
					"outlettype" : [ "bang" ],
					"patching_rect" : [ 899.949829, 109.0, 24.0, 24.0 ],
					"presentation" : 1,
					"presentation_rect" : [ 49.083252, 46.222992, 24.0, 24.0 ],
					"style" : ""
				}

			}
, 			{
				"box" : 				{
					"id" : "obj-1268",
					"maxclass" : "button",
					"numinlets" : 1,
					"numoutlets" : 1,
					"outlettype" : [ "bang" ],
					"patching_rect" : [ 875.950073, 109.0, 24.0, 24.0 ],
					"presentation" : 1,
					"presentation_rect" : [ 27.083252, 46.222992, 24.0, 24.0 ],
					"style" : ""
				}

			}
, 			{
				"box" : 				{
					"id" : "obj-1266",
					"maxclass" : "button",
					"numinlets" : 1,
					"numoutlets" : 1,
					"outlettype" : [ "bang" ],
					"patching_rect" : [ 849.950073, 109.0, 24.0, 24.0 ],
					"presentation" : 1,
					"presentation_rect" : [ 6.416504, 46.222992, 24.0, 24.0 ],
					"style" : ""
				}

			}
, 			{
				"box" : 				{
					"id" : "obj-580",
					"maxclass" : "newobj",
					"numinlets" : 2,
					"numoutlets" : 1,
					"outlettype" : [ "" ],
					"patching_rect" : [ 798.08313, 533.333374, 34.0, 22.0 ],
					"style" : "",
					"text" : "gate"
				}

			}
, 			{
				"box" : 				{
					"id" : "obj-581",
					"maxclass" : "newobj",
					"numinlets" : 2,
					"numoutlets" : 1,
					"outlettype" : [ "" ],
					"patching_rect" : [ 753.083374, 533.333374, 34.0, 22.0 ],
					"style" : "",
					"text" : "gate"
				}

			}
, 			{
				"box" : 				{
					"id" : "obj-582",
					"maxclass" : "newobj",
					"numinlets" : 2,
					"numoutlets" : 1,
					"outlettype" : [ "" ],
					"patching_rect" : [ 706.416626, 533.333374, 34.0, 22.0 ],
					"style" : "",
					"text" : "gate"
				}

			}
, 			{
				"box" : 				{
					"id" : "obj-583",
					"maxclass" : "newobj",
					"numinlets" : 2,
					"numoutlets" : 1,
					"outlettype" : [ "" ],
					"patching_rect" : [ 663.749878, 536.666748, 34.0, 22.0 ],
					"style" : "",
					"text" : "gate"
				}

			}
, 			{
				"box" : 				{
					"id" : "obj-584",
					"maxclass" : "newobj",
					"numinlets" : 2,
					"numoutlets" : 1,
					"outlettype" : [ "" ],
					"patching_rect" : [ 621.33313, 536.666748, 34.0, 22.0 ],
					"style" : "",
					"text" : "gate"
				}

			}
, 			{
				"box" : 				{
					"id" : "obj-585",
					"maxclass" : "newobj",
					"numinlets" : 2,
					"numoutlets" : 1,
					"outlettype" : [ "" ],
					"patching_rect" : [ 576.333374, 536.666748, 34.0, 22.0 ],
					"style" : "",
					"text" : "gate"
				}

			}
, 			{
				"box" : 				{
					"id" : "obj-586",
					"maxclass" : "newobj",
					"numinlets" : 2,
					"numoutlets" : 1,
					"outlettype" : [ "" ],
					"patching_rect" : [ 529.666626, 533.333374, 34.0, 22.0 ],
					"style" : "",
					"text" : "gate"
				}

			}
, 			{
				"box" : 				{
					"id" : "obj-587",
					"maxclass" : "newobj",
					"numinlets" : 2,
					"numoutlets" : 1,
					"outlettype" : [ "" ],
					"patching_rect" : [ 486.999878, 533.333374, 34.0, 22.0 ],
					"style" : "",
					"text" : "gate"
				}

			}
, 			{
				"box" : 				{
					"id" : "obj-588",
					"maxclass" : "newobj",
					"numinlets" : 2,
					"numoutlets" : 1,
					"outlettype" : [ "" ],
					"patching_rect" : [ 449.749878, 533.333374, 34.0, 22.0 ],
					"style" : "",
					"text" : "gate"
				}

			}
, 			{
				"box" : 				{
					"id" : "obj-589",
					"maxclass" : "newobj",
					"numinlets" : 2,
					"numoutlets" : 1,
					"outlettype" : [ "" ],
					"patching_rect" : [ 404.750122, 533.333374, 34.0, 22.0 ],
					"style" : "",
					"text" : "gate"
				}

			}
, 			{
				"box" : 				{
					"id" : "obj-590",
					"maxclass" : "newobj",
					"numinlets" : 2,
					"numoutlets" : 1,
					"outlettype" : [ "" ],
					"patching_rect" : [ 358.083374, 533.333374, 34.0, 22.0 ],
					"style" : "",
					"text" : "gate"
				}

			}
, 			{
				"box" : 				{
					"id" : "obj-591",
					"maxclass" : "newobj",
					"numinlets" : 2,
					"numoutlets" : 1,
					"outlettype" : [ "" ],
					"patching_rect" : [ 315.416626, 533.333374, 34.0, 22.0 ],
					"style" : "",
					"text" : "gate"
				}

			}
, 			{
				"box" : 				{
					"id" : "obj-592",
					"maxclass" : "newobj",
					"numinlets" : 2,
					"numoutlets" : 1,
					"outlettype" : [ "" ],
					"patching_rect" : [ 272.999878, 533.333374, 34.0, 22.0 ],
					"style" : "",
					"text" : "gate"
				}

			}
, 			{
				"box" : 				{
					"id" : "obj-593",
					"maxclass" : "newobj",
					"numinlets" : 2,
					"numoutlets" : 1,
					"outlettype" : [ "" ],
					"patching_rect" : [ 228.000122, 533.333374, 34.0, 22.0 ],
					"style" : "",
					"text" : "gate"
				}

			}
, 			{
				"box" : 				{
					"id" : "obj-594",
					"maxclass" : "newobj",
					"numinlets" : 2,
					"numoutlets" : 1,
					"outlettype" : [ "" ],
					"patching_rect" : [ 181.333374, 533.333374, 34.0, 22.0 ],
					"style" : "",
					"text" : "gate"
				}

			}
, 			{
				"box" : 				{
					"id" : "obj-595",
					"maxclass" : "newobj",
					"numinlets" : 2,
					"numoutlets" : 1,
					"outlettype" : [ "" ],
					"patching_rect" : [ 138.666626, 533.333374, 34.0, 22.0 ],
					"style" : "",
					"text" : "gate"
				}

			}
, 			{
				"box" : 				{
					"id" : "obj-596",
					"maxclass" : "toggle",
					"numinlets" : 1,
					"numoutlets" : 1,
					"outlettype" : [ "int" ],
					"parameter_enable" : 0,
					"patching_rect" : [ 753.083374, 493.333374, 24.0, 24.0 ],
					"presentation" : 1,
					"presentation_rect" : [ 295.651855, 25.711441, 24.0, 24.0 ],
					"style" : ""
				}

			}
, 			{
				"box" : 				{
					"id" : "obj-597",
					"maxclass" : "toggle",
					"numinlets" : 1,
					"numoutlets" : 1,
					"outlettype" : [ "int" ],
					"parameter_enable" : 0,
					"patching_rect" : [ 663.749878, 493.333374, 24.0, 24.0 ],
					"presentation" : 1,
					"presentation_rect" : [ 256.083252, 25.711441, 24.0, 24.0 ],
					"style" : ""
				}

			}
, 			{
				"box" : 				{
					"id" : "obj-598",
					"maxclass" : "toggle",
					"numinlets" : 1,
					"numoutlets" : 1,
					"outlettype" : [ "int" ],
					"parameter_enable" : 0,
					"patching_rect" : [ 798.08313, 493.333374, 24.0, 24.0 ],
					"presentation" : 1,
					"presentation_rect" : [ 315.651855, 25.711441, 24.0, 24.0 ],
					"style" : ""
				}

			}
, 			{
				"box" : 				{
					"id" : "obj-599",
					"maxclass" : "toggle",
					"numinlets" : 1,
					"numoutlets" : 1,
					"outlettype" : [ "int" ],
					"parameter_enable" : 0,
					"patching_rect" : [ 706.416626, 493.333374, 24.0, 24.0 ],
					"presentation" : 1,
					"presentation_rect" : [ 275.651855, 25.711441, 24.0, 24.0 ],
					"style" : ""
				}

			}
, 			{
				"box" : 				{
					"id" : "obj-600",
					"maxclass" : "toggle",
					"numinlets" : 1,
					"numoutlets" : 1,
					"outlettype" : [ "int" ],
					"parameter_enable" : 0,
					"patching_rect" : [ 576.333374, 493.333374, 24.0, 24.0 ],
					"presentation" : 1,
					"presentation_rect" : [ 215.166504, 26.892181, 24.0, 24.0 ],
					"style" : ""
				}

			}
, 			{
				"box" : 				{
					"id" : "obj-601",
					"maxclass" : "toggle",
					"numinlets" : 1,
					"numoutlets" : 1,
					"outlettype" : [ "int" ],
					"parameter_enable" : 0,
					"patching_rect" : [ 486.999878, 493.333374, 24.0, 24.0 ],
					"presentation" : 1,
					"presentation_rect" : [ 172.749756, 26.892181, 24.0, 24.0 ],
					"style" : ""
				}

			}
, 			{
				"box" : 				{
					"id" : "obj-602",
					"maxclass" : "toggle",
					"numinlets" : 1,
					"numoutlets" : 1,
					"outlettype" : [ "int" ],
					"parameter_enable" : 0,
					"patching_rect" : [ 621.33313, 493.333374, 24.0, 24.0 ],
					"presentation" : 1,
					"presentation_rect" : [ 235.166504, 25.711441, 24.0, 24.0 ],
					"style" : ""
				}

			}
, 			{
				"box" : 				{
					"id" : "obj-603",
					"maxclass" : "toggle",
					"numinlets" : 1,
					"numoutlets" : 1,
					"outlettype" : [ "int" ],
					"parameter_enable" : 0,
					"patching_rect" : [ 529.666626, 493.333374, 24.0, 24.0 ],
					"presentation" : 1,
					"presentation_rect" : [ 195.166504, 26.892181, 24.0, 24.0 ],
					"style" : ""
				}

			}
, 			{
				"box" : 				{
					"id" : "obj-604",
					"maxclass" : "toggle",
					"numinlets" : 1,
					"numoutlets" : 1,
					"outlettype" : [ "int" ],
					"parameter_enable" : 0,
					"patching_rect" : [ 404.750122, 493.333374, 24.0, 24.0 ],
					"presentation" : 1,
					"presentation_rect" : [ 132.5, 26.892181, 24.0, 24.0 ],
					"style" : ""
				}

			}
, 			{
				"box" : 				{
					"id" : "obj-605",
					"maxclass" : "toggle",
					"numinlets" : 1,
					"numoutlets" : 1,
					"outlettype" : [ "int" ],
					"parameter_enable" : 0,
					"patching_rect" : [ 315.416626, 493.333374, 24.0, 24.0 ],
					"presentation" : 1,
					"presentation_rect" : [ 90.166504, 26.892181, 24.0, 24.0 ],
					"style" : ""
				}

			}
, 			{
				"box" : 				{
					"id" : "obj-606",
					"maxclass" : "toggle",
					"numinlets" : 1,
					"numoutlets" : 1,
					"outlettype" : [ "int" ],
					"parameter_enable" : 0,
					"patching_rect" : [ 449.749878, 493.333374, 24.0, 24.0 ],
					"presentation" : 1,
					"presentation_rect" : [ 152.749756, 26.892181, 24.0, 24.0 ],
					"style" : ""
				}

			}
, 			{
				"box" : 				{
					"id" : "obj-607",
					"maxclass" : "toggle",
					"numinlets" : 1,
					"numoutlets" : 1,
					"outlettype" : [ "int" ],
					"parameter_enable" : 0,
					"patching_rect" : [ 358.083374, 493.333374, 24.0, 24.0 ],
					"presentation" : 1,
					"presentation_rect" : [ 112.416748, 26.892181, 24.0, 24.0 ],
					"style" : ""
				}

			}
, 			{
				"box" : 				{
					"id" : "obj-608",
					"maxclass" : "toggle",
					"numinlets" : 1,
					"numoutlets" : 1,
					"outlettype" : [ "int" ],
					"parameter_enable" : 0,
					"patching_rect" : [ 228.000122, 493.333374, 24.0, 24.0 ],
					"presentation" : 1,
					"presentation_rect" : [ 49.083252, 26.892181, 24.0, 24.0 ],
					"style" : ""
				}

			}
, 			{
				"box" : 				{
					"id" : "obj-609",
					"maxclass" : "toggle",
					"numinlets" : 1,
					"numoutlets" : 1,
					"outlettype" : [ "int" ],
					"parameter_enable" : 0,
					"patching_rect" : [ 138.666626, 493.333374, 24.0, 24.0 ],
					"presentation" : 1,
					"presentation_rect" : [ 6.416504, 26.892181, 24.0, 24.0 ],
					"style" : ""
				}

			}
, 			{
				"box" : 				{
					"id" : "obj-610",
					"maxclass" : "toggle",
					"numinlets" : 1,
					"numoutlets" : 1,
					"outlettype" : [ "int" ],
					"parameter_enable" : 0,
					"patching_rect" : [ 272.999878, 493.333374, 24.0, 24.0 ],
					"presentation" : 1,
					"presentation_rect" : [ 69.749756, 26.892181, 24.0, 24.0 ],
					"style" : ""
				}

			}
, 			{
				"box" : 				{
					"id" : "obj-611",
					"maxclass" : "toggle",
					"numinlets" : 1,
					"numoutlets" : 1,
					"outlettype" : [ "int" ],
					"parameter_enable" : 0,
					"patching_rect" : [ 181.333374, 493.333374, 24.0, 24.0 ],
					"presentation" : 1,
					"presentation_rect" : [ 27.083252, 26.892181, 24.0, 24.0 ],
					"style" : ""
				}

			}
, 			{
				"box" : 				{
					"id" : "obj-492",
					"maxclass" : "newobj",
					"numinlets" : 2,
					"numoutlets" : 1,
					"outlettype" : [ "" ],
					"patching_rect" : [ 798.08313, 361.0, 34.0, 22.0 ],
					"style" : "",
					"text" : "gate"
				}

			}
, 			{
				"box" : 				{
					"id" : "obj-491",
					"maxclass" : "newobj",
					"numinlets" : 2,
					"numoutlets" : 1,
					"outlettype" : [ "" ],
					"patching_rect" : [ 753.083374, 361.0, 34.0, 22.0 ],
					"style" : "",
					"text" : "gate"
				}

			}
, 			{
				"box" : 				{
					"id" : "obj-490",
					"maxclass" : "newobj",
					"numinlets" : 2,
					"numoutlets" : 1,
					"outlettype" : [ "" ],
					"patching_rect" : [ 706.416626, 361.0, 34.0, 22.0 ],
					"style" : "",
					"text" : "gate"
				}

			}
, 			{
				"box" : 				{
					"id" : "obj-489",
					"maxclass" : "newobj",
					"numinlets" : 2,
					"numoutlets" : 1,
					"outlettype" : [ "" ],
					"patching_rect" : [ 663.749878, 364.333374, 34.0, 22.0 ],
					"style" : "",
					"text" : "gate"
				}

			}
, 			{
				"box" : 				{
					"id" : "obj-488",
					"maxclass" : "newobj",
					"numinlets" : 2,
					"numoutlets" : 1,
					"outlettype" : [ "" ],
					"patching_rect" : [ 621.33313, 364.333374, 34.0, 22.0 ],
					"style" : "",
					"text" : "gate"
				}

			}
, 			{
				"box" : 				{
					"id" : "obj-487",
					"maxclass" : "newobj",
					"numinlets" : 2,
					"numoutlets" : 1,
					"outlettype" : [ "" ],
					"patching_rect" : [ 576.333374, 364.333374, 34.0, 22.0 ],
					"style" : "",
					"text" : "gate"
				}

			}
, 			{
				"box" : 				{
					"id" : "obj-486",
					"maxclass" : "newobj",
					"numinlets" : 2,
					"numoutlets" : 1,
					"outlettype" : [ "" ],
					"patching_rect" : [ 529.666626, 361.0, 34.0, 22.0 ],
					"style" : "",
					"text" : "gate"
				}

			}
, 			{
				"box" : 				{
					"id" : "obj-485",
					"maxclass" : "newobj",
					"numinlets" : 2,
					"numoutlets" : 1,
					"outlettype" : [ "" ],
					"patching_rect" : [ 486.999878, 361.0, 34.0, 22.0 ],
					"style" : "",
					"text" : "gate"
				}

			}
, 			{
				"box" : 				{
					"id" : "obj-484",
					"maxclass" : "newobj",
					"numinlets" : 2,
					"numoutlets" : 1,
					"outlettype" : [ "" ],
					"patching_rect" : [ 449.749878, 361.0, 34.0, 22.0 ],
					"style" : "",
					"text" : "gate"
				}

			}
, 			{
				"box" : 				{
					"id" : "obj-483",
					"maxclass" : "newobj",
					"numinlets" : 2,
					"numoutlets" : 1,
					"outlettype" : [ "" ],
					"patching_rect" : [ 404.750122, 361.0, 34.0, 22.0 ],
					"style" : "",
					"text" : "gate"
				}

			}
, 			{
				"box" : 				{
					"id" : "obj-482",
					"maxclass" : "newobj",
					"numinlets" : 2,
					"numoutlets" : 1,
					"outlettype" : [ "" ],
					"patching_rect" : [ 358.083374, 361.0, 34.0, 22.0 ],
					"style" : "",
					"text" : "gate"
				}

			}
, 			{
				"box" : 				{
					"id" : "obj-481",
					"maxclass" : "newobj",
					"numinlets" : 2,
					"numoutlets" : 1,
					"outlettype" : [ "" ],
					"patching_rect" : [ 315.416626, 361.0, 34.0, 22.0 ],
					"style" : "",
					"text" : "gate"
				}

			}
, 			{
				"box" : 				{
					"id" : "obj-480",
					"maxclass" : "newobj",
					"numinlets" : 2,
					"numoutlets" : 1,
					"outlettype" : [ "" ],
					"patching_rect" : [ 272.999878, 361.0, 34.0, 22.0 ],
					"style" : "",
					"text" : "gate"
				}

			}
, 			{
				"box" : 				{
					"id" : "obj-479",
					"maxclass" : "newobj",
					"numinlets" : 2,
					"numoutlets" : 1,
					"outlettype" : [ "" ],
					"patching_rect" : [ 228.000122, 361.0, 34.0, 22.0 ],
					"style" : "",
					"text" : "gate"
				}

			}
, 			{
				"box" : 				{
					"id" : "obj-478",
					"maxclass" : "newobj",
					"numinlets" : 2,
					"numoutlets" : 1,
					"outlettype" : [ "" ],
					"patching_rect" : [ 181.333374, 361.0, 34.0, 22.0 ],
					"style" : "",
					"text" : "gate"
				}

			}
, 			{
				"box" : 				{
					"id" : "obj-477",
					"maxclass" : "newobj",
					"numinlets" : 2,
					"numoutlets" : 1,
					"outlettype" : [ "" ],
					"patching_rect" : [ 138.666626, 361.0, 34.0, 22.0 ],
					"style" : "",
					"text" : "gate"
				}

			}
, 			{
				"box" : 				{
					"id" : "obj-469",
					"maxclass" : "toggle",
					"numinlets" : 1,
					"numoutlets" : 1,
					"outlettype" : [ "int" ],
					"parameter_enable" : 0,
					"patching_rect" : [ 753.083374, 321.0, 24.0, 24.0 ],
					"presentation" : 1,
					"presentation_rect" : [ 295.651855, 6.892181, 24.0, 24.0 ],
					"style" : ""
				}

			}
, 			{
				"box" : 				{
					"id" : "obj-470",
					"maxclass" : "toggle",
					"numinlets" : 1,
					"numoutlets" : 1,
					"outlettype" : [ "int" ],
					"parameter_enable" : 0,
					"patching_rect" : [ 663.749878, 321.0, 24.0, 24.0 ],
					"presentation" : 1,
					"presentation_rect" : [ 256.083252, 6.892181, 24.0, 24.0 ],
					"style" : ""
				}

			}
, 			{
				"box" : 				{
					"id" : "obj-471",
					"maxclass" : "toggle",
					"numinlets" : 1,
					"numoutlets" : 1,
					"outlettype" : [ "int" ],
					"parameter_enable" : 0,
					"patching_rect" : [ 798.08313, 321.0, 24.0, 24.0 ],
					"presentation" : 1,
					"presentation_rect" : [ 315.651855, 6.892181, 24.0, 24.0 ],
					"style" : ""
				}

			}
, 			{
				"box" : 				{
					"id" : "obj-472",
					"maxclass" : "toggle",
					"numinlets" : 1,
					"numoutlets" : 1,
					"outlettype" : [ "int" ],
					"parameter_enable" : 0,
					"patching_rect" : [ 706.416626, 321.0, 24.0, 24.0 ],
					"presentation" : 1,
					"presentation_rect" : [ 275.651855, 6.892181, 24.0, 24.0 ],
					"style" : ""
				}

			}
, 			{
				"box" : 				{
					"id" : "obj-473",
					"maxclass" : "toggle",
					"numinlets" : 1,
					"numoutlets" : 1,
					"outlettype" : [ "int" ],
					"parameter_enable" : 0,
					"patching_rect" : [ 576.333374, 321.0, 24.0, 24.0 ],
					"presentation" : 1,
					"presentation_rect" : [ 215.166504, 6.892181, 24.0, 24.0 ],
					"style" : ""
				}

			}
, 			{
				"box" : 				{
					"id" : "obj-474",
					"maxclass" : "toggle",
					"numinlets" : 1,
					"numoutlets" : 1,
					"outlettype" : [ "int" ],
					"parameter_enable" : 0,
					"patching_rect" : [ 486.999878, 321.0, 24.0, 24.0 ],
					"presentation" : 1,
					"presentation_rect" : [ 172.749756, 6.892181, 24.0, 24.0 ],
					"style" : ""
				}

			}
, 			{
				"box" : 				{
					"id" : "obj-475",
					"maxclass" : "toggle",
					"numinlets" : 1,
					"numoutlets" : 1,
					"outlettype" : [ "int" ],
					"parameter_enable" : 0,
					"patching_rect" : [ 621.33313, 321.0, 24.0, 24.0 ],
					"presentation" : 1,
					"presentation_rect" : [ 235.166504, 6.892181, 24.0, 24.0 ],
					"style" : ""
				}

			}
, 			{
				"box" : 				{
					"id" : "obj-476",
					"maxclass" : "toggle",
					"numinlets" : 1,
					"numoutlets" : 1,
					"outlettype" : [ "int" ],
					"parameter_enable" : 0,
					"patching_rect" : [ 529.666626, 321.0, 24.0, 24.0 ],
					"presentation" : 1,
					"presentation_rect" : [ 195.166504, 6.892181, 24.0, 24.0 ],
					"style" : ""
				}

			}
, 			{
				"box" : 				{
					"id" : "obj-465",
					"maxclass" : "toggle",
					"numinlets" : 1,
					"numoutlets" : 1,
					"outlettype" : [ "int" ],
					"parameter_enable" : 0,
					"patching_rect" : [ 404.750122, 321.0, 24.0, 24.0 ],
					"presentation" : 1,
					"presentation_rect" : [ 132.5, 6.892181, 24.0, 24.0 ],
					"style" : ""
				}

			}
, 			{
				"box" : 				{
					"id" : "obj-466",
					"maxclass" : "toggle",
					"numinlets" : 1,
					"numoutlets" : 1,
					"outlettype" : [ "int" ],
					"parameter_enable" : 0,
					"patching_rect" : [ 315.416626, 321.0, 24.0, 24.0 ],
					"presentation" : 1,
					"presentation_rect" : [ 90.166504, 6.892181, 24.0, 24.0 ],
					"style" : ""
				}

			}
, 			{
				"box" : 				{
					"id" : "obj-467",
					"maxclass" : "toggle",
					"numinlets" : 1,
					"numoutlets" : 1,
					"outlettype" : [ "int" ],
					"parameter_enable" : 0,
					"patching_rect" : [ 449.749878, 321.0, 24.0, 24.0 ],
					"presentation" : 1,
					"presentation_rect" : [ 152.749756, 6.892181, 24.0, 24.0 ],
					"style" : ""
				}

			}
, 			{
				"box" : 				{
					"id" : "obj-468",
					"maxclass" : "toggle",
					"numinlets" : 1,
					"numoutlets" : 1,
					"outlettype" : [ "int" ],
					"parameter_enable" : 0,
					"patching_rect" : [ 358.083374, 321.0, 24.0, 24.0 ],
					"presentation" : 1,
					"presentation_rect" : [ 112.416748, 6.892181, 24.0, 24.0 ],
					"style" : ""
				}

			}
, 			{
				"box" : 				{
					"id" : "obj-464",
					"maxclass" : "toggle",
					"numinlets" : 1,
					"numoutlets" : 1,
					"outlettype" : [ "int" ],
					"parameter_enable" : 0,
					"patching_rect" : [ 228.000122, 321.0, 24.0, 24.0 ],
					"presentation" : 1,
					"presentation_rect" : [ 49.083252, 6.892181, 24.0, 24.0 ],
					"style" : ""
				}

			}
, 			{
				"box" : 				{
					"id" : "obj-462",
					"maxclass" : "toggle",
					"numinlets" : 1,
					"numoutlets" : 1,
					"outlettype" : [ "int" ],
					"parameter_enable" : 0,
					"patching_rect" : [ 138.666626, 321.0, 24.0, 24.0 ],
					"presentation" : 1,
					"presentation_rect" : [ 6.416504, 6.892181, 24.0, 24.0 ],
					"style" : ""
				}

			}
, 			{
				"box" : 				{
					"id" : "obj-460",
					"maxclass" : "toggle",
					"numinlets" : 1,
					"numoutlets" : 1,
					"outlettype" : [ "int" ],
					"parameter_enable" : 0,
					"patching_rect" : [ 272.999878, 321.0, 24.0, 24.0 ],
					"presentation" : 1,
					"presentation_rect" : [ 69.749756, 6.892181, 24.0, 24.0 ],
					"style" : ""
				}

			}
, 			{
				"box" : 				{
					"id" : "obj-458",
					"maxclass" : "toggle",
					"numinlets" : 1,
					"numoutlets" : 1,
					"outlettype" : [ "int" ],
					"parameter_enable" : 0,
					"patching_rect" : [ 181.333374, 321.0, 24.0, 24.0 ],
					"presentation" : 1,
					"presentation_rect" : [ 27.083252, 6.892181, 24.0, 24.0 ],
					"style" : ""
				}

			}
, 			{
				"box" : 				{
					"id" : "obj-456",
					"maxclass" : "toggle",
					"numinlets" : 1,
					"numoutlets" : 1,
					"outlettype" : [ "int" ],
					"parameter_enable" : 0,
					"patching_rect" : [ 202.66687, 187.666748, 24.0, 24.0 ],
					"presentation" : 1,
					"presentation_rect" : [ 6.416504, 96.722992, 49.0, 49.0 ],
					"style" : ""
				}

			}
, 			{
				"box" : 				{
					"id" : "obj-454",
					"maxclass" : "newobj",
					"numinlets" : 1,
					"numoutlets" : 32,
					"outlettype" : [ "", "", "", "", "", "", "", "", "", "", "", "", "", "", "", "", "", "", "", "", "", "", "", "", "", "", "", "", "", "", "", "" ],
					"patching_rect" : [ 202.66687, 262.069214, 344.5, 22.0 ],
					"style" : "",
					"text" : "cycle 32"
				}

			}
, 			{
				"box" : 				{
					"fontsize" : 36.0,
					"id" : "obj-453",
					"maxclass" : "number",
					"numinlets" : 1,
					"numoutlets" : 2,
					"outlettype" : [ "", "bang" ],
					"parameter_enable" : 0,
					"patching_rect" : [ 248.66687, 153.333435, 95.0, 49.0 ],
					"presentation" : 1,
					"presentation_rect" : [ 60.166504, 96.722992, 84.0, 49.0 ],
					"style" : ""
				}

			}
, 			{
				"box" : 				{
					"id" : "obj-451",
					"maxclass" : "newobj",
					"numinlets" : 2,
					"numoutlets" : 1,
					"outlettype" : [ "bang" ],
					"patching_rect" : [ 202.66687, 225.0, 65.0, 22.0 ],
					"style" : "",
					"text" : "metro 250"
				}

			}
, 			{
				"box" : 				{
					"id" : "obj-45",
					"maxclass" : "toggle",
					"numinlets" : 1,
					"numoutlets" : 1,
					"outlettype" : [ "int" ],
					"parameter_enable" : 0,
					"patching_rect" : [ 3180.666992, 1221.333374, 24.0, 24.0 ],
					"style" : ""
				}

			}
, 			{
				"box" : 				{
					"background" : 1,
					"id" : "obj-3",
					"maxclass" : "panel",
					"numinlets" : 1,
					"numoutlets" : 0,
					"patching_rect" : [ 366.083374, 113.833435, 128.0, 128.0 ],
					"presentation" : 1,
					"presentation_rect" : [ 0.651855, 0.722992, 345.0, 152.5 ],
					"style" : ""
				}

			}
 ],
		"lines" : [ 			{
				"patchline" : 				{
					"destination" : [ "obj-458", 0 ],
					"disabled" : 0,
					"hidden" : 0,
					"midpoints" : [ 367.583374, 100.0, 190.833374, 100.0 ],
					"source" : [ "obj-1", 0 ]
				}

			}
, 			{
				"patchline" : 				{
					"destination" : [ "obj-460", 0 ],
					"disabled" : 0,
					"hidden" : 0,
					"midpoints" : [ 367.583374, 100.0, 189.0, 100.0, 189.0, 307.0, 282.499878, 307.0 ],
					"source" : [ "obj-1", 0 ]
				}

			}
, 			{
				"patchline" : 				{
					"destination" : [ "obj-462", 0 ],
					"disabled" : 0,
					"hidden" : 0,
					"midpoints" : [ 367.583374, 100.0, 148.166626, 100.0 ],
					"source" : [ "obj-1", 0 ]
				}

			}
, 			{
				"patchline" : 				{
					"destination" : [ "obj-464", 0 ],
					"disabled" : 0,
					"hidden" : 0,
					"midpoints" : [ 367.583374, 100.0, 189.0, 100.0, 189.0, 307.0, 237.500122, 307.0 ],
					"source" : [ "obj-1", 0 ]
				}

			}
, 			{
				"patchline" : 				{
					"destination" : [ "obj-465", 0 ],
					"disabled" : 0,
					"hidden" : 0,
					"midpoints" : [ 367.583374, 100.0, 345.0, 100.0, 345.0, 253.0, 393.0, 253.0, 393.0, 307.0, 414.250122, 307.0 ],
					"source" : [ "obj-1", 0 ]
				}

			}
, 			{
				"patchline" : 				{
					"destination" : [ "obj-466", 0 ],
					"disabled" : 0,
					"hidden" : 0,
					"midpoints" : [ 367.583374, 100.0, 345.0, 100.0, 345.0, 259.0, 378.0, 259.0, 378.0, 307.0, 324.916626, 307.0 ],
					"source" : [ "obj-1", 0 ]
				}

			}
, 			{
				"patchline" : 				{
					"destination" : [ "obj-467", 0 ],
					"disabled" : 0,
					"hidden" : 0,
					"midpoints" : [ 367.583374, 100.0, 345.0, 100.0, 345.0, 253.0, 393.0, 253.0, 393.0, 307.0, 459.249878, 307.0 ],
					"source" : [ "obj-1", 0 ]
				}

			}
, 			{
				"patchline" : 				{
					"destination" : [ "obj-468", 0 ],
					"disabled" : 0,
					"hidden" : 0,
					"midpoints" : [ 367.583374, 100.0, 345.0, 100.0, 345.0, 259.0, 378.0, 259.0, 378.0, 307.0, 367.583374, 307.0 ],
					"source" : [ "obj-1", 0 ]
				}

			}
, 			{
				"patchline" : 				{
					"destination" : [ "obj-469", 0 ],
					"disabled" : 0,
					"hidden" : 0,
					"midpoints" : [ 367.583374, 100.0, 345.0, 100.0, 345.0, 253.0, 393.0, 253.0, 393.0, 307.0, 762.583374, 307.0 ],
					"source" : [ "obj-1", 0 ]
				}

			}
, 			{
				"patchline" : 				{
					"destination" : [ "obj-470", 0 ],
					"disabled" : 0,
					"hidden" : 0,
					"midpoints" : [ 367.583374, 100.0, 345.0, 100.0, 345.0, 253.0, 393.0, 253.0, 393.0, 307.0, 673.249878, 307.0 ],
					"source" : [ "obj-1", 0 ]
				}

			}
, 			{
				"patchline" : 				{
					"destination" : [ "obj-471", 0 ],
					"disabled" : 0,
					"hidden" : 0,
					"midpoints" : [ 367.583374, 100.0, 825.0, 100.0, 825.0, 307.0, 807.58313, 307.0 ],
					"source" : [ "obj-1", 0 ]
				}

			}
, 			{
				"patchline" : 				{
					"destination" : [ "obj-472", 0 ],
					"disabled" : 0,
					"hidden" : 0,
					"midpoints" : [ 367.583374, 100.0, 345.0, 100.0, 345.0, 253.0, 393.0, 253.0, 393.0, 307.0, 715.916626, 307.0 ],
					"source" : [ "obj-1", 0 ]
				}

			}
, 			{
				"patchline" : 				{
					"destination" : [ "obj-473", 0 ],
					"disabled" : 0,
					"hidden" : 0,
					"midpoints" : [ 367.583374, 100.0, 345.0, 100.0, 345.0, 253.0, 393.0, 253.0, 393.0, 307.0, 585.833374, 307.0 ],
					"source" : [ "obj-1", 0 ]
				}

			}
, 			{
				"patchline" : 				{
					"destination" : [ "obj-474", 0 ],
					"disabled" : 0,
					"hidden" : 0,
					"midpoints" : [ 367.583374, 100.0, 345.0, 100.0, 345.0, 253.0, 393.0, 253.0, 393.0, 307.0, 496.499878, 307.0 ],
					"source" : [ "obj-1", 0 ]
				}

			}
, 			{
				"patchline" : 				{
					"destination" : [ "obj-475", 0 ],
					"disabled" : 0,
					"hidden" : 0,
					"midpoints" : [ 367.583374, 100.0, 345.0, 100.0, 345.0, 253.0, 393.0, 253.0, 393.0, 307.0, 630.83313, 307.0 ],
					"source" : [ "obj-1", 0 ]
				}

			}
, 			{
				"patchline" : 				{
					"destination" : [ "obj-476", 0 ],
					"disabled" : 0,
					"hidden" : 0,
					"midpoints" : [ 367.583374, 100.0, 345.0, 100.0, 345.0, 253.0, 393.0, 253.0, 393.0, 307.0, 539.166626, 307.0 ],
					"source" : [ "obj-1", 0 ]
				}

			}
, 			{
				"patchline" : 				{
					"destination" : [ "obj-596", 0 ],
					"disabled" : 0,
					"hidden" : 0,
					"midpoints" : [ 367.583374, 100.0, 843.0, 100.0, 843.0, 397.0, 828.0, 397.0, 828.0, 478.0, 762.583374, 478.0 ],
					"source" : [ "obj-1", 0 ]
				}

			}
, 			{
				"patchline" : 				{
					"destination" : [ "obj-597", 0 ],
					"disabled" : 0,
					"hidden" : 0,
					"midpoints" : [ 367.583374, 100.0, 345.0, 100.0, 345.0, 253.0, 393.0, 253.0, 393.0, 478.0, 673.249878, 478.0 ],
					"source" : [ "obj-1", 0 ]
				}

			}
, 			{
				"patchline" : 				{
					"destination" : [ "obj-598", 0 ],
					"disabled" : 0,
					"hidden" : 0,
					"midpoints" : [ 367.583374, 100.0, 843.0, 100.0, 843.0, 397.0, 828.0, 397.0, 828.0, 478.0, 807.58313, 478.0 ],
					"source" : [ "obj-1", 0 ]
				}

			}
, 			{
				"patchline" : 				{
					"destination" : [ "obj-599", 0 ],
					"disabled" : 0,
					"hidden" : 0,
					"midpoints" : [ 367.583374, 100.0, 345.0, 100.0, 345.0, 253.0, 393.0, 253.0, 393.0, 478.0, 715.916626, 478.0 ],
					"source" : [ "obj-1", 0 ]
				}

			}
, 			{
				"patchline" : 				{
					"destination" : [ "obj-600", 0 ],
					"disabled" : 0,
					"hidden" : 0,
					"midpoints" : [ 367.583374, 100.0, 345.0, 100.0, 345.0, 253.0, 393.0, 253.0, 393.0, 478.0, 585.833374, 478.0 ],
					"source" : [ "obj-1", 0 ]
				}

			}
, 			{
				"patchline" : 				{
					"destination" : [ "obj-601", 0 ],
					"disabled" : 0,
					"hidden" : 0,
					"midpoints" : [ 367.583374, 100.0, 345.0, 100.0, 345.0, 253.0, 393.0, 253.0, 393.0, 478.0, 496.499878, 478.0 ],
					"source" : [ "obj-1", 0 ]
				}

			}
, 			{
				"patchline" : 				{
					"destination" : [ "obj-602", 0 ],
					"disabled" : 0,
					"hidden" : 0,
					"midpoints" : [ 367.583374, 100.0, 345.0, 100.0, 345.0, 253.0, 393.0, 253.0, 393.0, 478.0, 630.83313, 478.0 ],
					"source" : [ "obj-1", 0 ]
				}

			}
, 			{
				"patchline" : 				{
					"destination" : [ "obj-603", 0 ],
					"disabled" : 0,
					"hidden" : 0,
					"midpoints" : [ 367.583374, 100.0, 345.0, 100.0, 345.0, 253.0, 393.0, 253.0, 393.0, 478.0, 539.166626, 478.0 ],
					"source" : [ "obj-1", 0 ]
				}

			}
, 			{
				"patchline" : 				{
					"destination" : [ "obj-604", 0 ],
					"disabled" : 0,
					"hidden" : 0,
					"midpoints" : [ 367.583374, 100.0, 345.0, 100.0, 345.0, 253.0, 393.0, 253.0, 393.0, 478.0, 414.250122, 478.0 ],
					"source" : [ "obj-1", 0 ]
				}

			}
, 			{
				"patchline" : 				{
					"destination" : [ "obj-605", 0 ],
					"disabled" : 0,
					"hidden" : 0,
					"midpoints" : [ 367.583374, 100.0, 345.0, 100.0, 345.0, 259.0, 393.0, 259.0, 393.0, 478.0, 324.916626, 478.0 ],
					"source" : [ "obj-1", 0 ]
				}

			}
, 			{
				"patchline" : 				{
					"destination" : [ "obj-606", 0 ],
					"disabled" : 0,
					"hidden" : 0,
					"midpoints" : [ 367.583374, 100.0, 345.0, 100.0, 345.0, 253.0, 393.0, 253.0, 393.0, 478.0, 459.249878, 478.0 ],
					"source" : [ "obj-1", 0 ]
				}

			}
, 			{
				"patchline" : 				{
					"destination" : [ "obj-607", 0 ],
					"disabled" : 0,
					"hidden" : 0,
					"midpoints" : [ 367.583374, 100.0, 345.0, 100.0, 345.0, 259.0, 393.0, 259.0, 393.0, 478.0, 367.583374, 478.0 ],
					"source" : [ "obj-1", 0 ]
				}

			}
, 			{
				"patchline" : 				{
					"destination" : [ "obj-608", 0 ],
					"disabled" : 0,
					"hidden" : 0,
					"midpoints" : [ 367.583374, 100.0, 177.0, 100.0, 177.0, 478.0, 237.500122, 478.0 ],
					"source" : [ "obj-1", 0 ]
				}

			}
, 			{
				"patchline" : 				{
					"destination" : [ "obj-609", 0 ],
					"disabled" : 0,
					"hidden" : 0,
					"midpoints" : [ 367.583374, 100.0, 123.0, 100.0, 123.0, 478.0, 148.166626, 478.0 ],
					"source" : [ "obj-1", 0 ]
				}

			}
, 			{
				"patchline" : 				{
					"destination" : [ "obj-610", 0 ],
					"disabled" : 0,
					"hidden" : 0,
					"midpoints" : [ 367.583374, 100.0, 177.0, 100.0, 177.0, 478.0, 282.499878, 478.0 ],
					"source" : [ "obj-1", 0 ]
				}

			}
, 			{
				"patchline" : 				{
					"destination" : [ "obj-611", 0 ],
					"disabled" : 0,
					"hidden" : 0,
					"midpoints" : [ 367.583374, 100.0, 177.0, 100.0, 177.0, 478.0, 190.833374, 478.0 ],
					"source" : [ "obj-1", 0 ]
				}

			}
, 			{
				"patchline" : 				{
					"destination" : [ "obj-2", 0 ],
					"disabled" : 0,
					"hidden" : 0,
					"midpoints" : [ 148.166626, 480.0, 123.0, 480.0, 123.0, 723.0, 468.166626, 723.0 ],
					"source" : [ "obj-23", 0 ]
				}

			}
, 			{
				"patchline" : 				{
					"destination" : [ "obj-2", 0 ],
					"disabled" : 0,
					"hidden" : 0,
					"midpoints" : [ 190.833374, 480.0, 444.0, 480.0, 444.0, 723.0, 468.166626, 723.0 ],
					"source" : [ "obj-25", 0 ]
				}

			}
, 			{
				"patchline" : 				{
					"destination" : [ "obj-2", 0 ],
					"disabled" : 0,
					"hidden" : 0,
					"midpoints" : [ 237.500122, 480.0, 444.0, 480.0, 444.0, 723.0, 468.166626, 723.0 ],
					"source" : [ "obj-27", 0 ]
				}

			}
, 			{
				"patchline" : 				{
					"destination" : [ "obj-2", 0 ],
					"disabled" : 0,
					"hidden" : 0,
					"midpoints" : [ 282.499878, 480.0, 444.0, 480.0, 444.0, 723.0, 468.166626, 723.0 ],
					"source" : [ "obj-29", 0 ]
				}

			}
, 			{
				"patchline" : 				{
					"destination" : [ "obj-2", 0 ],
					"disabled" : 0,
					"hidden" : 0,
					"midpoints" : [ 324.916626, 480.0, 444.0, 480.0, 444.0, 723.0, 468.166626, 723.0 ],
					"source" : [ "obj-31", 0 ]
				}

			}
, 			{
				"patchline" : 				{
					"destination" : [ "obj-2", 0 ],
					"disabled" : 0,
					"hidden" : 0,
					"midpoints" : [ 367.583374, 480.0, 444.0, 480.0, 444.0, 723.0, 468.166626, 723.0 ],
					"source" : [ "obj-33", 0 ]
				}

			}
, 			{
				"patchline" : 				{
					"destination" : [ "obj-2", 0 ],
					"disabled" : 0,
					"hidden" : 0,
					"midpoints" : [ 414.250122, 480.0, 444.0, 480.0, 444.0, 723.0, 468.166626, 723.0 ],
					"source" : [ "obj-35", 0 ]
				}

			}
, 			{
				"patchline" : 				{
					"destination" : [ "obj-2", 0 ],
					"disabled" : 0,
					"hidden" : 0,
					"midpoints" : [ 459.249878, 480.0, 444.0, 480.0, 444.0, 723.0, 468.166626, 723.0 ],
					"source" : [ "obj-37", 0 ]
				}

			}
, 			{
				"patchline" : 				{
					"destination" : [ "obj-2", 0 ],
					"disabled" : 0,
					"hidden" : 0,
					"midpoints" : [ 496.499878, 480.0, 483.0, 480.0, 483.0, 723.0, 468.166626, 723.0 ],
					"source" : [ "obj-39", 0 ]
				}

			}
, 			{
				"patchline" : 				{
					"destination" : [ "obj-2", 0 ],
					"disabled" : 0,
					"hidden" : 0,
					"midpoints" : [ 539.166626, 480.0, 483.0, 480.0, 483.0, 723.0, 468.166626, 723.0 ],
					"source" : [ "obj-41", 0 ]
				}

			}
, 			{
				"patchline" : 				{
					"destination" : [ "obj-2", 0 ],
					"disabled" : 0,
					"hidden" : 0,
					"midpoints" : [ 585.833374, 480.0, 483.0, 480.0, 483.0, 723.0, 468.166626, 723.0 ],
					"source" : [ "obj-43", 0 ]
				}

			}
, 			{
				"patchline" : 				{
					"destination" : [ "obj-454", 0 ],
					"disabled" : 0,
					"hidden" : 0,
					"source" : [ "obj-451", 0 ]
				}

			}
, 			{
				"patchline" : 				{
					"destination" : [ "obj-451", 1 ],
					"disabled" : 0,
					"hidden" : 0,
					"source" : [ "obj-453", 0 ]
				}

			}
, 			{
				"patchline" : 				{
					"destination" : [ "obj-10", 0 ],
					"disabled" : 0,
					"hidden" : 0,
					"midpoints" : [ 485.16687, 294.069214, 799.308105, 294.069214, 799.308105, 124.0, 1113.449341, 124.0 ],
					"source" : [ "obj-454", 26 ]
				}

			}
, 			{
				"patchline" : 				{
					"destination" : [ "obj-11", 0 ],
					"disabled" : 0,
					"hidden" : 0,
					"midpoints" : [ 474.66687, 294.069214, 782.058228, 294.069214, 782.058228, 124.0, 1089.449585, 124.0 ],
					"source" : [ "obj-454", 25 ]
				}

			}
, 			{
				"patchline" : 				{
					"destination" : [ "obj-12", 0 ],
					"disabled" : 0,
					"hidden" : 0,
					"midpoints" : [ 464.16687, 294.069214, 763.808228, 294.069214, 763.808228, 124.0, 1063.449585, 124.0 ],
					"source" : [ "obj-454", 24 ]
				}

			}
, 			{
				"patchline" : 				{
					"destination" : [ "obj-1266", 0 ],
					"disabled" : 0,
					"hidden" : 0,
					"midpoints" : [ 212.16687, 294.0, 834.0, 294.0, 834.0, 105.0, 859.450073, 105.0 ],
					"source" : [ "obj-454", 0 ]
				}

			}
, 			{
				"patchline" : 				{
					"destination" : [ "obj-1268", 0 ],
					"disabled" : 0,
					"hidden" : 0,
					"midpoints" : [ 222.66687, 294.0, 834.0, 294.0, 834.0, 96.0, 885.450073, 96.0 ],
					"source" : [ "obj-454", 1 ]
				}

			}
, 			{
				"patchline" : 				{
					"destination" : [ "obj-1269", 0 ],
					"disabled" : 0,
					"hidden" : 0,
					"midpoints" : [ 243.66687, 294.0, 834.0, 294.0, 834.0, 96.0, 935.449829, 96.0 ],
					"source" : [ "obj-454", 3 ]
				}

			}
, 			{
				"patchline" : 				{
					"destination" : [ "obj-1270", 0 ],
					"disabled" : 0,
					"hidden" : 0,
					"midpoints" : [ 233.16687, 294.0, 834.0, 294.0, 834.0, 96.0, 909.449829, 96.0 ],
					"source" : [ "obj-454", 2 ]
				}

			}
, 			{
				"patchline" : 				{
					"destination" : [ "obj-1271", 0 ],
					"disabled" : 0,
					"hidden" : 0,
					"midpoints" : [ 285.66687, 294.0, 834.0, 294.0, 834.0, 96.0, 1037.449585, 96.0 ],
					"source" : [ "obj-454", 7 ]
				}

			}
, 			{
				"patchline" : 				{
					"destination" : [ "obj-1272", 0 ],
					"disabled" : 0,
					"hidden" : 0,
					"midpoints" : [ 275.16687, 294.0, 834.0, 294.0, 834.0, 96.0, 1011.449585, 96.0 ],
					"source" : [ "obj-454", 6 ]
				}

			}
, 			{
				"patchline" : 				{
					"destination" : [ "obj-1273", 0 ],
					"disabled" : 0,
					"hidden" : 0,
					"midpoints" : [ 264.66687, 294.0, 834.0, 294.0, 834.0, 96.0, 987.449829, 96.0 ],
					"source" : [ "obj-454", 5 ]
				}

			}
, 			{
				"patchline" : 				{
					"destination" : [ "obj-1274", 0 ],
					"disabled" : 0,
					"hidden" : 0,
					"midpoints" : [ 254.16687, 294.0, 834.0, 294.0, 834.0, 96.0, 961.449829, 96.0 ],
					"source" : [ "obj-454", 4 ]
				}

			}
, 			{
				"patchline" : 				{
					"destination" : [ "obj-1275", 0 ],
					"disabled" : 0,
					"hidden" : 0,
					"midpoints" : [ 369.66687, 294.0, 834.0, 294.0, 834.0, 96.0, 1241.449097, 96.0 ],
					"source" : [ "obj-454", 15 ]
				}

			}
, 			{
				"patchline" : 				{
					"destination" : [ "obj-1276", 0 ],
					"disabled" : 0,
					"hidden" : 0,
					"midpoints" : [ 359.16687, 294.0, 834.0, 294.0, 834.0, 96.0, 1215.449097, 96.0 ],
					"source" : [ "obj-454", 14 ]
				}

			}
, 			{
				"patchline" : 				{
					"destination" : [ "obj-1277", 0 ],
					"disabled" : 0,
					"hidden" : 0,
					"midpoints" : [ 348.66687, 294.0, 834.0, 294.0, 834.0, 96.0, 1191.449341, 96.0 ],
					"source" : [ "obj-454", 13 ]
				}

			}
, 			{
				"patchline" : 				{
					"destination" : [ "obj-1278", 0 ],
					"disabled" : 0,
					"hidden" : 0,
					"midpoints" : [ 338.16687, 294.0, 834.0, 294.0, 834.0, 96.0, 1165.449341, 96.0 ],
					"source" : [ "obj-454", 12 ]
				}

			}
, 			{
				"patchline" : 				{
					"destination" : [ "obj-1279", 0 ],
					"disabled" : 0,
					"hidden" : 0,
					"midpoints" : [ 327.66687, 294.0, 834.0, 294.0, 834.0, 96.0, 1139.449341, 96.0 ],
					"source" : [ "obj-454", 11 ]
				}

			}
, 			{
				"patchline" : 				{
					"destination" : [ "obj-1280", 0 ],
					"disabled" : 0,
					"hidden" : 0,
					"midpoints" : [ 317.16687, 294.0, 834.0, 294.0, 834.0, 96.0, 1113.449341, 96.0 ],
					"source" : [ "obj-454", 10 ]
				}

			}
, 			{
				"patchline" : 				{
					"destination" : [ "obj-1281", 0 ],
					"disabled" : 0,
					"hidden" : 0,
					"midpoints" : [ 306.66687, 294.0, 834.0, 294.0, 834.0, 96.0, 1089.449585, 96.0 ],
					"source" : [ "obj-454", 9 ]
				}

			}
, 			{
				"patchline" : 				{
					"destination" : [ "obj-1282", 0 ],
					"disabled" : 0,
					"hidden" : 0,
					"midpoints" : [ 296.16687, 294.0, 834.0, 294.0, 834.0, 96.0, 1063.449585, 96.0 ],
					"source" : [ "obj-454", 8 ]
				}

			}
, 			{
				"patchline" : 				{
					"destination" : [ "obj-13", 0 ],
					"disabled" : 0,
					"hidden" : 0,
					"midpoints" : [ 453.66687, 294.069214, 745.558228, 294.069214, 745.558228, 124.0, 1037.449585, 124.0 ],
					"source" : [ "obj-454", 23 ]
				}

			}
, 			{
				"patchline" : 				{
					"destination" : [ "obj-14", 0 ],
					"disabled" : 0,
					"hidden" : 0,
					"midpoints" : [ 443.16687, 294.069214, 727.308228, 294.069214, 727.308228, 124.0, 1011.449585, 124.0 ],
					"source" : [ "obj-454", 22 ]
				}

			}
, 			{
				"patchline" : 				{
					"destination" : [ "obj-15", 0 ],
					"disabled" : 0,
					"hidden" : 0,
					"midpoints" : [ 432.66687, 294.069214, 710.05835, 294.069214, 710.05835, 124.0, 987.449829, 124.0 ],
					"source" : [ "obj-454", 21 ]
				}

			}
, 			{
				"patchline" : 				{
					"destination" : [ "obj-16", 0 ],
					"disabled" : 0,
					"hidden" : 0,
					"midpoints" : [ 422.16687, 294.069214, 691.80835, 294.069214, 691.80835, 124.0, 961.449829, 124.0 ],
					"source" : [ "obj-454", 20 ]
				}

			}
, 			{
				"patchline" : 				{
					"destination" : [ "obj-17", 0 ],
					"disabled" : 0,
					"hidden" : 0,
					"midpoints" : [ 411.66687, 294.069214, 673.55835, 294.069214, 673.55835, 124.0, 935.449829, 124.0 ],
					"source" : [ "obj-454", 19 ]
				}

			}
, 			{
				"patchline" : 				{
					"destination" : [ "obj-18", 0 ],
					"disabled" : 0,
					"hidden" : 0,
					"midpoints" : [ 401.16687, 294.069214, 655.30835, 294.069214, 655.30835, 124.0, 909.449829, 124.0 ],
					"source" : [ "obj-454", 18 ]
				}

			}
, 			{
				"patchline" : 				{
					"destination" : [ "obj-19", 0 ],
					"disabled" : 0,
					"hidden" : 0,
					"midpoints" : [ 390.66687, 294.069214, 638.058472, 294.069214, 638.058472, 124.0, 885.450073, 124.0 ],
					"source" : [ "obj-454", 17 ]
				}

			}
, 			{
				"patchline" : 				{
					"destination" : [ "obj-20", 0 ],
					"disabled" : 0,
					"hidden" : 0,
					"midpoints" : [ 380.16687, 294.0, 834.0, 294.0, 834.0, 129.0, 859.450073, 129.0 ],
					"source" : [ "obj-454", 16 ]
				}

			}
, 			{
				"patchline" : 				{
					"destination" : [ "obj-4", 0 ],
					"disabled" : 0,
					"hidden" : 0,
					"midpoints" : [ 537.66687, 294.069214, 889.557983, 294.069214, 889.557983, 124.0, 1241.449097, 124.0 ],
					"source" : [ "obj-454", 31 ]
				}

			}
, 			{
				"patchline" : 				{
					"destination" : [ "obj-477", 1 ],
					"disabled" : 0,
					"hidden" : 0,
					"midpoints" : [ 212.16687, 308.0, 163.333374, 308.0, 163.333374, 356.0, 163.166626, 356.0 ],
					"source" : [ "obj-454", 0 ]
				}

			}
, 			{
				"patchline" : 				{
					"destination" : [ "obj-478", 1 ],
					"disabled" : 0,
					"hidden" : 0,
					"midpoints" : [ 222.66687, 308.0, 205.833374, 308.0 ],
					"source" : [ "obj-454", 1 ]
				}

			}
, 			{
				"patchline" : 				{
					"destination" : [ "obj-479", 1 ],
					"disabled" : 0,
					"hidden" : 0,
					"midpoints" : [ 233.16687, 308.0, 253.333374, 308.0, 253.333374, 356.0, 252.500122, 356.0 ],
					"source" : [ "obj-454", 2 ]
				}

			}
, 			{
				"patchline" : 				{
					"destination" : [ "obj-480", 1 ],
					"disabled" : 0,
					"hidden" : 0,
					"midpoints" : [ 243.66687, 308.0, 298.333374, 308.0, 298.333374, 356.0, 297.499878, 356.0 ],
					"source" : [ "obj-454", 3 ]
				}

			}
, 			{
				"patchline" : 				{
					"destination" : [ "obj-481", 1 ],
					"disabled" : 0,
					"hidden" : 0,
					"midpoints" : [ 254.16687, 308.0, 340.333374, 308.0, 340.333374, 356.0, 339.916626, 356.0 ],
					"source" : [ "obj-454", 4 ]
				}

			}
, 			{
				"patchline" : 				{
					"destination" : [ "obj-482", 1 ],
					"disabled" : 0,
					"hidden" : 0,
					"midpoints" : [ 264.66687, 308.0, 391.333374, 308.0, 391.333374, 356.0, 382.583374, 356.0 ],
					"source" : [ "obj-454", 5 ]
				}

			}
, 			{
				"patchline" : 				{
					"destination" : [ "obj-483", 1 ],
					"disabled" : 0,
					"hidden" : 0,
					"midpoints" : [ 275.16687, 308.0, 391.333374, 308.0, 391.333374, 353.0, 429.250122, 353.0 ],
					"source" : [ "obj-454", 6 ]
				}

			}
, 			{
				"patchline" : 				{
					"destination" : [ "obj-484", 1 ],
					"disabled" : 0,
					"hidden" : 0,
					"midpoints" : [ 285.66687, 308.0, 475.333374, 308.0, 475.333374, 356.0, 474.249878, 356.0 ],
					"source" : [ "obj-454", 7 ]
				}

			}
, 			{
				"patchline" : 				{
					"destination" : [ "obj-485", 1 ],
					"disabled" : 0,
					"hidden" : 0,
					"midpoints" : [ 296.16687, 308.0, 511.499878, 308.0 ],
					"source" : [ "obj-454", 8 ]
				}

			}
, 			{
				"patchline" : 				{
					"destination" : [ "obj-486", 1 ],
					"disabled" : 0,
					"hidden" : 0,
					"midpoints" : [ 306.66687, 308.0, 554.166626, 308.0 ],
					"source" : [ "obj-454", 9 ]
				}

			}
, 			{
				"patchline" : 				{
					"destination" : [ "obj-487", 1 ],
					"disabled" : 0,
					"hidden" : 0,
					"midpoints" : [ 317.16687, 308.0, 601.333374, 308.0, 601.333374, 359.0, 600.833374, 359.0 ],
					"source" : [ "obj-454", 10 ]
				}

			}
, 			{
				"patchline" : 				{
					"destination" : [ "obj-488", 1 ],
					"disabled" : 0,
					"hidden" : 0,
					"midpoints" : [ 327.66687, 308.0, 646.333374, 308.0, 646.333374, 359.0, 645.83313, 359.0 ],
					"source" : [ "obj-454", 11 ]
				}

			}
, 			{
				"patchline" : 				{
					"destination" : [ "obj-489", 1 ],
					"disabled" : 0,
					"hidden" : 0,
					"midpoints" : [ 338.16687, 308.0, 688.333374, 308.0, 688.333374, 359.0, 688.249878, 359.0 ],
					"source" : [ "obj-454", 12 ]
				}

			}
, 			{
				"patchline" : 				{
					"destination" : [ "obj-490", 1 ],
					"disabled" : 0,
					"hidden" : 0,
					"midpoints" : [ 348.66687, 308.0, 730.916626, 308.0 ],
					"source" : [ "obj-454", 13 ]
				}

			}
, 			{
				"patchline" : 				{
					"destination" : [ "obj-491", 1 ],
					"disabled" : 0,
					"hidden" : 0,
					"midpoints" : [ 359.16687, 308.0, 778.333374, 308.0, 778.333374, 356.0, 777.583374, 356.0 ],
					"source" : [ "obj-454", 14 ]
				}

			}
, 			{
				"patchline" : 				{
					"destination" : [ "obj-492", 1 ],
					"disabled" : 0,
					"hidden" : 0,
					"midpoints" : [ 369.66687, 308.0, 832.333374, 308.0, 832.333374, 353.0, 822.58313, 353.0 ],
					"source" : [ "obj-454", 15 ]
				}

			}
, 			{
				"patchline" : 				{
					"destination" : [ "obj-580", 1 ],
					"disabled" : 0,
					"hidden" : 0,
					"midpoints" : [ 537.66687, 306.0, 843.0, 306.0, 843.0, 528.0, 822.58313, 528.0 ],
					"source" : [ "obj-454", 31 ]
				}

			}
, 			{
				"patchline" : 				{
					"destination" : [ "obj-581", 1 ],
					"disabled" : 0,
					"hidden" : 0,
					"midpoints" : [ 527.16687, 480.0, 777.583374, 480.0 ],
					"source" : [ "obj-454", 30 ]
				}

			}
, 			{
				"patchline" : 				{
					"destination" : [ "obj-582", 1 ],
					"disabled" : 0,
					"hidden" : 0,
					"midpoints" : [ 516.66687, 306.0, 702.0, 306.0, 702.0, 480.0, 732.0, 480.0, 732.0, 528.0, 730.916626, 528.0 ],
					"source" : [ "obj-454", 29 ]
				}

			}
, 			{
				"patchline" : 				{
					"destination" : [ "obj-583", 1 ],
					"disabled" : 0,
					"hidden" : 0,
					"midpoints" : [ 506.16687, 306.0, 660.0, 306.0, 660.0, 480.0, 688.249878, 480.0 ],
					"source" : [ "obj-454", 28 ]
				}

			}
, 			{
				"patchline" : 				{
					"destination" : [ "obj-584", 1 ],
					"disabled" : 0,
					"hidden" : 0,
					"midpoints" : [ 495.66687, 306.0, 618.0, 306.0, 618.0, 480.0, 645.83313, 480.0 ],
					"source" : [ "obj-454", 27 ]
				}

			}
, 			{
				"patchline" : 				{
					"destination" : [ "obj-585", 1 ],
					"disabled" : 0,
					"hidden" : 0,
					"midpoints" : [ 485.16687, 480.0, 600.833374, 480.0 ],
					"source" : [ "obj-454", 26 ]
				}

			}
, 			{
				"patchline" : 				{
					"destination" : [ "obj-586", 1 ],
					"disabled" : 0,
					"hidden" : 0,
					"midpoints" : [ 474.66687, 306.0, 525.0, 306.0, 525.0, 480.0, 555.0, 480.0, 555.0, 528.0, 554.166626, 528.0 ],
					"source" : [ "obj-454", 25 ]
				}

			}
, 			{
				"patchline" : 				{
					"destination" : [ "obj-587", 1 ],
					"disabled" : 0,
					"hidden" : 0,
					"midpoints" : [ 464.16687, 306.0, 483.0, 306.0, 483.0, 480.0, 511.499878, 480.0 ],
					"source" : [ "obj-454", 24 ]
				}

			}
, 			{
				"patchline" : 				{
					"destination" : [ "obj-588", 1 ],
					"disabled" : 0,
					"hidden" : 0,
					"midpoints" : [ 453.66687, 306.0, 444.0, 306.0, 444.0, 480.0, 474.249878, 480.0 ],
					"source" : [ "obj-454", 23 ]
				}

			}
, 			{
				"patchline" : 				{
					"destination" : [ "obj-589", 1 ],
					"disabled" : 0,
					"hidden" : 0,
					"midpoints" : [ 443.16687, 480.0, 429.250122, 480.0 ],
					"source" : [ "obj-454", 22 ]
				}

			}
, 			{
				"patchline" : 				{
					"destination" : [ "obj-590", 1 ],
					"disabled" : 0,
					"hidden" : 0,
					"midpoints" : [ 432.66687, 306.0, 393.0, 306.0, 393.0, 480.0, 384.0, 480.0, 384.0, 528.0, 382.583374, 528.0 ],
					"source" : [ "obj-454", 21 ]
				}

			}
, 			{
				"patchline" : 				{
					"destination" : [ "obj-591", 1 ],
					"disabled" : 0,
					"hidden" : 0,
					"midpoints" : [ 422.16687, 306.0, 351.0, 306.0, 351.0, 480.0, 339.916626, 480.0 ],
					"source" : [ "obj-454", 20 ]
				}

			}
, 			{
				"patchline" : 				{
					"destination" : [ "obj-592", 1 ],
					"disabled" : 0,
					"hidden" : 0,
					"midpoints" : [ 411.66687, 306.0, 306.0, 306.0, 306.0, 480.0, 297.499878, 480.0 ],
					"source" : [ "obj-454", 19 ]
				}

			}
, 			{
				"patchline" : 				{
					"destination" : [ "obj-593", 1 ],
					"disabled" : 0,
					"hidden" : 0,
					"midpoints" : [ 401.16687, 480.0, 252.500122, 480.0 ],
					"source" : [ "obj-454", 18 ]
				}

			}
, 			{
				"patchline" : 				{
					"destination" : [ "obj-594", 1 ],
					"disabled" : 0,
					"hidden" : 0,
					"midpoints" : [ 390.66687, 306.0, 216.0, 306.0, 216.0, 480.0, 207.0, 480.0, 207.0, 528.0, 205.833374, 528.0 ],
					"source" : [ "obj-454", 17 ]
				}

			}
, 			{
				"patchline" : 				{
					"destination" : [ "obj-595", 1 ],
					"disabled" : 0,
					"hidden" : 0,
					"midpoints" : [ 380.16687, 306.0, 123.0, 306.0, 123.0, 528.0, 163.166626, 528.0 ],
					"source" : [ "obj-454", 16 ]
				}

			}
, 			{
				"patchline" : 				{
					"destination" : [ "obj-6", 0 ],
					"disabled" : 0,
					"hidden" : 0,
					"midpoints" : [ 527.16687, 294.069214, 871.307983, 294.069214, 871.307983, 124.0, 1215.449097, 124.0 ],
					"source" : [ "obj-454", 30 ]
				}

			}
, 			{
				"patchline" : 				{
					"destination" : [ "obj-7", 0 ],
					"disabled" : 0,
					"hidden" : 0,
					"midpoints" : [ 516.66687, 294.069214, 854.058105, 294.069214, 854.058105, 124.0, 1191.449341, 124.0 ],
					"source" : [ "obj-454", 29 ]
				}

			}
, 			{
				"patchline" : 				{
					"destination" : [ "obj-8", 0 ],
					"disabled" : 0,
					"hidden" : 0,
					"midpoints" : [ 506.16687, 294.069214, 835.808105, 294.069214, 835.808105, 124.0, 1165.449341, 124.0 ],
					"source" : [ "obj-454", 28 ]
				}

			}
, 			{
				"patchline" : 				{
					"destination" : [ "obj-9", 0 ],
					"disabled" : 0,
					"hidden" : 0,
					"midpoints" : [ 495.66687, 294.069214, 817.558105, 294.069214, 817.558105, 124.0, 1139.449341, 124.0 ],
					"source" : [ "obj-454", 27 ]
				}

			}
, 			{
				"patchline" : 				{
					"destination" : [ "obj-451", 0 ],
					"disabled" : 0,
					"hidden" : 0,
					"source" : [ "obj-456", 0 ]
				}

			}
, 			{
				"patchline" : 				{
					"destination" : [ "obj-478", 0 ],
					"disabled" : 0,
					"hidden" : 0,
					"source" : [ "obj-458", 0 ]
				}

			}
, 			{
				"patchline" : 				{
					"destination" : [ "obj-2", 0 ],
					"disabled" : 0,
					"hidden" : 0,
					"midpoints" : [ 630.83313, 480.0, 483.0, 480.0, 483.0, 723.0, 468.166626, 723.0 ],
					"source" : [ "obj-46", 0 ]
				}

			}
, 			{
				"patchline" : 				{
					"destination" : [ "obj-480", 0 ],
					"disabled" : 0,
					"hidden" : 0,
					"source" : [ "obj-460", 0 ]
				}

			}
, 			{
				"patchline" : 				{
					"destination" : [ "obj-477", 0 ],
					"disabled" : 0,
					"hidden" : 0,
					"source" : [ "obj-462", 0 ]
				}

			}
, 			{
				"patchline" : 				{
					"destination" : [ "obj-479", 0 ],
					"disabled" : 0,
					"hidden" : 0,
					"source" : [ "obj-464", 0 ]
				}

			}
, 			{
				"patchline" : 				{
					"destination" : [ "obj-483", 0 ],
					"disabled" : 0,
					"hidden" : 0,
					"source" : [ "obj-465", 0 ]
				}

			}
, 			{
				"patchline" : 				{
					"destination" : [ "obj-481", 0 ],
					"disabled" : 0,
					"hidden" : 0,
					"source" : [ "obj-466", 0 ]
				}

			}
, 			{
				"patchline" : 				{
					"destination" : [ "obj-484", 0 ],
					"disabled" : 0,
					"hidden" : 0,
					"source" : [ "obj-467", 0 ]
				}

			}
, 			{
				"patchline" : 				{
					"destination" : [ "obj-482", 0 ],
					"disabled" : 0,
					"hidden" : 0,
					"source" : [ "obj-468", 0 ]
				}

			}
, 			{
				"patchline" : 				{
					"destination" : [ "obj-491", 0 ],
					"disabled" : 0,
					"hidden" : 0,
					"source" : [ "obj-469", 0 ]
				}

			}
, 			{
				"patchline" : 				{
					"destination" : [ "obj-489", 0 ],
					"disabled" : 0,
					"hidden" : 0,
					"source" : [ "obj-470", 0 ]
				}

			}
, 			{
				"patchline" : 				{
					"destination" : [ "obj-492", 0 ],
					"disabled" : 0,
					"hidden" : 0,
					"source" : [ "obj-471", 0 ]
				}

			}
, 			{
				"patchline" : 				{
					"destination" : [ "obj-490", 0 ],
					"disabled" : 0,
					"hidden" : 0,
					"source" : [ "obj-472", 0 ]
				}

			}
, 			{
				"patchline" : 				{
					"destination" : [ "obj-487", 0 ],
					"disabled" : 0,
					"hidden" : 0,
					"source" : [ "obj-473", 0 ]
				}

			}
, 			{
				"patchline" : 				{
					"destination" : [ "obj-485", 0 ],
					"disabled" : 0,
					"hidden" : 0,
					"source" : [ "obj-474", 0 ]
				}

			}
, 			{
				"patchline" : 				{
					"destination" : [ "obj-488", 0 ],
					"disabled" : 0,
					"hidden" : 0,
					"source" : [ "obj-475", 0 ]
				}

			}
, 			{
				"patchline" : 				{
					"destination" : [ "obj-486", 0 ],
					"disabled" : 0,
					"hidden" : 0,
					"source" : [ "obj-476", 0 ]
				}

			}
, 			{
				"patchline" : 				{
					"destination" : [ "obj-23", 0 ],
					"disabled" : 0,
					"hidden" : 0,
					"source" : [ "obj-477", 0 ]
				}

			}
, 			{
				"patchline" : 				{
					"destination" : [ "obj-25", 0 ],
					"disabled" : 0,
					"hidden" : 0,
					"source" : [ "obj-478", 0 ]
				}

			}
, 			{
				"patchline" : 				{
					"destination" : [ "obj-27", 0 ],
					"disabled" : 0,
					"hidden" : 0,
					"source" : [ "obj-479", 0 ]
				}

			}
, 			{
				"patchline" : 				{
					"destination" : [ "obj-2", 0 ],
					"disabled" : 0,
					"hidden" : 0,
					"midpoints" : [ 673.249878, 480.0, 483.0, 480.0, 483.0, 723.0, 468.166626, 723.0 ],
					"source" : [ "obj-48", 0 ]
				}

			}
, 			{
				"patchline" : 				{
					"destination" : [ "obj-29", 0 ],
					"disabled" : 0,
					"hidden" : 0,
					"source" : [ "obj-480", 0 ]
				}

			}
, 			{
				"patchline" : 				{
					"destination" : [ "obj-31", 0 ],
					"disabled" : 0,
					"hidden" : 0,
					"source" : [ "obj-481", 0 ]
				}

			}
, 			{
				"patchline" : 				{
					"destination" : [ "obj-33", 0 ],
					"disabled" : 0,
					"hidden" : 0,
					"source" : [ "obj-482", 0 ]
				}

			}
, 			{
				"patchline" : 				{
					"destination" : [ "obj-35", 0 ],
					"disabled" : 0,
					"hidden" : 0,
					"source" : [ "obj-483", 0 ]
				}

			}
, 			{
				"patchline" : 				{
					"destination" : [ "obj-37", 0 ],
					"disabled" : 0,
					"hidden" : 0,
					"source" : [ "obj-484", 0 ]
				}

			}
, 			{
				"patchline" : 				{
					"destination" : [ "obj-39", 0 ],
					"disabled" : 0,
					"hidden" : 0,
					"source" : [ "obj-485", 0 ]
				}

			}
, 			{
				"patchline" : 				{
					"destination" : [ "obj-41", 0 ],
					"disabled" : 0,
					"hidden" : 0,
					"source" : [ "obj-486", 0 ]
				}

			}
, 			{
				"patchline" : 				{
					"destination" : [ "obj-43", 0 ],
					"disabled" : 0,
					"hidden" : 0,
					"source" : [ "obj-487", 0 ]
				}

			}
, 			{
				"patchline" : 				{
					"destination" : [ "obj-46", 0 ],
					"disabled" : 0,
					"hidden" : 0,
					"source" : [ "obj-488", 0 ]
				}

			}
, 			{
				"patchline" : 				{
					"destination" : [ "obj-48", 0 ],
					"disabled" : 0,
					"hidden" : 0,
					"source" : [ "obj-489", 0 ]
				}

			}
, 			{
				"patchline" : 				{
					"destination" : [ "obj-50", 0 ],
					"disabled" : 0,
					"hidden" : 0,
					"source" : [ "obj-490", 0 ]
				}

			}
, 			{
				"patchline" : 				{
					"destination" : [ "obj-52", 0 ],
					"disabled" : 0,
					"hidden" : 0,
					"source" : [ "obj-491", 0 ]
				}

			}
, 			{
				"patchline" : 				{
					"destination" : [ "obj-54", 0 ],
					"disabled" : 0,
					"hidden" : 0,
					"source" : [ "obj-492", 0 ]
				}

			}
, 			{
				"patchline" : 				{
					"destination" : [ "obj-2", 0 ],
					"disabled" : 0,
					"hidden" : 0,
					"midpoints" : [ 715.916626, 480.0, 483.0, 480.0, 483.0, 723.0, 468.166626, 723.0 ],
					"source" : [ "obj-50", 0 ]
				}

			}
, 			{
				"patchline" : 				{
					"destination" : [ "obj-2", 0 ],
					"disabled" : 0,
					"hidden" : 0,
					"midpoints" : [ 762.583374, 480.0, 483.0, 480.0, 483.0, 723.0, 468.166626, 723.0 ],
					"source" : [ "obj-52", 0 ]
				}

			}
, 			{
				"patchline" : 				{
					"destination" : [ "obj-2", 0 ],
					"disabled" : 0,
					"hidden" : 0,
					"midpoints" : [ 807.58313, 480.0, 843.0, 480.0, 843.0, 723.0, 468.166626, 723.0 ],
					"source" : [ "obj-54", 0 ]
				}

			}
, 			{
				"patchline" : 				{
					"destination" : [ "obj-2", 0 ],
					"disabled" : 0,
					"hidden" : 0,
					"midpoints" : [ 148.166626, 723.0, 468.166626, 723.0 ],
					"source" : [ "obj-56", 0 ]
				}

			}
, 			{
				"patchline" : 				{
					"destination" : [ "obj-2", 0 ],
					"disabled" : 0,
					"hidden" : 0,
					"midpoints" : [ 190.833374, 723.0, 468.166626, 723.0 ],
					"source" : [ "obj-58", 0 ]
				}

			}
, 			{
				"patchline" : 				{
					"destination" : [ "obj-86", 0 ],
					"disabled" : 0,
					"hidden" : 0,
					"source" : [ "obj-580", 0 ]
				}

			}
, 			{
				"patchline" : 				{
					"destination" : [ "obj-84", 0 ],
					"disabled" : 0,
					"hidden" : 0,
					"source" : [ "obj-581", 0 ]
				}

			}
, 			{
				"patchline" : 				{
					"destination" : [ "obj-82", 0 ],
					"disabled" : 0,
					"hidden" : 0,
					"source" : [ "obj-582", 0 ]
				}

			}
, 			{
				"patchline" : 				{
					"destination" : [ "obj-80", 0 ],
					"disabled" : 0,
					"hidden" : 0,
					"source" : [ "obj-583", 0 ]
				}

			}
, 			{
				"patchline" : 				{
					"destination" : [ "obj-78", 0 ],
					"disabled" : 0,
					"hidden" : 0,
					"source" : [ "obj-584", 0 ]
				}

			}
, 			{
				"patchline" : 				{
					"destination" : [ "obj-76", 0 ],
					"disabled" : 0,
					"hidden" : 0,
					"source" : [ "obj-585", 0 ]
				}

			}
, 			{
				"patchline" : 				{
					"destination" : [ "obj-74", 0 ],
					"disabled" : 0,
					"hidden" : 0,
					"source" : [ "obj-586", 0 ]
				}

			}
, 			{
				"patchline" : 				{
					"destination" : [ "obj-72", 0 ],
					"disabled" : 0,
					"hidden" : 0,
					"source" : [ "obj-587", 0 ]
				}

			}
, 			{
				"patchline" : 				{
					"destination" : [ "obj-70", 0 ],
					"disabled" : 0,
					"hidden" : 0,
					"source" : [ "obj-588", 0 ]
				}

			}
, 			{
				"patchline" : 				{
					"destination" : [ "obj-68", 0 ],
					"disabled" : 0,
					"hidden" : 0,
					"source" : [ "obj-589", 0 ]
				}

			}
, 			{
				"patchline" : 				{
					"destination" : [ "obj-66", 0 ],
					"disabled" : 0,
					"hidden" : 0,
					"source" : [ "obj-590", 0 ]
				}

			}
, 			{
				"patchline" : 				{
					"destination" : [ "obj-64", 0 ],
					"disabled" : 0,
					"hidden" : 0,
					"source" : [ "obj-591", 0 ]
				}

			}
, 			{
				"patchline" : 				{
					"destination" : [ "obj-62", 0 ],
					"disabled" : 0,
					"hidden" : 0,
					"source" : [ "obj-592", 0 ]
				}

			}
, 			{
				"patchline" : 				{
					"destination" : [ "obj-60", 0 ],
					"disabled" : 0,
					"hidden" : 0,
					"source" : [ "obj-593", 0 ]
				}

			}
, 			{
				"patchline" : 				{
					"destination" : [ "obj-58", 0 ],
					"disabled" : 0,
					"hidden" : 0,
					"source" : [ "obj-594", 0 ]
				}

			}
, 			{
				"patchline" : 				{
					"destination" : [ "obj-56", 0 ],
					"disabled" : 0,
					"hidden" : 0,
					"source" : [ "obj-595", 0 ]
				}

			}
, 			{
				"patchline" : 				{
					"destination" : [ "obj-581", 0 ],
					"disabled" : 0,
					"hidden" : 0,
					"source" : [ "obj-596", 0 ]
				}

			}
, 			{
				"patchline" : 				{
					"destination" : [ "obj-583", 0 ],
					"disabled" : 0,
					"hidden" : 0,
					"source" : [ "obj-597", 0 ]
				}

			}
, 			{
				"patchline" : 				{
					"destination" : [ "obj-580", 0 ],
					"disabled" : 0,
					"hidden" : 0,
					"source" : [ "obj-598", 0 ]
				}

			}
, 			{
				"patchline" : 				{
					"destination" : [ "obj-582", 0 ],
					"disabled" : 0,
					"hidden" : 0,
					"source" : [ "obj-599", 0 ]
				}

			}
, 			{
				"patchline" : 				{
					"destination" : [ "obj-2", 0 ],
					"disabled" : 0,
					"hidden" : 0,
					"midpoints" : [ 237.500122, 723.0, 468.166626, 723.0 ],
					"source" : [ "obj-60", 0 ]
				}

			}
, 			{
				"patchline" : 				{
					"destination" : [ "obj-585", 0 ],
					"disabled" : 0,
					"hidden" : 0,
					"source" : [ "obj-600", 0 ]
				}

			}
, 			{
				"patchline" : 				{
					"destination" : [ "obj-587", 0 ],
					"disabled" : 0,
					"hidden" : 0,
					"source" : [ "obj-601", 0 ]
				}

			}
, 			{
				"patchline" : 				{
					"destination" : [ "obj-584", 0 ],
					"disabled" : 0,
					"hidden" : 0,
					"source" : [ "obj-602", 0 ]
				}

			}
, 			{
				"patchline" : 				{
					"destination" : [ "obj-586", 0 ],
					"disabled" : 0,
					"hidden" : 0,
					"source" : [ "obj-603", 0 ]
				}

			}
, 			{
				"patchline" : 				{
					"destination" : [ "obj-589", 0 ],
					"disabled" : 0,
					"hidden" : 0,
					"source" : [ "obj-604", 0 ]
				}

			}
, 			{
				"patchline" : 				{
					"destination" : [ "obj-591", 0 ],
					"disabled" : 0,
					"hidden" : 0,
					"source" : [ "obj-605", 0 ]
				}

			}
, 			{
				"patchline" : 				{
					"destination" : [ "obj-588", 0 ],
					"disabled" : 0,
					"hidden" : 0,
					"source" : [ "obj-606", 0 ]
				}

			}
, 			{
				"patchline" : 				{
					"destination" : [ "obj-590", 0 ],
					"disabled" : 0,
					"hidden" : 0,
					"source" : [ "obj-607", 0 ]
				}

			}
, 			{
				"patchline" : 				{
					"destination" : [ "obj-593", 0 ],
					"disabled" : 0,
					"hidden" : 0,
					"source" : [ "obj-608", 0 ]
				}

			}
, 			{
				"patchline" : 				{
					"destination" : [ "obj-595", 0 ],
					"disabled" : 0,
					"hidden" : 0,
					"source" : [ "obj-609", 0 ]
				}

			}
, 			{
				"patchline" : 				{
					"destination" : [ "obj-592", 0 ],
					"disabled" : 0,
					"hidden" : 0,
					"source" : [ "obj-610", 0 ]
				}

			}
, 			{
				"patchline" : 				{
					"destination" : [ "obj-594", 0 ],
					"disabled" : 0,
					"hidden" : 0,
					"source" : [ "obj-611", 0 ]
				}

			}
, 			{
				"patchline" : 				{
					"destination" : [ "obj-2", 0 ],
					"disabled" : 0,
					"hidden" : 0,
					"midpoints" : [ 282.499878, 723.0, 468.166626, 723.0 ],
					"source" : [ "obj-62", 0 ]
				}

			}
, 			{
				"patchline" : 				{
					"destination" : [ "obj-2", 0 ],
					"disabled" : 0,
					"hidden" : 0,
					"midpoints" : [ 324.916626, 723.0, 468.166626, 723.0 ],
					"source" : [ "obj-64", 0 ]
				}

			}
, 			{
				"patchline" : 				{
					"destination" : [ "obj-2", 0 ],
					"disabled" : 0,
					"hidden" : 0,
					"midpoints" : [ 367.583374, 723.0, 468.166626, 723.0 ],
					"source" : [ "obj-66", 0 ]
				}

			}
, 			{
				"patchline" : 				{
					"destination" : [ "obj-2", 0 ],
					"disabled" : 0,
					"hidden" : 0,
					"midpoints" : [ 414.250122, 723.0, 468.166626, 723.0 ],
					"source" : [ "obj-68", 0 ]
				}

			}
, 			{
				"patchline" : 				{
					"destination" : [ "obj-2", 0 ],
					"disabled" : 0,
					"hidden" : 0,
					"midpoints" : [ 459.249878, 723.0, 468.166626, 723.0 ],
					"source" : [ "obj-70", 0 ]
				}

			}
, 			{
				"patchline" : 				{
					"destination" : [ "obj-2", 0 ],
					"disabled" : 0,
					"hidden" : 0,
					"midpoints" : [ 496.499878, 723.0, 468.166626, 723.0 ],
					"source" : [ "obj-72", 0 ]
				}

			}
, 			{
				"patchline" : 				{
					"destination" : [ "obj-2", 0 ],
					"disabled" : 0,
					"hidden" : 0,
					"midpoints" : [ 539.166626, 723.0, 468.166626, 723.0 ],
					"source" : [ "obj-74", 0 ]
				}

			}
, 			{
				"patchline" : 				{
					"destination" : [ "obj-2", 0 ],
					"disabled" : 0,
					"hidden" : 0,
					"midpoints" : [ 585.833374, 723.0, 468.166626, 723.0 ],
					"source" : [ "obj-76", 0 ]
				}

			}
, 			{
				"patchline" : 				{
					"destination" : [ "obj-2", 0 ],
					"disabled" : 0,
					"hidden" : 0,
					"midpoints" : [ 630.83313, 723.0, 468.166626, 723.0 ],
					"source" : [ "obj-78", 0 ]
				}

			}
, 			{
				"patchline" : 				{
					"destination" : [ "obj-2", 0 ],
					"disabled" : 0,
					"hidden" : 0,
					"midpoints" : [ 673.249878, 723.0, 468.166626, 723.0 ],
					"source" : [ "obj-80", 0 ]
				}

			}
, 			{
				"patchline" : 				{
					"destination" : [ "obj-2", 0 ],
					"disabled" : 0,
					"hidden" : 0,
					"midpoints" : [ 715.916626, 723.0, 468.166626, 723.0 ],
					"source" : [ "obj-82", 0 ]
				}

			}
, 			{
				"patchline" : 				{
					"destination" : [ "obj-2", 0 ],
					"disabled" : 0,
					"hidden" : 0,
					"midpoints" : [ 762.583374, 723.0, 468.166626, 723.0 ],
					"source" : [ "obj-84", 0 ]
				}

			}
, 			{
				"patchline" : 				{
					"destination" : [ "obj-2", 0 ],
					"disabled" : 0,
					"hidden" : 0,
					"midpoints" : [ 807.58313, 723.0, 468.166626, 723.0 ],
					"source" : [ "obj-86", 0 ]
				}

			}
 ],
		"dependency_cache" : [  ],
		"embedsnapshot" : 0,
		"styles" : [ 			{
				"name" : "newobjBlue-1",
				"default" : 				{
					"accentcolor" : [ 0.317647, 0.654902, 0.976471, 1.0 ]
				}
,
				"parentstyle" : "",
				"multi" : 0
			}
, 			{
				"name" : "newobjBrown-1",
				"default" : 				{
					"accentcolor" : [ 0.654902, 0.572549, 0.376471, 1.0 ]
				}
,
				"parentstyle" : "",
				"multi" : 0
			}
, 			{
				"name" : "newobjGreen-1",
				"default" : 				{
					"accentcolor" : [ 0.0, 0.533333, 0.168627, 1.0 ]
				}
,
				"parentstyle" : "",
				"multi" : 0
			}
, 			{
				"name" : "newobjYellow-1",
				"default" : 				{
					"accentcolor" : [ 0.82517, 0.78181, 0.059545, 1.0 ],
					"fontsize" : [ 12.059008 ]
				}
,
				"parentstyle" : "",
				"multi" : 0
			}
, 			{
				"name" : "numberGold-1",
				"default" : 				{
					"accentcolor" : [ 0.764706, 0.592157, 0.101961, 1.0 ]
				}
,
				"parentstyle" : "",
				"multi" : 0
			}
 ],
		"default_bgcolor" : [ 0.239216, 0.254902, 0.278431, 1.0 ],
		"color" : [ 0.0, 1.0, 0.854902, 1.0 ],
		"elementcolor" : [ 0.380896, 0.406538, 0.487159, 1.0 ],
		"accentcolor" : [ 0.32549, 0.345098, 0.372549, 1.0 ],
		"textcolor" : [ 0.0, 1.0, 0.854902, 1.0 ],
		"textcolor_inverse" : [ 0.0, 1.0, 0.933333, 1.0 ],
		"bgfillcolor_type" : "gradient",
		"bgfillcolor_color1" : [ 0.32549, 0.345098, 0.372549, 1.0 ],
		"bgfillcolor_color2" : [ 0.32549, 0.345098, 0.372549, 1.0 ],
		"bgfillcolor_color" : [ 0.290196, 0.309804, 0.301961, 1.0 ],
		"bgfillcolor_angle" : 270.0,
		"bgfillcolor_proportion" : 0.39
	}

}
